<?xml version="1.0" encoding="UTF-8" standalone="no"?>
<!DOCTYPE svg  PUBLIC '-//W3C//DTD SVG 1.1//EN'  'http://www.w3.org/Graphics/SVG/1.1/DTD/svg11.dtd'>
<svg xmlns="http://www.w3.org/2000/svg">
<defs>
<font id="AGaramondPro-Bold" horiz-adv-x="520">
<font-face underline-position="-50" font-weight="700" descent="-200" panose-1="2 2 7 2 6 5 6 2 4 3" units-per-em="1000" unicode-range="U+0020-FB04" bbox="-76 -302 1147 893" x-height="402" underline-thickness="50" font-family="Adobe Garamond Pro Bold" ascent="800" cap-height="664"/>
<missing-glyph horiz-adv-x="1000"/>
<glyph glyph-name="T_h" horiz-adv-x="1104" unicode="Th" d="M265 144v441q0 19 -3.5 24t-20.5 5h-72q-51 0 -74.5 -25t-49.5 -88q-6 -3 -14 -3q-17 0 -23 12q9 31 15.5 62.5t11.5 65.5t6 42q7 5 14 5q9 0 14 -4q4 -14 17 -17.5t67 -3.5h392q88 0 95 14v10l116 31q11 0 17 -7q-3 -62 -3 -146v-184q0 -12 7 -12q3 0 16 8q59 40 115 40 q60 0 93 -35.5t33 -90.5v-172q0 -52 6.5 -65.5t33.5 -16.5l16 -2q6 -5 6 -17q0 -14 -7 -18q-47 3 -121 3q-75 0 -108 -3q-7 4 -7 18q0 13 6 17l18 3q18 3 22.5 14t4.5 52v173q0 29 -17.5 48t-52.5 19q-39 0 -56 -24q-8 -9 -8 -37v-179q0 -41 4.5 -52t22.5 -14l18 -3 q6 -4 6 -17q0 -14 -7 -18q-46 3 -111 3q-66 0 -117 -3q-7 4 -7 18q0 13 6 17l18 2q25 3 31 16.5t6 65.5v416q0 48 -24 65t-106 17h-75q-18 0 -22.5 -5t-4.5 -24v-441q0 -69 8.5 -85.5t42.5 -21.5l40 -5q5 -4 5 -18q0 -13 -5 -17q-97 3 -160 3q-65 0 -170 -3q-6 5 -6 17 q0 14 6 18l45 5q34 4 42.5 21t8.5 86z"/>
<glyph glyph-name="f_f_j" horiz-adv-x="837" unicode="ffj" d="M240 400h102q14 0 18 4t4 17q0 79 20 148q-7 29 -25.5 52.5t-48.5 23.5q-39 0 -67.5 -46t-28.5 -162v-9q0 -20 3.5 -24t22.5 -4zM59 346h-37q-6 3 -6 17q0 7 3 10l43 22q22 12 22 26q0 79 28 140q60 130 206 130q85 0 121 -35q59 59 166 59q74 0 120 -29.5t46 -73.5 q0 -30 -21 -47.5t-50 -17.5q-32 0 -45 21q-4 6 -13 25t-14 27q-26 45 -62 45q-19 0 -34 -14t-26.5 -57t-11.5 -113v-56q0 -18 3 -21.5t18 -3.5h5h77q130 0 165 8q16 0 17 -15q-5 -53 -5 -115v-162v-63q0 -108 -21 -161q-22 -57 -65.5 -93.5t-135.5 -67.5q-16 6 -16 24 q0 7 2 9q31 16 49 36q57 57 57 232v84v143q0 59 -8 73t-44 14h-72q-18 0 -22 -4t-4 -24v-202q0 -54 6 -67t31 -17l13 -2q6 -4 6 -16q0 -13 -7 -17q-43 3 -116 3q-60 0 -108 -3q-7 4 -7 17q0 12 6 16l16 2q20 2 25 16t5 68v202q0 20 -3.5 24t-21.5 4h-99q-16 0 -21.5 -2.5 t-5.5 -14.5q0 -7 1 -11v-202q0 -54 6 -67t31 -17l13 -2q6 -4 6 -16q0 -13 -7 -17q-43 3 -116 3q-67 0 -115 -3q-7 4 -7 17q0 12 6 16l16 2q25 3 31 16.5t6 67.5v202q0 20 -3.5 24t-21.5 4z"/>
<glyph glyph-name="f_j" horiz-adv-x="557" unicode="fj" d="M84 116v202q0 20 -3.5 24t-21.5 4h-37q-6 3 -6 17q0 7 3 10l43 22q22 12 22 26q0 97 31 163q61 131 210 131q74 0 120 -29.5t46 -73.5q0 -30 -21 -47.5t-50 -17.5q-32 0 -45 21q-4 6 -13 25t-14 27q-26 45 -62 45q-19 0 -34 -14t-26.5 -57t-11.5 -113v-56q0 -18 3 -21.5 t18 -3.5h5h77q130 0 165 8q16 0 17 -15q-5 -53 -5 -115v-162v-63q0 -108 -21 -161q-22 -57 -65.5 -93.5t-135.5 -67.5q-16 6 -16 24q0 7 2 9q31 16 49 36q57 57 57 232v84v143q0 59 -8 73t-44 14h-72q-18 0 -22 -3.5t-4 -22.5v-204q0 -54 6 -67t31 -17l13 -2q6 -4 6 -16 q0 -13 -7 -17q-43 3 -116 3q-67 0 -115 -3q-7 4 -7 17q0 12 6 16l16 2q25 3 31 16.5t6 67.5z"/>
<glyph glyph-name="ff" horiz-adv-x="591" unicode="ff" d="M240 400h102q14 0 18 4t4 17q0 79 20 148q-7 29 -25.5 52.5t-48.5 23.5q-39 0 -67.5 -46t-28.5 -162v-9q0 -20 3.5 -24t22.5 -4zM59 346h-37q-6 3 -6 17q0 7 3 10l43 22q22 12 22 26q0 79 28 140q60 130 205 130q81 0 117 -35q51 59 154 59q46 0 81.5 -22.5t35.5 -59.5 q0 -25 -16 -39.5t-42 -14.5q-24 0 -40 18q-52 66 -71 66q-42 0 -42 -122v-113q0 -20 3.5 -24t22.5 -4h95q7 -4 7 -20q0 -25 -13 -34h-89q-19 0 -22.5 -4t-3.5 -24v-202q0 -54 6 -67.5t31 -15.5l33 -3q6 -4 6 -16q0 -13 -7 -17q-71 3 -134 3q-62 0 -110 -3q-7 4 -7 17 q0 12 6 16l16 2q20 2 25 16t5 68v202q0 20 -3.5 24t-21.5 4h-99q-16 0 -21.5 -2.5t-5.5 -14.5q0 -7 1 -11v-202q0 -54 6 -67t31 -17l13 -2q6 -4 6 -16q0 -13 -7 -17q-43 3 -116 3q-67 0 -115 -3q-7 4 -7 17q0 12 6 16l16 2q25 3 31 16.5t6 67.5v202q0 20 -3.5 24t-21.5 4z "/>
<glyph glyph-name="fi" horiz-adv-x="566" unicode="fi" d="M84 116v202q0 20 -3.5 24t-21.5 4h-37q-6 3 -6 17q0 7 3 10l43 22q22 12 22 26q0 97 31 163q61 131 210 131q74 0 120 -29.5t46 -73.5q0 -30 -21 -47.5t-50 -17.5q-32 0 -45 21q-4 6 -13 25t-14 27q-26 45 -62 45q-19 0 -34 -14t-26.5 -57t-11.5 -113v-56q0 -18 3 -21.5 t18 -3.5h5h77q130 0 165 8q16 0 17 -15q-5 -53 -5 -115v-162q0 -54 6 -67.5t31 -16.5l16 -2q6 -4 6 -16q0 -13 -7 -17q-48 3 -117 3q-62 0 -110 -3q-7 4 -7 17q0 12 6 16l16 2q20 2 25 16t5 68v143q0 59 -8 73t-44 14h-72q-18 0 -22 -3.5t-4 -22.5v-204q0 -54 6 -67t31 -17 l13 -2q6 -4 6 -16q0 -13 -7 -17q-43 3 -116 3q-67 0 -115 -3q-7 4 -7 17q0 12 6 16l16 2q25 3 31 16.5t6 67.5z"/>
<glyph glyph-name="fl" horiz-adv-x="566" unicode="fl" d="M240 400h97q19 0 23 3.5t4 21.5v161q0 28 -18 54.5t-49 26.5q-16 0 -29.5 -10t-26 -32.5t-20 -67t-7.5 -106.5v-23q0 -20 3.5 -24t22.5 -4zM59 346h-37q-6 3 -6 17q0 7 3 10l43 22q22 12 22 26q0 107 30 171q26 55 75.5 89t117.5 34q64 0 107 -30q32 11 66 30q11 0 17 -7 q-3 -61 -3 -146v-446q0 -52 6 -65.5t31 -16.5l16 -2q6 -4 6 -17q0 -14 -7 -18q-48 3 -117 3q-62 0 -110 -3q-7 4 -7 17q0 12 6 16l16 2q20 2 25 16t5 68v205q0 18 -4 21.5t-23 3.5h-97q-19 0 -22.5 -4t-3.5 -24v-202q0 -54 6 -67t31 -17l13 -2q6 -4 6 -16q0 -13 -7 -17 q-43 3 -116 3q-67 0 -115 -3q-7 4 -7 18q0 13 6 17l16 2q25 3 31 16.5t6 65.5v202q0 20 -3.5 24t-21.5 4z"/>
<glyph glyph-name="ffi" horiz-adv-x="846" unicode="ffi" d="M240 400h102q14 0 18 4t4 17q0 79 20 148q-7 29 -25.5 52.5t-48.5 23.5q-39 0 -67.5 -46t-28.5 -162v-9q0 -20 3.5 -24t22.5 -4zM59 346h-37q-6 3 -6 17q0 7 3 10l43 22q22 12 22 26q0 79 28 140q60 130 206 130q85 0 121 -35q59 59 166 59q74 0 120 -29.5t46 -73.5 q0 -30 -21 -47.5t-50 -17.5q-32 0 -45 21q-4 6 -13 25t-14 27q-26 45 -62 45q-19 0 -34 -14t-26.5 -57t-11.5 -113v-56q0 -18 3 -21.5t18 -3.5h5h77q130 0 165 8q16 0 17 -15q-5 -53 -5 -115v-162q0 -54 6 -67.5t31 -16.5l16 -2q6 -4 6 -16q0 -13 -7 -17q-46 3 -117 3 q-62 0 -110 -3q-7 4 -7 17q0 12 6 16l16 2q20 2 25 16t5 68v143q0 59 -8 73t-44 14h-72q-18 0 -22 -4t-4 -24v-202q0 -54 6 -67t31 -17l13 -2q6 -4 6 -16q0 -13 -7 -17q-43 3 -116 3q-60 0 -108 -3q-7 4 -7 17q0 12 6 16l16 2q20 2 25 16t5 68v202q0 20 -3.5 24t-21.5 4h-99 q-16 0 -21.5 -2.5t-5.5 -14.5q0 -7 1 -11v-202q0 -54 6 -67t31 -17l13 -2q6 -4 6 -16q0 -13 -7 -17q-43 3 -116 3q-67 0 -115 -3q-7 4 -7 17q0 12 6 16l16 2q25 3 31 16.5t6 67.5v202q0 20 -3.5 24t-21.5 4z"/>
<glyph glyph-name="ffl" horiz-adv-x="846" unicode="ffl" d="M520 400h97q19 0 23 3.5t4 21.5v161q0 28 -18 54.5t-49 26.5q-16 0 -29.5 -10t-26 -32.5t-20 -67t-7.5 -106.5v-23q0 -20 3.5 -24t22.5 -4zM240 400h102q14 0 18 4t4 17q0 79 20 148q-7 29 -25.5 52.5t-48.5 23.5q-39 0 -67.5 -46t-28.5 -162v-9q0 -20 3.5 -24t22.5 -4z M59 346h-37q-6 3 -6 17q0 7 3 10l43 22q22 12 22 26q0 79 28 140q60 130 205 130q81 0 117 -35q19 21 59.5 40t91.5 19q66 0 109 -30q32 11 66 30q11 0 17 -7q-3 -62 -3 -146v-446q0 -52 6 -65.5t31 -16.5l16 -2q6 -4 6 -17q0 -14 -7 -18q-48 3 -117 3q-62 0 -110 -3 q-7 4 -7 17q0 12 6 16l16 2q20 2 25 16t5 68v205q0 18 -4 21.5t-23 3.5h-97q-19 0 -22.5 -4t-3.5 -24v-202q0 -54 6 -67t31 -17l13 -2q6 -4 6 -16q0 -13 -7 -17q-43 3 -116 3q-67 0 -115 -3q-7 4 -7 18q0 13 6 17l16 2q25 3 31 16.5t6 65.5v202q0 20 -3.5 24t-21.5 4h-99 q-16 0 -21.5 -2.5t-5.5 -14.5q0 -7 1 -11v-202q0 -54 6 -67t31 -17l13 -2q6 -4 6 -16q0 -13 -7 -17q-43 3 -116 3q-67 0 -115 -3q-7 4 -7 17q0 12 6 16l16 2q25 3 31 16.5t6 67.5v202q0 20 -3.5 24t-21.5 4z"/>
<glyph glyph-name=".notdef" horiz-adv-x="1000"/>
<glyph glyph-name=".null" horiz-adv-x="0"/>
<glyph glyph-name="nonmarkingreturn" horiz-adv-x="333"/>
<glyph glyph-name="space" horiz-adv-x="240" unicode=" "/>
<glyph glyph-name="space" horiz-adv-x="240" unicode=" "/>
<glyph glyph-name="exclam" horiz-adv-x="254" unicode="!" d="M127 -14q-32 0 -56.5 23t-24.5 58t23.5 59t57.5 24q35 0 58 -25t23 -58q0 -35 -22.5 -58t-58.5 -23zM127 646q41 0 60.5 -9.5t19.5 -33.5q0 -5 -16 -117l-42 -281q-9 -6 -22 -6t-22 6l-42 281q-16 112 -16 117q0 24 19.5 33.5t60.5 9.5z"/>
<glyph glyph-name="quotedbl" horiz-adv-x="472" unicode='&quot;' d="M336 700q36 0 50 -6t14 -28q0 -11 -8 -57l-37 -205q-9 -6 -19 -6t-19 6l-37 205q-8 46 -8 57q0 22 14 28t50 6zM136 700q36 0 50 -6t14 -28q0 -11 -8 -57l-37 -205q-9 -6 -19 -6t-19 6l-37 205q-8 46 -8 57q0 22 14 28t50 6z"/>
<glyph glyph-name="numbersign" d="M492 396h-99l-40 -147h88l-11 -64h-94l-50 -182h-60l48 182h-97l-50 -182h-59l48 182h-98l11 64h104l39 147h-99l12 65h104l43 163h64l-44 -163h95l43 163h65l-44 -163h90zM330 396h-96l-40 -147h97z" unicode="#"/>
<glyph glyph-name="dollar" d="M338 703l-9 -77q37 -2 113 -20q17 -49 17 -130q-5 -8 -19 -8q-11 0 -15 5q-10 32 -35.5 63t-66.5 42l-23 -194l49 -21q54 -23 94.5 -68t40.5 -113q0 -80 -61.5 -129.5t-168.5 -52.5l-11 -93q-4 -7 -24 -7t-24 7l11 95q-91 5 -138 38q-14 15 -23 55.5t-9 87.5q6 9 18 9 q10 0 16 -7q14 -44 53 -85t89 -51l27 225l-32 14q-135 58 -135 169q0 74 56.5 120t152.5 50l9 76q4 7 24 7t24 -7zM284 253l-24 -207q49 4 74 30t25 68q0 69 -75 109zM255 406l21 175q-43 -3 -66 -27t-23 -60q0 -52 68 -88z" unicode="$"/>
<glyph glyph-name="percent" horiz-adv-x="866" unicode="%" d="M268 -40q-3 -1 -8 -1q-27 0 -37 25q202 360 370 670h4q12 0 24.5 -6.5t16.5 -17.5q-202 -360 -370 -670zM142 447q0 -155 64 -155q60 0 60 155q0 153 -60 153q-64 0 -64 -153zM204 252q-55 0 -93.5 33t-53 75t-14.5 86q0 72 40.5 133t120.5 61t120.5 -61t40.5 -133 q0 -44 -14.5 -86t-53 -75t-93.5 -33zM601 183q0 -155 64 -155q60 0 60 155q0 153 -60 153q-64 0 -64 -153zM663 -12q-55 0 -93.5 33t-53 75t-14.5 86q0 72 40.5 133t120.5 61t120.5 -61t40.5 -133q0 -44 -14.5 -86t-53 -75t-93.5 -33z"/>
<glyph glyph-name="ampersand" horiz-adv-x="825" unicode="&amp;" d="M375 520q0 31 -15.5 53.5t-44.5 22.5q-26 0 -43 -21t-17 -52q0 -25 10.5 -46t25 -33.5t25.5 -19.5t16 -8q11 4 27 35t16 69zM189 203q0 -62 39 -99t96 -37q33 0 63.5 15.5t44 30t13.5 17.5q0 1 -16 29q-51 87 -149 150q-21 14 -24 14q-5 0 -19.5 -12.5t-31 -42 t-16.5 -65.5zM313 640q71 0 113.5 -38t42.5 -96q0 -13 -3 -25t-7 -21.5t-11.5 -18.5t-13 -15t-15.5 -13.5t-15 -10.5l-15 -9t-12 -7q70 -37 149 -140q30 52 53 106q25 57 25 70t-27 18l-18 3q-6 5 -6 16q0 16 9 19h41q41 0 197 6q9 -3 9 -19q0 -12 -7 -16l-27 -4 q-38 -6 -67 -30q-16 -12 -75 -100q-9 -13 -31.5 -47.5t-28.5 -43.5q-12 -17 -14 -26h2v1l1 -3q2 -3 6 -10.5t10 -16.5q4 -5 19.5 -27.5t23.5 -30.5t24.5 -22t36 -19.5t44.5 -5.5q50 0 90 27q6 -2 10 -10t2 -15q-25 -30 -76.5 -55t-122.5 -25q-49 0 -81 12.5t-43 30.5 q-2 4 -9 14t-13.5 20.5t-10.5 20.5q-51 -49 -95 -73.5t-107 -24.5q-98 0 -156 50t-58 129q0 41 16 76t42.5 58.5t49.5 37.5t47 24q-65 51 -65 120q0 72 51 115.5t116 43.5z"/>
<glyph glyph-name="quotesingle" horiz-adv-x="253" unicode="&apos;" d="M127 700q36 0 50 -6t14 -28q0 -11 -8 -57l-37 -205q-9 -6 -19 -6t-19 6l-37 205q-8 46 -8 57q0 22 14 28t50 6z"/>
<glyph glyph-name="parenleft" horiz-adv-x="340" unicode="(" d="M181 270q0 -120 36.5 -233t112.5 -181q0 -18 -17 -19q-112 61 -170.5 179.5t-58.5 253.5t58.5 253.5t170.5 179.5q17 -1 17 -19q-76 -68 -112.5 -181t-36.5 -233z"/>
<glyph glyph-name="parenright" horiz-adv-x="340" unicode=")" d="M159 270q0 120 -36.5 233t-112.5 181q0 18 17 19q112 -61 170.5 -179.5t58.5 -253.5t-58.5 -253.5t-170.5 -179.5q-17 1 -17 19q76 68 112.5 181t36.5 233z"/>
<glyph glyph-name="asterisk" horiz-adv-x="405" unicode="*" d="M231 539l124 66q8 -2 13 -11t3 -20l-114 -80l113 -78q0 -1 0.5 -3t0.5 -3q0 -18 -15 -25l-125 64l-13 -132q-6 -4 -15 -4q-8 0 -16 4l-13 132l-127 -64q-14 5 -14 22q0 4 1 6l115 81l-115 81q-1 2 -1 6q0 16 14 23l127 -65l13 133q8 4 16 4q7 0 15 -4z"/>
<glyph glyph-name="plus" d="M305 0h-88v177h-157v72h157v159h88v-159h156v-72h-156v-177z" unicode="+"/>
<glyph glyph-name="comma" horiz-adv-x="260" unicode="," d="M116 168q38 0 70.5 -32.5t32.5 -96.5q0 -70 -46.5 -114.5t-117.5 -60.5q-17 2 -17 19q0 9 6 13q35 13 62 38.5t27 58.5q0 49 -58 65q-31 9 -31 45q0 27 21 46t51 19z"/>
<glyph glyph-name="hyphen" horiz-adv-x="328" unicode="-" d="M45 237l239 22q14 -16 14 -42q0 -23 -13 -39l-240 -22q-15 15 -15 40q0 22 15 41z"/>
<glyph glyph-name="hyphen" horiz-adv-x="328" unicode="­" d="M45 237l239 22q14 -16 14 -42q0 -23 -13 -39l-240 -22q-15 15 -15 40q0 22 15 41z"/>
<glyph glyph-name="period" horiz-adv-x="260" unicode="." d="M130 -14q-32 0 -56.5 23t-24.5 58t23.5 59t57.5 24q35 0 58 -25t23 -58q0 -35 -22.5 -58t-58.5 -23z"/>
<glyph glyph-name="slash" horiz-adv-x="339" unicode="/" d="M319 676l-209 -692h-90l209 692h90z"/>
<glyph glyph-name="zero" d="M175 313q0 -42 3 -82.5t11 -89.5t26 -79t45 -30t45 30t26 79t11 89.5t3 82.5t-3 82.5t-11 89.5t-26 79t-45 30t-45 -30t-26 -79t-11 -89.5t-3 -82.5zM260 640q77 0 131 -50.5t77 -122.5t23 -154q0 -85 -23 -156.5t-77 -121t-131 -49.5t-131 49.5t-77 121t-23 156.5 q0 82 23 154t77 122.5t131 50.5z" unicode="0"/>
<glyph glyph-name="one" d="M330 514v-385q0 -60 9 -75.5t46 -18.5l41 -3q6 -5 6 -17q0 -15 -8 -18q-54 3 -158 3q-108 0 -162 -3q-8 3 -8 18q0 13 6 17l41 3q37 3 46 18.5t9 75.5v327q0 51 -8 67t-40 20l-46 6q-7 4 -7 19q0 12 5 16q56 8 128 28q19 6 40 14t33.5 13t15.5 5q11 0 14 -11 q-3 -34 -3 -119z" unicode="1"/>
<glyph glyph-name="two" d="M221 103h121q57 0 75 8t39 47q5 5 15 5q16 0 19 -11q-7 -45 -21.5 -90.5t-27.5 -64.5q-60 3 -140 3h-159q-86 0 -112 -3q-11 3 -11 17q0 1 0.5 2.5t0.5 2.5q92 85 155 154q62 68 96.5 131t34.5 136q0 53 -30 87.5t-79 34.5q-75 0 -129 -92q-8 -4 -12 -4q-19 0 -21 18 q30 74 92.5 115t137.5 41q86 0 137.5 -48.5t51.5 -121.5q0 -60 -31.5 -112t-119.5 -135l-48 -45q-53 -49 -53 -63q0 -12 19 -12z" unicode="2"/>
<glyph glyph-name="three" d="M213 577q-68 0 -123 -83q-2 -1 -6 -1q-9 0 -15.5 6t-6.5 14q30 60 85.5 93.5t123.5 33.5q73 0 116 -32t43 -83q0 -36 -25.5 -66.5t-100.5 -62.5q-12 -6 -1 -11q4 -2 10 -2h6q67 0 114.5 -43t47.5 -112q0 -119 -115 -204q-111 -80 -231 -80q-45 0 -76.5 17.5t-31.5 53.5 q0 22 16 38.5t44 16.5q7 0 14 -2t13.5 -6.5t11 -8.5t9.5 -10t8 -9.5t6.5 -9.5t4.5 -7q15 -23 43 -23q41 0 87.5 48.5t46.5 131.5q0 67 -32 110t-85 43t-99 -42q-11 2 -18.5 11.5t-7.5 21.5q0 8 3 15q115 43 161 81q42 35 42 90q0 29 -23 51t-59 22z" unicode="3"/>
<glyph glyph-name="four" d="M277 129v28q0 20 -3.5 24.5t-19.5 4.5h-231q-13 6 -13 21q0 3 2 11l325 464q17 24 33 24h29q18 0 18 -10q0 -8 -8 -17l-300 -416q-5 -8 -5 -12q0 -9 27 -9h123q16 0 19.5 4.5t3.5 24.5v140q0 28 22 36q73 31 97 31q13 0 13 -17v-190q0 -20 3.5 -24.5t19.5 -4.5h66 q11 -6 11 -28t-11 -28h-66q-16 0 -19.5 -4.5t-3.5 -24.5v-28q0 -61 8.5 -76.5t41.5 -18.5l21 -2q6 -4 6 -17q0 -15 -8 -18q-54 3 -135 3q-109 0 -160 -3q-8 3 -8 18q0 13 6 17l41 3q37 3 46 18t9 76z" unicode="4"/>
<glyph glyph-name="five" d="M165 622l265 32q11 0 11 -12q-15 -65 -55 -103l-226 -25q-17 -2 -23 -29l-6 -23q-1 -4 -1 -10q0 -16 28 -19q137 -16 204 -49q46 -23 76 -66t30 -101q0 -138 -144 -216q-115 -62 -271 -66q-14 6 -14 28q0 13 8 19q134 6 200 45q93 55 93 135q0 41 -17.5 71.5t-40.5 46.5 t-62 27t-64.5 14.5t-65.5 6.5q-32 3 -32 19q0 3 2 15l60 230q5 18 12 22.5t33 7.5z" unicode="5"/>
<glyph glyph-name="six" d="M29 254q0 84 35 164t96 138q59 57 144.5 95t173.5 42q9 -5 9 -18q0 -9 -6 -17q-87 -21 -136.5 -53t-94.5 -87q-75 -93 -75 -255q0 -89 29 -160t81 -71q41 0 58.5 34.5t17.5 78.5q0 39 -10 80t-37 75.5t-67 34.5q-6 1 -23 -1q-9 6 -7 18q14 16 44.5 30t55.5 14 q88 0 134 -55t46 -134q0 -99 -62.5 -160t-166.5 -61q-112 0 -175.5 74t-63.5 194z" unicode="6"/>
<glyph glyph-name="seven" d="M169 626h192q125 0 145 3q11 -3 9 -16q-33 -49 -99 -165l-288 -510h-6q-14 0 -27.5 8.5t-14.5 22.5l263 457q33 58 33 79q0 16 -29 16h-212q-43 0 -58 -8.5t-33 -40.5q-5 -5 -13 -5q-16 0 -21 12q11 32 39 150q50 -3 120 -3z" unicode="7"/>
<glyph glyph-name="eight" d="M265 594q-35 0 -58 -26.5t-23 -66.5q0 -74 116 -124q48 29 48 109q0 49 -25.5 78.5t-57.5 29.5zM271 32q35 0 59 25.5t24 68.5q0 55 -34.5 91.5t-103.5 68.5q-51 -51 -51 -127q0 -54 29 -90.5t77 -36.5zM255 -14q-93 0 -156 42t-63 120q0 99 132 166q-106 58 -106 154 q0 75 56.5 123.5t148.5 48.5q86 0 139.5 -42.5t53.5 -113.5q0 -48 -29 -78.5t-80 -59.5q134 -68 134 -187q0 -75 -59 -124t-171 -49z" unicode="8"/>
<glyph glyph-name="nine" d="M250 640q111 0 174.5 -74t63.5 -183q0 -177 -138 -304q-61 -57 -148.5 -97t-151.5 -42q-10 4 -10 18q0 10 6 15q141 35 218.5 145.5t77.5 254.5q0 32 -5 67t-16 71.5t-33 59.5t-52 23q-34 0 -54 -34.5t-20 -82.5q0 -67 26.5 -119t74.5 -61q13 -2 28 -2q8 -5 6 -21 q-29 -31 -99 -31q-71 0 -120.5 51.5t-49.5 126.5q0 95 64 157t158 62z" unicode="9"/>
<glyph glyph-name="colon" horiz-adv-x="260" unicode=":" d="M130 230q-32 0 -56.5 22t-24.5 56q0 37 23.5 61.5t57.5 24.5q35 0 58 -25.5t23 -60.5q0 -34 -22.5 -56t-58.5 -22zM130 -14q-32 0 -56.5 23t-24.5 58t23.5 59t57.5 24q35 0 58 -25t23 -58q0 -35 -22.5 -58t-58.5 -23z"/>
<glyph glyph-name="semicolon" horiz-adv-x="260" unicode=";" d="M130 230q-32 0 -56.5 22t-24.5 56q0 37 23.5 61.5t57.5 24.5q35 0 58 -25.5t23 -60.5q0 -34 -22.5 -56t-58.5 -22zM116 168q38 0 70.5 -32.5t32.5 -96.5q0 -70 -46.5 -114.5t-117.5 -60.5q-17 2 -17 19q0 9 6 13q35 13 62 38.5t27 58.5q0 49 -58 65q-31 9 -31 45 q0 27 21 46t51 19z"/>
<glyph glyph-name="less" d="M66 236l389 178v-83l-286 -123v-2l286 -124v-82l-389 177v59z" unicode="&lt;"/>
<glyph glyph-name="equal" d="M461 250h-401v72h401v-72zM461 106h-401v72h401v-72z" unicode="="/>
<glyph glyph-name="greater" d="M66 414l389 -178v-59l-389 -177v82l286 124v2l-286 123v83z" unicode="&gt;"/>
<glyph glyph-name="question" horiz-adv-x="332" unicode="?" d="M131 -14q-32 0 -56.5 23t-24.5 58t23.5 59t57.5 24q35 0 58 -25t23 -58q0 -35 -22.5 -58t-58.5 -23zM55 321q0 39 20 58.5t70 40.5l47 20q26 11 37 18.5t11 17.5q0 23 -33.5 33.5t-111.5 10.5q-18 0 -36.5 17t-18.5 47q0 26 19.5 44t50.5 18q70 0 126 -61.5t56 -142.5 q0 -78 -63 -107l-66 -30q-41 -18 -41 -43t10 -54q-4 -9 -20 -9q-9 0 -13 4q-15 21 -29.5 55.5t-14.5 62.5z"/>
<glyph glyph-name="at" horiz-adv-x="769" unicode="@" d="M379 139q29 27 65 83t45 85q-10 25 -30 25q-14 0 -49 -31q-38 -34 -69.5 -95t-31.5 -91q0 -14 10 -14q19 0 60 38zM441 541q136 0 214.5 -78.5t78.5 -191.5q0 -101 -71 -165.5t-194 -64.5q-26 0 -42.5 5.5t-20.5 11.5t-4 11q0 7 9 32l21 55l-2 1q-38 -46 -93.5 -81 t-87.5 -35q-21 0 -32.5 13t-11.5 31q0 19 19 63t57 93q40 50 93 87t104 37q26 0 34 -16l24 45q10 2 16 2q34 0 53 -14q-5 -14 -55.5 -131.5t-57.5 -135.5q-5 -15 -5 -21q0 -13 19 -13q66 0 120.5 52t54.5 136q0 101 -69 164t-171 63q-134 0 -220 -99.5t-86 -235.5 q0 -35 8 -69.5t28 -71t50.5 -63.5t80 -44.5t112.5 -17.5q73 0 154 33q12 -5 12 -22q0 -6 -3 -10q-84 -46 -195 -46q-68 0 -128 19.5t-108.5 56.5t-77 98t-28.5 138q0 169 118 274t283 105z"/>
<glyph glyph-name="A" horiz-adv-x="624" unicode="A" d="M232 279h87q24 0 24 12q0 1 -4 17l-26 81q-28 87 -36 105q-18 -40 -41 -110l-25 -75q-4 -11 -4 -18q0 -12 25 -12zM324 226h-112q-18 0 -23.5 -3t-9.5 -17l-37 -116q-7 -23 -7 -36q0 -11 36 -17l30 -5q5 -7 5 -18q0 -14 -7 -17q-6 0 -117 3q-16 0 -47 -1.5t-56 -1.5 q-8 4 -8 18q0 10 5 17l27 3q21 3 35 13t26 37q17 40 62 160l90 244q6 17 14.5 39t13 33.5t8 25t3.5 23.5v6q13 3 27 10.5t24 15.5t18 16l13 13l5 5q18 0 23 -20q12 -42 45 -137l136 -392q18 -50 29.5 -67.5t37.5 -21.5l38 -6q5 -5 5 -18q0 -12 -6 -17q-72 3 -154 3 q-66 0 -135 -3q-9 5 -9 19q0 10 7 16l32 5q27 5 27 17q0 9 -19 68l-27 86q-4 12 -12.5 15t-35.5 3z"/>
<glyph glyph-name="B" horiz-adv-x="635" unicode="B" d="M252 287v-118q0 -66 17 -96.5t71 -30.5t83.5 38t29.5 100q0 67 -38 107.5t-108 40.5q-41 0 -48 -5.5t-7 -35.5zM252 565v-165q0 -20 7.5 -24t45.5 -4q60 0 89 32.5t29 82.5q0 63 -34.5 96.5t-88.5 33.5q-34 0 -41 -8.5t-7 -43.5zM114 144v353q0 77 -6.5 95t-37.5 22 l-27 4q-7 4 -7 18q0 17 11 18q137 9 249 9q141 0 204 -37q69 -42 69 -127q0 -55 -33.5 -85.5t-68.5 -39.5q-20 -4 -20 -11q0 -5 14 -8q65 -14 106 -56t41 -112q0 -64 -33 -106t-84 -60q-72 -25 -199 -25q-19 0 -54 2t-49 2q-69 0 -155 -3q-6 5 -6 19q0 13 6 16l29 6 q34 7 42.5 23.5t8.5 82.5z"/>
<glyph glyph-name="C" horiz-adv-x="689" unicode="C" d="M438 676q45 0 89 -6t76 -12.5t41 -7.5q0 -79 12 -156q-4 -12 -24 -12q-9 0 -14 5q-42 143 -188 143q-92 0 -161 -77t-69 -217q0 -142 69.5 -224t165.5 -82q142 0 204 155q4 4 14 4q18 0 24 -11q-11 -112 -38 -157q-133 -37 -203 -37q-167 0 -269 76q-127 97 -127 262 t121 265q107 89 277 89z"/>
<glyph glyph-name="D" horiz-adv-x="793" unicode="D" d="M257 546v-365q0 -89 20 -112q26 -29 83 -29q62 0 108.5 25.5t72.5 69t38.5 92.5t12.5 103q0 137 -71 212t-205 75q-42 0 -52 -13q-7 -9 -7 -58zM114 144v354q0 75 -7.5 95t-40.5 24l-19 2q-7 3 -7 18t9 17q151 9 268 9q142 0 233 -33q96 -34 149.5 -113.5t53.5 -176.5 q0 -101 -46.5 -178.5t-132.5 -120.5q-94 -47 -253 -47q-25 0 -70.5 3t-62.5 3q-70 0 -156 -3q-6 5 -6 18q0 14 6 17l31 5q34 5 42.5 22t8.5 85z"/>
<glyph glyph-name="E" horiz-adv-x="593" unicode="E" d="M257 575v-175q0 -21 4 -25.5t24 -4.5h69q40 0 53.5 9.5t20.5 45.5l5 25q5 6 19 6t18 -7q-3 -48 -3 -106t3 -106q-4 -7 -19 -7q-13 0 -18 6l-5 25q-7 36 -21 46t-53 10h-69q-20 0 -24 -4.5t-4 -26.5v-119q0 -72 16 -95q10 -14 31.5 -20t73.5 -6q39 0 57.5 2.5t41.5 13.5 t39.5 34.5t37.5 65.5q4 6 16 6q18 0 21 -11q-3 -37 -17 -87.5t-25 -72.5q-79 3 -231 3h-130q-60 0 -172 -3q-6 5 -6 18q0 14 6 17l47 7q35 5 43 21t8 84v373q0 67 -8 83t-43 23l-25 5q-6 4 -6 16q0 14 8 19q71 -3 144 -3h212q115 0 134 3q0 -6 2.5 -30.5t5.5 -60t5 -64.5 q-3 -10 -20 -10q-11 0 -17 6q-18 58 -38 79q-31 31 -98 31h-80q-24 0 -28.5 -5.5t-4.5 -33.5z"/>
<glyph glyph-name="F" horiz-adv-x="548" unicode="F" d="M257 573v-181q0 -21 4 -25.5t24 -4.5h77q40 0 53.5 10t20.5 46l5 24q5 6 18 6q15 0 19 -7q-2 -32 -2 -107q0 -74 2 -104q-4 -7 -19 -7q-13 0 -18 6l-5 24q-7 36 -20.5 46t-53.5 10h-77q-20 0 -24 -4.5t-4 -25.5v-135q0 -69 8.5 -85.5t42.5 -21.5l37 -5q5 -4 5 -18 q0 -13 -5 -17q-93 3 -159 3t-156 -3q-6 5 -6 17q0 14 6 18l33 5q34 5 42.5 22t8.5 85v372q0 69 -8.5 86.5t-42.5 22.5l-20 3q-7 5 -7 17q0 15 9 18q64 -3 141 -3h210q114 0 135 3q0 -89 2 -156q-3 -9 -19 -9q-11 0 -19 5q-17 62 -29 78q-27 33 -98 33h-78q-24 0 -28.5 -5.5 t-4.5 -35.5z"/>
<glyph glyph-name="G" horiz-adv-x="734" unicode="G" d="M663 169v-56q0 -35 4 -49t17 -17q3 -3 2 -12.5t-5 -11.5q-53 -9 -70 -15q-28 -9 -82.5 -16.5t-94.5 -7.5q-108 0 -197 35q-90 36 -143.5 116t-53.5 186q0 96 44 174.5t132 127.5q97 53 234 53q65 0 128.5 -12t69.5 -12q1 -9 2.5 -39t4.5 -62.5t7 -59.5q-3 -9 -20 -9 q-14 0 -18 7q-48 141 -188 141q-114 0 -175 -82t-61 -208q0 -195 114 -272q57 -38 137 -38q43 0 56 14t13 62v63q0 40 -9 51t-45 16l-44 6q-8 4 -8 18q0 13 8 17q107 -3 169 -3q80 0 131 3q6 -4 6 -17t-6 -18l-23 -4q-23 -4 -29.5 -16.5t-6.5 -52.5z"/>
<glyph glyph-name="H" horiz-adv-x="806" unicode="H" d="M507 317h-208q-31 0 -36.5 -4t-5.5 -25v-144q0 -69 8.5 -86t42.5 -22l32 -4q6 -5 6 -18q0 -12 -6 -17q-86 3 -152 3q-72 0 -149 -3q-6 5 -6 17q0 14 6 18l24 3q35 5 43 22t8 87v372q0 70 -8 87t-43 22l-24 3q-6 4 -6 18q0 12 6 16q49 -2 149 -2q95 0 139 2q6 -4 6 -16 q0 -14 -6 -18l-21 -3q-33 -5 -41 -22.5t-8 -86.5v-116q0 -22 5.5 -26t36.5 -4h208q31 0 36.5 4t5.5 26v116q0 69 -8 86t-43 22l-27 4q-6 4 -6 18q0 12 6 16q55 -2 152 -2q95 0 141 2q6 -4 6 -16q0 -14 -6 -18l-20 -3q-35 -5 -43.5 -22.5t-8.5 -86.5v-372q0 -69 8.5 -85.5 t43.5 -22.5l24 -4q6 -4 6 -18q0 -12 -6 -17q-75 3 -145 3q-75 0 -147 -3q-6 5 -6 17q0 14 6 18l22 3q35 5 43 22t8 87v144q0 21 -5.5 25t-36.5 4z"/>
<glyph glyph-name="I" horiz-adv-x="371" unicode="I" d="M257 514v-368q0 -69 8.5 -86t43.5 -23l28 -5q6 -5 6 -16q0 -14 -7 -19q-81 3 -150 3q-71 0 -152 -3q-6 5 -6 17q0 14 6 18l28 5q35 6 43.5 23t8.5 86v368q0 69 -8.5 86t-43.5 23l-28 5q-6 4 -6 18t6 18q108 -4 152 -4q43 0 151 4q6 -4 6 -18t-6 -18l-28 -5 q-35 -6 -43.5 -23t-8.5 -86z"/>
<glyph glyph-name="J" horiz-adv-x="383" unicode="J" d="M134 138v376q0 69 -8.5 86t-43.5 22l-38 6q-6 4 -6 18q0 12 6 17q96 -3 161 -3q72 0 150 3q6 -5 6 -17q0 -14 -6 -18l-26 -5q-35 -7 -43.5 -23.5t-8.5 -85.5v-362q0 -132 -23 -193q-59 -153 -234 -160h-5q-27 0 -49 9.5t-22 30.5q0 32 26 58q13 13 28 13q18 0 51 -25 t44 -25q23 0 32 82q9 76 9 196z"/>
<glyph glyph-name="K" horiz-adv-x="715" unicode="K" d="M257 516v-122q0 -23 4 -30t14 -7q14 0 38 19.5t39 38.5q103 124 134 170q13 19 13 26q0 10 -17 13l-23 4q-7 4 -7 16q0 16 11 19q76 -3 124 -3q61 0 121 3q10 -3 10 -19q0 -11 -5 -16q-60 -7 -86 -18q-55 -22 -148 -128l-46 -52q-13 -14 -13 -23q0 -8 36 -62 q11 -17 48.5 -74.5t67.5 -102t61 -84.5q19 -25 35 -34.5t39 -12.5l32 -5q4 -5 4 -17q0 -14 -7 -18q-75 3 -144 3q-73 0 -157 -3q-10 3 -10 18q0 12 8 17l25 6q17 5 17 10q0 8 -8 20q-3 4 -28 42.5t-30 46.5l-53 81q-30 46 -45 62.5t-30 16.5q-16 0 -20 -12.5t-4 -55.5v-105 q0 -69 8.5 -86t42.5 -22l28 -4q6 -6 6 -18t-6 -17q-80 3 -151 3q-70 0 -150 -3q-6 5 -6 17q0 14 6 18l28 4q34 5 42.5 22t8.5 86v372q0 69 -8.5 86t-42.5 22l-28 4q-8 4 -8 18q0 13 8 17q75 -3 150 -3q71 0 151 3q7 -5 7 -17q0 -13 -7 -18l-28 -4q-34 -5 -42.5 -22t-8.5 -86 z"/>
<glyph glyph-name="L" horiz-adv-x="585" unicode="L" d="M257 516v-350q0 -74 17 -95q11 -14 31.5 -19.5t72.5 -5.5q40 0 59 2t41 14t39 35.5t39 67.5q4 6 14 6q17 0 24 -12q-4 -37 -18 -88.5t-25 -73.5q-79 3 -231 3h-134q-65 0 -158 -3q-8 5 -8 21q0 9 5 14l38 5q34 5 42.5 21.5t8.5 85.5v372q0 69 -8.5 86t-42.5 22l-29 4 q-7 4 -7 17t9 18q78 -3 150 -3q73 0 148 3q6 -5 6 -17q0 -14 -6 -18l-26 -4q-34 -5 -42.5 -22t-8.5 -86z"/>
<glyph glyph-name="M" horiz-adv-x="908" unicode="M" d="M56 624l-22 4q-6 6 -6 18q0 15 9 18q68 -4 126 -4q50 0 98 4q0 -15 3 -32t7 -30.5t13.5 -35.5t15 -34.5t19.5 -42t21 -43.5l66 -141q13 -28 54 -102q25 46 56 114l51 110q70 149 92 237q41 -4 76 -4h31q43 0 115 4q9 -4 9 -19q0 -9 -6 -17l-29 -5q-33 -6 -47 -20t-14 -52 q0 -272 8 -440q2 -39 10 -55.5t35 -19.5l32 -4q6 -6 6 -18q0 -14 -8 -17q-69 3 -138 3q-76 0 -148 -3q-10 4 -10 19q0 12 7 16l30 4q33 4 39.5 17t6.5 62l-2 260v114h-2q-169 -365 -220 -496q-9 -7 -20 -7q-17 0 -26 6q-17 55 -56 146t-90 201.5t-68 149.5h-2 q-6 -95 -7 -156q-2 -130 -2 -225q0 -39 8.5 -52.5t37.5 -17.5l39 -6q5 -4 5 -16q0 -14 -7 -19q-56 3 -118 3q-53 0 -113 -3q-10 3 -10 19q0 13 6 16l18 3q38 7 46.5 18.5t13.5 58.5q4 36 16 231q7 117 7 202q0 40 -14.5 56.5t-47.5 22.5z"/>
<glyph glyph-name="N" horiz-adv-x="748" unicode="N" d="M652 409v-239q0 -128 2 -161q-5 -9 -23 -16t-36 -7l-10 14q-10 15 -30 42.5t-41 52.5l-231 286q-95 116 -109 128q-5 -10 -5 -64v-194q0 -146 15 -183q11 -25 58 -32l28 -4q5 -5 5 -17q0 -13 -5 -18q-81 3 -134 3q-55 0 -112 -3q-5 5 -5 18q0 12 5 17l17 3q46 8 55 33 q14 34 14 183v254q0 69 -7 85q-13 28 -57 34l-28 4q-5 5 -5 16q0 16 9 19q70 -3 138 -3q52 0 84 3q4 -16 15.5 -36.5t39.5 -57t45.5 -57.5t64.5 -77l84 -99q77 -91 96 -110q4 10 4 45v138q0 146 -15 183q-11 25 -58 32l-27 4q-5 5 -5 17q0 13 5 18q81 -3 134 -3q54 0 112 3 q5 -5 5 -18q0 -12 -5 -17l-18 -3q-43 -7 -54 -33q-15 -37 -15 -183z"/>
<glyph glyph-name="O" horiz-adv-x="788" unicode="O" d="M588 320q0 132 -54 221t-145 89q-90 0 -139.5 -77t-49.5 -205q0 -51 10 -102t31.5 -102t64 -82.5t100.5 -31.5q93 0 137.5 79.5t44.5 210.5zM397 676q156 0 253.5 -95.5t97.5 -247.5q0 -162 -99 -255.5t-262 -93.5q-153 0 -250 93t-97 248q0 150 101 250.5t256 100.5z "/>
<glyph glyph-name="P" horiz-adv-x="601" unicode="P" d="M114 144v354q0 77 -6.5 95.5t-37.5 22.5l-31 4q-7 4 -7 15q0 13 9 19q119 9 231 9q115 0 183 -26q52 -20 87 -63t35 -110q0 -57 -25.5 -97.5t-64.5 -58.5t-70.5 -25t-57.5 -7q-21 0 -32 1q-6 4 -7 13t4 14q58 18 79 57.5t21 101.5t-32.5 108t-95.5 46q-26 0 -32.5 -9.5 t-6.5 -41.5v-422q0 -69 8.5 -86t42.5 -22l32 -5q8 -3 8 -17q0 -13 -8 -17q-84 3 -153 3t-150 -3q-9 5 -9 19q0 12 7 15l28 5q34 6 42.5 23t8.5 85z"/>
<glyph glyph-name="Q" horiz-adv-x="788" unicode="Q" d="M389 630q-90 0 -139.5 -77t-49.5 -205q0 -51 10 -102t31.5 -102t64 -83t100.5 -32q93 0 137.5 80t44.5 211q0 132 -54 221t-145 89zM397 676q156 0 253.5 -95t97.5 -249q0 -120 -55.5 -203t-153.5 -120q-10 -6 9 -23q129 -121 217 -144q33 -8 75 -8q22 0 43 8 q10 -4 10 -17q0 -5 -1 -7q-53 -37 -143 -37q-194 0 -361 172q-13 14 -17.5 18.5t-14.5 9.5t-21 6q-127 11 -211 103t-84 235q0 150 101 250.5t256 100.5z"/>
<glyph glyph-name="R" horiz-adv-x="664" unicode="R" d="M251 566v-195q0 -27 9 -32.5t53 -5.5q48 0 76 28q36 36 36 108q0 67 -36 107.5t-95 40.5q-31 0 -37 -7.5t-6 -43.5zM114 144v354q0 76 -6.5 94.5t-37.5 22.5l-27 4q-7 3 -7 16q0 15 9 19q135 9 248 9q137 0 196 -36q88 -52 88 -148q0 -59 -30 -93t-76 -57q-12 -6 -5 -22 q54 -110 87.5 -165.5t67.5 -84.5q32 -26 67 -28q7 -4 7 -15q0 -6 -3 -11q-21 -9 -79 -9q-68 0 -114.5 25.5t-79.5 79.5q-38 63 -78 155q-16 35 -53 35q-26 0 -31.5 -3.5t-5.5 -18.5v-123q0 -68 8.5 -84.5t42.5 -22.5l27 -5q5 -2 5 -17q0 -14 -5 -18q-79 3 -147 3t-146 -3 q-6 5 -6 18q0 14 6 17l27 5q34 6 42.5 22.5t8.5 84.5z"/>
<glyph glyph-name="S" horiz-adv-x="506" unicode="S" d="M477 187q0 -92 -69 -147.5t-183 -55.5q-103 0 -170 38q-14 16 -23 63t-9 99q6 11 21 11q11 0 17 -8q18 -57 66 -107t106 -50q52 0 80 30t28 71q0 91 -136 159q-151 77 -151 197q0 85 62.5 137t169.5 52q61 0 114 -16q17 -5 34 -8q18 -49 18 -143q-4 -10 -20 -10 q-13 0 -19 7q-16 48 -49.5 86t-82.5 38q-48 0 -75 -27t-27 -66q0 -33 25.5 -63t65.5 -51l66 -35q141 -75 141 -201z"/>
<glyph glyph-name="T" horiz-adv-x="645" unicode="T" d="M255 144v441q0 19 -3.5 24t-20.5 5h-62q-51 0 -74.5 -25t-49.5 -88q-6 -3 -14 -3q-17 0 -23 12q9 31 15.5 62.5t11.5 65.5t6 42q7 5 14 5q9 0 14 -4q4 -14 17 -17.5t67 -3.5h372q52 0 68 3.5t22 18.5q6 3 13 3q10 0 15 -7q-15 -50 -15 -151v-21q-5 -8 -22 -8q-12 0 -15 5 q-8 30 -13.5 45.5t-17 33t-30 25t-45.5 7.5h-60q-18 0 -22.5 -5t-4.5 -24v-441q0 -69 8.5 -85.5t42.5 -21.5l40 -5q5 -4 5 -18q0 -13 -5 -17q-97 3 -160 3q-65 0 -170 -3q-6 5 -6 17q0 14 6 18l45 5q34 4 42.5 21t8.5 86z"/>
<glyph glyph-name="U" horiz-adv-x="740" unicode="U" d="M109 266v250q0 68 -8 84.5t-43 23.5l-25 5q-6 5 -6 16q0 13 8 17q48 -2 146 -2t146 2q6 -4 6 -16t-6 -17l-24 -4q-34 -6 -42.5 -23t-8.5 -86v-231q0 -41 2.5 -71t12 -65.5t26.5 -57.5t48.5 -37t75.5 -15q167 0 167 249v121q0 148 -15 183q-10 23 -58 32l-27 5q-5 5 -5 16 q0 12 5 17q54 -2 134 -2q74 0 112 2q5 -5 5 -17q0 -11 -5 -16l-18 -4q-44 -10 -54 -33q-15 -35 -15 -183v-112q0 -82 -13 -140.5t-51 -100.5q-67 -72 -198 -72q-129 0 -198 56q-74 61 -74 226z"/>
<glyph glyph-name="V" horiz-adv-x="642" unicode="V" d="M527 421l-73 -173q-30 -71 -62.5 -156.5t-38.5 -99.5q-13 -8 -35 -8q-17 0 -27 8q-5 12 -20 54t-22 60l-162 407q-27 69 -38.5 84.5t-36.5 21.5l-40 10q-5 7 -5 15q0 14 9 19q13 0 59.5 -1.5t76.5 -1.5q58 0 150 3q6 -5 6 -16t-5 -18l-30 -6q-25 -6 -25 -19 q0 -10 40 -110l88 -225q8 -21 31 -77q16 34 32 74l37 94q47 119 79 209q10 27 10 36q0 10 -27 17l-29 7q-6 6 -6 16q0 14 10 18q71 -3 123 -3q50 0 93 3q7 -3 7 -18q0 -11 -5 -16l-26 -5q-37 -7 -55 -35q-34 -51 -83 -168z"/>
<glyph glyph-name="W" horiz-adv-x="960" unicode="W" d="M1011 628l-30 -7q-29 -6 -41 -22q-20 -29 -55 -111q-6 -15 -94 -217t-117 -279q-10 -8 -33 -8q-16 0 -27 8q-4 10 -38 88l-42 95q-27 63 -36 77q-16 -30 -34 -69l-47 -102q-7 -14 -20 -45t-22 -49q-8 -8 -33 -8q-12 0 -26 8q-20 53 -90 207l-164 358q-20 44 -30.5 55 t-35.5 16l-25 5q-5 7 -5 17q0 13 9 17q37 -2 130 -2q83 0 121 2q8 -3 8 -19q0 -11 -6 -15l-18 -3q-25 -4 -25 -15q0 -7 52 -124l99 -221q33 -72 50 -107q26 48 48 97l13 29q13 30 13 44q0 12 -6 27l-96 211q-17 38 -28.5 48t-39.5 13l-10 1q-6 6 -6 16q0 15 9 18 q43 -2 126 -2q89 0 115 2q9 -3 9 -18q0 -13 -5 -16l-17 -4q-27 -7 -27 -14q0 -10 9 -30l30 -69q15 -35 28 -61q3 7 9.5 19.5t11.5 23t9 20.5l9 20q27 60 27 74q0 9 -20 14l-30 7q-5 5 -5 16q0 13 8 18q29 -2 98 -2q76 0 102 2q7 -5 7 -18q0 -12 -6 -17l-28 -6 q-26 -5 -38 -16t-38 -55q-38 -64 -62 -113q-22 -44 -22 -52q0 -7 8 -25l47 -101q21 -45 44 -98q12 28 143 362q27 66 27 85q0 8 -19 14l-22 6q-5 7 -5 16q0 13 8 18q32 -2 102 -2q64 0 92 2q8 -5 8 -18q0 -9 -5 -16z"/>
<glyph glyph-name="X" horiz-adv-x="665" unicode="X" d="M-12 30l23 3q28 4 50 17t33.5 26t32.5 41q48 63 124 176q14 20 14 31q0 10 -16 32q-6 9 -60.5 92t-82.5 123q-17 25 -36 36.5t-53 17.5l-17 3q-7 7 -7 18q0 12 8 17q48 -3 156 -3q105 0 152 3q9 -5 9 -19q0 -9 -5 -16l-22 -4q-34 -6 -34 -15q0 -11 16 -39q35 -62 88 -138 q93 141 99 151q11 18 11 30q0 7 -20 10l-32 5q-6 4 -6 17t9 18q47 -3 115 -3t116 3q9 -5 9 -19q0 -9 -5 -16l-32 -4q-37 -5 -57 -25q-64 -66 -149 -181q-20 -28 -20 -34q0 -10 14 -31q107 -166 160 -245q25 -38 46.5 -53t51.5 -19l31 -4q5 -5 5 -16q0 -13 -8 -19 q-66 3 -156 3q-87 0 -168 -3q-9 4 -9 21q0 11 6 14l27 3q37 4 37 14t-29 59q-12 21 -51.5 82.5t-50.5 75.5q-72 -106 -117 -191q-9 -18 -9 -27q0 -10 32 -13l26 -3q6 -5 6 -16q0 -16 -9 -19q-66 3 -137 3q-60 0 -105 -3q-9 5 -9 20q0 11 5 13z"/>
<glyph glyph-name="Y" horiz-adv-x="575" unicode="Y" d="M367 214v-70q0 -69 8.5 -85.5t42.5 -21.5l40 -5q5 -4 5 -18q0 -13 -5 -17q-98 3 -162 3q-68 0 -157 -3q-6 5 -6 17q0 14 6 18l34 5q34 5 42.5 22t8.5 85v50q0 40 -4.5 60.5t-22.5 58.5l-119 246q-17 34 -28 46.5t-36 16.5l-34 6q-6 6 -6 17q0 15 10 18q67 -3 141 -3 q95 0 146 3q8 -3 8 -18q0 -11 -6 -17l-34 -8q-24 -5 -24 -9q0 -12 26 -70l47 -107q19 -41 46 -98q3 6 84 158q52 97 52 116q0 8 -34 14l-23 4q-6 3 -6 18q0 14 7 17q60 -3 112 -3q54 0 98 3q10 -3 10 -19q0 -12 -6 -16l-26 -5q-34 -6 -48 -24q-32 -41 -88 -142l-63 -114 q-21 -38 -28.5 -63t-7.5 -66z"/>
<glyph glyph-name="Z" horiz-adv-x="614" unicode="Z" d="M360 614h-108q-57 0 -89 -12.5t-47.5 -34t-34.5 -68.5q-7 -4 -16 -4q-19 0 -25 11q18 68 39 177q3 3 13 3q5 0 13 -2q5 -16 18 -20t67 -4h286q92 0 117 3q8 -5 6 -15q-37 -39 -150 -214l-109 -169q-120 -186 -125 -200q-1 -4 -1 -6q0 -13 92 -13h93q77 0 112 22t75 104 q5 4 15 4q18 0 24 -11q-5 -42 -18.5 -96t-25.5 -72q-126 3 -209 3h-252q-77 0 -101 -3q-9 3 -9 13v2l1 2q11 12 92 134l197 300q65 101 84 136q10 19 10 24q0 6 -34 6z"/>
<glyph glyph-name="bracketleft" horiz-adv-x="340" unicode="[" d="M121 -152v840q23 1 78 1q80 0 110 -4q6 -3 6 -16q0 -12 -5 -15l-69 -11q-25 -4 -31.5 -30.5t-6.5 -129.5v-430q0 -103 6.5 -129.5t31.5 -30.5l69 -11q5 -3 5 -15q0 -13 -6 -16q-30 -4 -110 -4q-55 0 -78 1z"/>
<glyph glyph-name="backslash" horiz-adv-x="321" unicode="\" d="M110 676l191 -692h-90l-191 692h90z"/>
<glyph glyph-name="bracketright" horiz-adv-x="340" unicode="]" d="M219 688v-840q-23 -1 -78 -1q-80 0 -110 4q-6 3 -6 16q0 12 5 15l69 11q25 4 31.5 30.5t6.5 129.5v430q0 103 -6.5 129.5t-31.5 30.5l-69 11q-5 3 -5 15q0 13 6 16q30 4 110 4q55 0 78 -1z"/>
<glyph glyph-name="asciicircum" d="M461 244h-89l-111 263l-111 -263h-90l167 382h68z" unicode="^"/>
<glyph glyph-name="underscore" horiz-adv-x="500" unicode="_" d="M500 -75v-50h-500v50h500z"/>
<glyph glyph-name="grave" horiz-adv-x="380" unicode="`" d="M185 655l91 -182q-3 -16 -20 -16h-5l-141 139q-22 22 -22 37t27 36q23 16 39 16q17 0 31 -30z"/>
<glyph glyph-name="a" horiz-adv-x="443" unicode="a" d="M249 100l2 63q1 12 -0.5 15.5t-6.5 2.5q-84 -11 -84 -70q0 -24 15 -42t36 -18q22 0 29.5 11.5t8.5 37.5zM378 269l-7 -132v-12q0 -39 13.5 -56.5t31.5 -17.5q17 0 38 12q13 -4 13 -18q0 -3 -1 -5q-13 -17 -45.5 -35.5t-70.5 -18.5q-43 0 -84 35q-9 8 -16 8q-5 0 -21 -11 q-44 -32 -85 -32q-47 0 -79.5 27.5t-32.5 77.5q0 38 24.5 63t79.5 41q38 12 94 28q22 6 24 20q2 22 2 34q0 34 -14.5 60t-43.5 26q-43 0 -52 -57q-3 -21 -17 -32q-11 -8 -34.5 -15.5t-37.5 -7.5q-23 0 -23 25q0 39 48 77q77 61 168 61q128 0 128 -131v-14z"/>
<glyph glyph-name="b" horiz-adv-x="532" unicode="b" d="M196 294v-153q0 -46 20 -75q22 -34 59 -34q46 0 67 42.5t21 108.5q0 75 -33 121.5t-85 46.5q-25 0 -40 -11q-9 -6 -9 -46zM196 562v-151q0 -22 12 -25q52 28 106 28q84 0 135.5 -56.5t51.5 -143.5q0 -107 -68 -167.5t-178 -60.5q-64 0 -107 18q-22 9 -31 9q-19 0 -34 -15 q-11 -2 -20 7q3 19 3 99v452q0 33 -3 44t-17 19l-17 10q-5 4 -5 15t5 15q52 12 154 56q11 0 17 -7q-4 -55 -4 -146z"/>
<glyph glyph-name="c" horiz-adv-x="416" unicode="c" d="M281 414q59 0 105 -17q21 -18 21 -52q0 -22 -8.5 -39.5t-17.5 -17.5q-13 0 -16 5q-53 75 -103 75q-46 0 -73 -43.5t-27 -99.5q0 -64 38.5 -111.5t104.5 -47.5q60 0 89 49h2q9 0 16.5 -6t7.5 -16q-19 -43 -65 -75t-112 -32q-94 0 -153 56.5t-59 145.5q0 103 72.5 164.5 t177.5 61.5z"/>
<glyph glyph-name="d" horiz-adv-x="537" unicode="d" d="M336 103v194q0 20 -7 34q-21 37 -57 37q-41 0 -71 -41.5t-30 -116.5q0 -59 28 -108t84 -49q21 0 41 12q12 8 12 38zM466 562v-398q0 -71 4.5 -94t18.5 -23q20 0 43 8q8 -7 8 -22t-7 -21q-28 -2 -56.5 -6t-49.5 -9t-37.5 -10t-26.5 -8l-10 -3q-13 0 -17 14l3 31 q-2 13 -9 8q-68 -43 -108 -43q-84 0 -137.5 57t-53.5 140q0 104 68.5 167.5t169.5 63.5q39 0 57 -5q10 4 10 19v128q0 33 -3 44t-17 19l-17 10q-6 5 -6 14q0 11 6 16q59 14 153 56q11 0 17 -7q-3 -61 -3 -146z"/>
<glyph glyph-name="e" horiz-adv-x="420" unicode="e" d="M209 281h37q27 0 41 9q7 4 7 23q0 25 -14 40t-39 15q-30 0 -54 -23.5t-24 -48.5q0 -10 9.5 -12.5t36.5 -2.5zM372 237h-192q-17 0 -21 -3t-4 -15q0 -60 37.5 -104t103.5 -44q62 0 93 52h3q8 0 15.5 -6.5t7.5 -16.5q-28 -59 -76 -86.5t-99 -27.5q-97 0 -152.5 59 t-55.5 145q0 95 61.5 159.5t154.5 64.5q75 0 117.5 -41.5t42.5 -102.5q0 -16 -7.5 -24.5t-28.5 -8.5z"/>
<glyph glyph-name="f" horiz-adv-x="311" unicode="f" d="M329 346h-89q-19 0 -22.5 -4t-3.5 -24v-202q0 -54 6 -67.5t31 -15.5l33 -3q6 -4 6 -16q0 -13 -7 -17q-71 3 -136 3q-71 0 -118 -3q-7 4 -7 17q0 12 6 16l16 2q27 3 33.5 16.5t6.5 67.5v202q0 20 -3.5 24t-21.5 4h-37q-6 3 -6 17q0 7 3 10l43 22q22 12 22 26q0 100 28 165 q57 129 196 129q46 0 81.5 -22.5t35.5 -59.5q0 -25 -16 -39.5t-42 -14.5q-24 0 -40 18q-52 66 -71 66q-42 0 -42 -122v-113q0 -20 3.5 -24t22.5 -4h95q7 -4 7 -20q0 -25 -13 -34z"/>
<glyph glyph-name="g" horiz-adv-x="479" unicode="g" d="M277 -56h-67q-39 0 -56 -13q-14 -13 -14 -35q0 -51 35.5 -81.5t94.5 -30.5q47 0 76 21.5t29 57.5q0 41 -27 61t-71 20zM163 270q0 -56 19.5 -89.5t49.5 -33.5q25 0 41 25t16 77q0 58 -18 88.5t-47 30.5q-25 0 -43 -25t-18 -73zM377 377h115q9 -8 9 -25q0 -31 -15 -40h-74 q3 -13 3 -35q0 -32 -10.5 -61t-32.5 -55.5t-64 -42.5t-98 -16q-8 0 -41 3q-17 -7 -17 -24q0 -16 14 -26t37 -10q15 0 56 1t66 1q155 0 155 -121q0 -46 -25 -86t-65 -65q-74 -44 -175 -44q-100 0 -148 37.5t-48 90.5q0 31 32 50q10 6 26.5 17t22.5 14q17 10 1 14 q-28 9 -45 31.5t-17 48.5q0 14 7 21q48 31 64 47q14 11 8 22q-38 15 -61.5 49.5t-23.5 79.5q0 67 51 114t144 47q81 0 149 -37z"/>
<glyph glyph-name="h" horiz-adv-x="547" unicode="h" d="M80 116v440q0 33 -3 44t-17 19l-17 10q-5 4 -5 15t5 15q42 10 153 56q11 0 17 -7q-3 -61 -3 -146v-184q0 -12 7 -12q3 0 16 8q59 40 115 40q60 0 93 -35.5t33 -90.5v-172q0 -52 6.5 -65.5t33.5 -16.5l16 -2q6 -4 6 -17q0 -14 -7 -18q-47 3 -121 3q-75 0 -108 -3 q-7 4 -7 18q0 13 6 17l18 3q18 3 22.5 14t4.5 52v173q0 29 -17.5 48t-52.5 19q-39 0 -56 -24q-8 -9 -8 -37v-179q0 -41 4.5 -52t22.5 -14l18 -3q6 -5 6 -17q0 -14 -7 -18q-46 3 -111 3q-66 0 -117 -3q-7 4 -7 18q0 13 6 17l18 2q25 3 31 16.5t6 65.5z"/>
<glyph glyph-name="i" horiz-adv-x="286" unicode="i" d="M152 639q31 0 50.5 -20.5t19.5 -50.5q0 -34 -22 -53.5t-53 -19.5q-32 0 -51 20t-19 51q0 32 22 52.5t53 20.5zM214 300v-184q0 -53 6 -66.5t31 -15.5l19 -2q6 -5 6 -17q0 -14 -7 -18q-53 3 -120 3q-71 0 -120 -3q-7 4 -7 18q0 13 6 17l19 2q25 2 31 15.5t6 66.5v151 q0 33 -3 44.5t-16 19.5l-14 9q-5 4 -5 15t5 15q95 26 148 58q12 0 18 -9q-3 -45 -3 -119z"/>
<glyph glyph-name="j" horiz-adv-x="281" unicode="j" d="M153 639q31 0 50.5 -20.5t19.5 -50.5q0 -34 -22 -53.5t-53 -19.5q-32 0 -51 20t-19 51q0 32 22 52.5t53 20.5zM215 300v-247q0 -108 -21 -161q-22 -57 -65.5 -93.5t-135.5 -67.5q-16 6 -16 24q0 7 2 9q31 16 49 36q57 57 57 232v235q0 33 -3 44.5t-16 19.5l-14 9 q-5 4 -5 15t5 15q92 25 148 58q12 0 18 -9q-3 -45 -3 -119z"/>
<glyph glyph-name="k" horiz-adv-x="532" unicode="k" d="M76 116v440q0 33 -3 44t-17 19l-17 10q-5 4 -5 15t5 15q53 13 153 56q11 0 17 -7q-3 -61 -3 -146v-314q0 -8 3 -11t11 -3q34 0 58 28l42 49q24 29 24 40q0 8 -19 10l-25 4q-6 6 -6 18q0 14 8 17h24q97 0 189 14q9 -4 9 -20q0 -10 -5 -15l-32 -7q-30 -6 -67 -35 q-38 -29 -67 -58q-6 -7 -6 -13t7 -17q18 -31 66 -103.5t65 -87.5q16 -15 59 -23l15 -3q5 -5 5 -15q0 -17 -9 -20q-47 3 -126 3q-81 0 -123 -3q-9 5 -9 19q0 9 5 16l13 3q16 3 16 8q0 7 -17 32l-71 108q-10 15 -25 15q-12 0 -12 -24v-58q0 -52 6.5 -65.5t32.5 -16.5l16 -2 q6 -5 6 -17q0 -14 -7 -18q-48 3 -120 3q-70 0 -122 -3q-7 4 -7 18q0 13 6 17l19 2q27 3 33.5 16.5t6.5 65.5z"/>
<glyph glyph-name="l" horiz-adv-x="278" unicode="l" d="M76 116v440q0 33 -3 44t-17 19l-17 10q-5 4 -5 15t5 15q55 13 153 56q11 0 17 -7q-3 -61 -3 -146v-446q0 -52 6.5 -65.5t32.5 -16.5l17 -2q6 -5 6 -17q0 -14 -7 -18q-49 3 -120 3q-67 0 -120 -3q-7 4 -7 18q0 13 6 17l19 2q25 2 31 15.5t6 66.5z"/>
<glyph glyph-name="m" horiz-adv-x="806" unicode="m" d="M84 116v151q0 33 -3 44.5t-16 19.5l-14 9q-5 4 -5 15t5 15q94 26 148 58q12 0 18 -9q0 -8 -1.5 -25t-1.5 -20q0 -8 5 -8q3 0 19 8q68 40 115 40q56 0 90 -38q15 -18 24 -18q2 0 5.5 2t11.5 6.5t15 8.5q1 0 14.5 8t20.5 11.5t21 9t28.5 8t29.5 2.5q57 0 89 -36t32 -90 v-172q0 -52 6 -65.5t31 -16.5l16 -2q6 -4 6 -17q0 -14 -7 -18q-46 3 -117 3q-69 0 -109 -3q-7 4 -7 18q0 13 6 17l16 2q19 2 24 14t5 53v170q0 30 -17 50t-50 20q-41 0 -56 -25q-7 -10 -7 -30v-185q0 -41 5 -53t22 -14l16 -2q6 -4 6 -17q0 -14 -7 -18q-46 3 -108 3 q-67 0 -106 -3q-7 4 -7 18q0 13 6 17l16 2q17 2 22 14t5 53v170q0 31 -17 50.5t-51 19.5q-37 0 -54 -24q-8 -9 -8 -37v-179q0 -41 5 -53t24 -14l16 -2q6 -5 6 -17q0 -14 -7 -18q-46 3 -111 3q-69 0 -114 -3q-8 5 -8 19q0 12 6 16l16 2q25 3 31 16.5t6 65.5z"/>
<glyph glyph-name="n" horiz-adv-x="550" unicode="n" d="M84 116v151q0 33 -3 44.5t-16 19.5l-14 9q-5 4 -5 15t5 15q98 27 148 58q12 0 18 -9q0 -8 -1.5 -25t-1.5 -20q0 -8 5 -8q3 0 19 8q68 40 115 40q60 0 92.5 -36t32.5 -90v-172q0 -52 6.5 -65.5t33.5 -16.5l16 -2q6 -4 6 -17q0 -14 -7 -18q-47 3 -121 3q-64 0 -108 -3 q-7 4 -7 18q0 13 6 17l18 3q18 3 22.5 14t4.5 52v169q0 32 -17 51.5t-53 19.5q-39 0 -56 -24q-8 -9 -8 -37v-179q0 -41 5 -53t24 -14l16 -2q6 -5 6 -17q0 -14 -7 -18q-46 3 -111 3q-66 0 -118 -3q-7 4 -7 18q0 13 6 17l16 2q27 3 33.5 16.5t6.5 65.5z"/>
<glyph glyph-name="o" horiz-adv-x="516" unicode="o" d="M255 368q-35 0 -57.5 -38t-22.5 -116q0 -81 24 -131.5t67 -50.5q75 0 75 148v7q-1 78 -23 129.5t-63 51.5zM255 -14q-95 0 -159.5 54.5t-64.5 153.5q0 101 68 160.5t162 59.5t159 -56t65 -157q0 -104 -65.5 -159.5t-164.5 -55.5z"/>
<glyph glyph-name="p" horiz-adv-x="543" unicode="p" d="M207 273v-160q0 -35 23 -58q21 -23 48 -23q45 0 70.5 43.5t25.5 115.5t-31.5 113t-82.5 41q-31 0 -42 -14q-11 -13 -11 -58zM77 -139v406q0 33 -3 44.5t-16 19.5l-14 9q-5 4 -5 15t5 15q32 9 78 29t66 34h2q13 0 19 -12q-2 -12 -2 -33q0 -12 8 -14q80 40 127 40 q78 0 124 -54t46 -137q0 -105 -68 -171t-177 -66q-31 0 -45 3q-15 -3 -15 -29v-99q0 -52 6 -65.5t31 -15.5l34 -3q6 -5 6 -17q0 -14 -7 -18q-75 3 -137 3q-65 0 -119 -3q-7 4 -7 18q0 12 6 17l20 2q25 2 31 15.5t6 66.5z"/>
<glyph glyph-name="q" horiz-adv-x="528" unicode="q" d="M336 78v179q0 64 -20 89q-18 22 -48 22q-41 0 -69.5 -41.5t-28.5 -106.5q0 -82 39 -128t90 -46q19 0 30 7q7 5 7 25zM466 281v-420q0 -52 6 -65.5t31 -15.5l34 -3q6 -5 6 -17q0 -14 -7 -18q-71 3 -135 3q-68 0 -125 -3q-7 4 -7 18q0 12 6 17l22 2q26 2 32.5 15.5 t6.5 66.5v130q0 19 -9 19q-52 -24 -99 -24q-90 0 -143.5 57t-53.5 140q0 104 71 167.5t181 63.5q53 0 108 -12q12 -3 19 -3q14 0 30 14l6 7h4q18 0 21 -10q-5 -41 -5 -129z"/>
<glyph glyph-name="r" horiz-adv-x="371" unicode="r" d="M84 114v151q0 33 -3 44.5t-16 19.5l-14 9q-5 4 -5 15t5 15q94 27 146 60q12 0 18 -9q-4 -40 -4 -43q0 -10 10 -12q5 3 25.5 19t37 23.5t35.5 7.5q22 0 38.5 -16t16.5 -43q0 -32 -18.5 -48.5t-45.5 -16.5q-19 0 -39 18q-24 20 -38 20q-19 0 -19 -60v-154q0 -52 6 -65.5 t31 -15.5l32 -3q6 -4 6 -17q0 -14 -7 -18q-72 3 -135 3q-69 0 -118 -3q-7 4 -7 18q0 13 6 17l19 2q25 2 31 15.5t6 66.5z"/>
<glyph glyph-name="s" horiz-adv-x="358" unicode="s" d="M164 -14q-84 0 -124 31q-16 29 -16 97v16q5 8 19 8q11 0 15 -6q12 -37 39.5 -68.5t62.5 -31.5q23 0 37.5 13.5t14.5 38.5q0 42 -66 75q-103 51 -103 126q0 62 45 95.5t114 33.5q35 0 66 -7t41 -14q15 -33 15 -100q-3 -9 -19 -9q-11 0 -16 5q-27 79 -78 79q-22 0 -36 -12 t-14 -32q0 -33 64 -64q110 -53 110 -140q-1 -64 -49 -99t-122 -35z"/>
<glyph glyph-name="t" horiz-adv-x="323" unicode="t" d="M311 346h-90q-10 0 -12 -3.5t-2 -19.5v-150q0 -23 0.5 -34.5t4 -30.5t10.5 -28.5t21 -17t34 -7.5q19 0 42 15q17 -5 14 -26q-23 -24 -61.5 -41t-82.5 -17q-112 0 -112 114v223q0 16 -3 19.5t-16 3.5h-31q-11 3 -11 19q0 7 5 12q33 12 83 45q39 28 74 78q6 2 11 2 q15 0 19 -7v-75q0 -14 2.5 -17t16.5 -3h89q8 -6 8 -19q0 -27 -13 -35z"/>
<glyph glyph-name="u" horiz-adv-x="544" unicode="u" d="M471 314v-182q0 -48 5 -66.5t22 -18.5q16 0 40 8q7 -2 7 -19q0 -20 -10 -24q-27 -1 -56 -5t-51 -9.5t-39.5 -10t-28.5 -7.5l-10 -4q-10 1 -12 12q3 18 3 36q0 10 -11 10q-26 -17 -40 -24.5t-40.5 -15.5t-55.5 -8q-61 0 -89 31.5t-28 96.5v170q0 38 -5.5 48.5t-24.5 16.5 l-13 4q-5 7 -5 15q0 14 9 20q54 2 97 9q13 2 28 6.5t24.5 7.5t10.5 3q10 0 12 -12q-3 -37 -3 -88v-165q0 -44 13.5 -67t57.5 -23q27 0 52 19q11 8 11 30v189q0 30 -8 40t-35 14l-14 2q-5 5 -5 15q0 17 10 20q43 2 104 10q15 2 31.5 6t27 7t12.5 3q8 0 10 -12q-3 -54 -3 -88z "/>
<glyph glyph-name="v" horiz-adv-x="457" unicode="v" d="M16 363l-21 5q-7 5 -7 18t10 16q37 -2 124 -2q37 0 111 2q7 -4 7 -17q0 -14 -5 -17l-16 -4q-17 -4 -17 -10q0 -8 9 -35q24 -65 63 -155q53 121 68 164q6 15 6 25q0 6 -24 12l-14 3q-7 5 -7 17t8 17q32 -2 82 -2q33 0 77 2q8 -3 8 -16q0 -14 -6 -18l-17 -3 q-21 -4 -31.5 -14t-26.5 -41q-45 -90 -143 -317q-9 -7 -23 -7q-13 0 -24 7q-64 154 -136 307q-18 37 -27.5 48t-27.5 15z"/>
<glyph glyph-name="w" horiz-adv-x="682" unicode="w" d="M323 307q0 13 -11.5 31t-25.5 21q-19 4 -48 4q-51 0 -51 -15q0 -10 9 -33q38 -95 71 -157q45 87 53 119q3 13 3 30zM111 400h202q113 0 177 2q8 -1 8 -17q0 -14 -5 -17l-15 -3q-37 -8 -37 -15q0 -8 8 -31q26 -69 68 -161q17 42 56 153q9 27 9 39q0 8 -25 14l-17 4 q-4 4 -4 16q0 15 8 18q33 -2 82 -2q55 0 77 2q8 -3 8 -18q0 -9 -5 -16l-14 -3q-24 -5 -33.5 -15t-22.5 -39q-66 -146 -134 -318q-7 -7 -23 -7t-23 7q-35 90 -103 235q-11 -22 -109 -235q-7 -7 -23 -7t-23 7q-95 225 -146 332q-10 20 -18 27t-23 11l-18 5q-5 7 -5 17 q0 12 8 17q41 -2 115 -2z"/>
<glyph glyph-name="x" horiz-adv-x="458" unicode="x" d="M447 368l-14 -2q-40 -6 -60 -18q-24 -15 -75 -80q-19 -25 -19 -30q0 -9 21 -39l68 -101q25 -37 43.5 -50t45.5 -15l11 -1q6 -5 6 -17q0 -15 -9 -18q-66 3 -121 3q-64 0 -133 -3q-8 3 -8 20q0 10 5 15l22 4q17 4 17 11t-12 27q-31 49 -43 66q-18 -26 -41 -66 q-12 -21 -12 -29q0 -6 18 -10l16 -3q5 -4 5 -15q0 -17 -7 -20q-43 3 -90 3q-31 0 -78 -3q-8 5 -8 19q0 12 6 16l25 4q34 6 47 20q11 11 41 49.5t41 55.5q9 15 9 22q0 3 -32 53l-54 83q-23 35 -61 44l-21 5q-5 3 -5 16q0 16 8 19q59 -3 121 -3q53 0 107 3q10 -3 10 -18 q0 -12 -8 -17l-12 -3q-15 -2 -15 -7q0 -6 9 -21q9 -16 41 -61q25 35 43 62q7 10 7 18q0 4 -16 9l-11 3q-6 4 -6 15q0 17 9 20q44 -3 91 -3q39 0 76 3q8 -3 8 -18q0 -13 -6 -17z"/>
<glyph glyph-name="y" horiz-adv-x="469" unicode="y" d="M12 365l-18 3q-5 5 -5 17q0 15 8 18q54 -3 132 -3q57 0 112 3q8 -3 8 -19q0 -12 -5 -16l-20 -4q-20 -4 -25 -8t-5 -11q0 -8 30 -89q44 -112 45 -114q8 14 31 66l18 41q37 85 37 101q0 10 -22 14l-20 4q-6 4 -6 17q0 15 9 18q33 -3 97 -3q39 0 78 3q8 -3 8 -19 q0 -12 -6 -16l-19 -2q-32 -3 -46 -22q-24 -32 -59 -105l-53 -109q-17 -35 -75.5 -156t-76.5 -159q-30 -64 -86 -66h-2q-62 0 -62 60q0 23 15.5 37.5t41.5 14.5h24q33 0 49 21q8 11 29 55q14 28 14 42q0 24 -19 73l-96 242q-16 39 -26.5 53t-33.5 18z"/>
<glyph glyph-name="z" horiz-adv-x="415" unicode="z" d="M223 0h-97q-73 0 -97 -3q-11 4 -7 16q46 69 88 144l93 165q11 21 11 29q0 5 -28 5h-31q-55 0 -71 -19q-19 -19 -32 -58q-4 -4 -12 -4q-19 0 -24 12q13 87 31 132q4 4 11 4q6 0 10 -4q2 -13 10.5 -16t45.5 -3h180q65 0 83 3q8 -4 6 -13q-9 -12 -71 -117l-107 -182 q-18 -32 -18 -41q0 -6 40 -6h24q73 0 94 34q11 15 30 54q5 5 14 5q17 0 22 -10q-2 -28 -15 -71.5t-23 -58.5q-123 3 -160 3z"/>
<glyph glyph-name="braceleft" horiz-adv-x="340" unicode="{" d="M239 162q0 -35 -9.5 -103t-9.5 -102q0 -33 17 -55.5t67 -31.5q4 -4 4 -12q0 -12 -6 -16q-39 0 -65.5 4t-52.5 17t-38.5 40.5t-12.5 69.5q0 33 8 103t8 101q0 14 -2 24t-10 23t-27 21t-49 10q-5 5 -5 14t5 12q32 2 51.5 9.5t26.5 21t8.5 22t1.5 25.5q0 31 -8 101t-8 103 q0 34 10 58.5t24.5 38.5t38.5 22t45.5 10t50.5 2q6 -4 6 -16q0 -8 -4 -12q-84 -15 -84 -87q0 -34 9.5 -102t9.5 -103q0 -85 -75 -104v-4q75 -19 75 -104z"/>
<glyph glyph-name="bar" horiz-adv-x="248" unicode="|" d="M168 750v-1000h-88v1000h88z"/>
<glyph glyph-name="braceright" horiz-adv-x="340" unicode="}" d="M101 162q0 85 75 104v4q-75 19 -75 104q0 35 9.5 103t9.5 102q0 72 -84 87q-4 4 -4 12q0 12 6 16q29 0 50.5 -2t45.5 -10t38.5 -22t24.5 -38.5t10 -58.5q0 -33 -8 -103t-8 -101q0 -17 1.5 -25.5t8.5 -22t26.5 -21t51.5 -9.5q5 -3 5 -12t-5 -14q-30 -2 -49 -10t-27 -21 t-10 -23t-2 -24q0 -31 8 -101t8 -103q0 -80 -43.5 -105.5t-125.5 -25.5q-6 4 -6 16q0 8 4 12q50 9 67 31.5t17 55.5q0 34 -9.5 102t-9.5 103z"/>
<glyph glyph-name="asciitilde" d="M196 249h127q34 0 52 16.5t33 57.5q8 5 18 5q27 0 38 -20q-17 -64 -55 -105q-22 -26 -76 -26h-138q-30 0 -49.5 -19.5t-35.5 -59.5q-8 -5 -20 -5q-28 0 -34 18q2 19 17.5 52.5t32.5 55.5q16 19 36 24.5t54 5.5z" unicode="~"/>
<glyph glyph-name="exclamdown" horiz-adv-x="254" unicode="¡" d="M127 394q36 0 58.5 -23t22.5 -58q0 -33 -23 -58t-58 -25q-34 0 -57.5 24t-23.5 59t24.5 58t56.5 23zM127 -266q-41 0 -60.5 9.5t-19.5 33.5q0 5 16 117l42 281q9 6 22 6t22 -6l42 -281q16 -112 16 -117q0 -24 -19.5 -33.5t-60.5 -9.5z"/>
<glyph glyph-name="cent" d="M366 612l-10 -87q42 -1 75 -13q21 -16 21 -50q0 -24 -8.5 -39t-18.5 -15t-16 6q-5 6 -17.5 20t-22 24t-16.5 15l-1 1h-2l-36 -298q5 -2 16 -2q65 0 109 58h5q10 0 16.5 -5t5.5 -14q-50 -97 -160 -105l-13 -104q-7 -6 -23 -6t-25 6l13 104q-94 6 -148 60t-54 135 q0 108 73.5 165t178.5 59l10 85q8 6 24 6q17 0 24 -6zM268 188l35 296q-50 -2 -80 -46t-30 -107q0 -109 75 -143z" unicode="¢"/>
<glyph glyph-name="sterling" d="M273 340h128q5 -7 5 -16q0 -17 -10 -29h-122q-14 0 -18 -2.5t-4 -11.5q0 -61 -27 -96t-79 -60l1 -2q27 3 31 3q17 0 38 -4q33 -4 99 -38q56 -29 95 -29q23 0 23 15q0 8 -12 39q-5 15 -5 22q0 15 10 23t23 8q19 0 34.5 -15t15.5 -47q0 -47 -49 -93.5t-111 -46.5 q-48 0 -116 43q-77 48 -113 48q-17 0 -26 -12t-11 -26q-2 -9 -28 -18t-38 -9q-19 0 -19 18q0 26 50 65q73 59 73 214q0 5 -0.5 7t-1.5 2.5t-6 1t-9 1.5h-86q-5 5 -5 18q0 17 10 27h80q11 0 13.5 1.5t1.5 7.5q-1 10 -1 37q0 113 71 183.5t175 70.5q43 0 65 -15q12 -11 12 -33 q0 -21 -13 -39t-23 -18q-13 0 -24 10q-48 39 -78 39q-10 0 -19.5 -11t-18 -41t-8.5 -74t6 -103q1 -10 4.5 -12.5t16.5 -2.5z" unicode="£"/>
<glyph glyph-name="currency" d="M260 527q70 0 119 -36l37 49q22 -2 41.5 -19t23.5 -41l-46 -42q41 -48 41 -125t-41 -125l46 -42q-4 -24 -23.5 -41t-41.5 -19l-37 49q-49 -36 -119 -36t-119 36l-37 -49q-22 2 -41.5 19t-23.5 41l46 42q-41 48 -41 125t41 125l-46 42q4 24 23.5 41t41.5 19l37 -49 q49 36 119 36zM260 450q-51 0 -87.5 -38.5t-36.5 -98.5t36.5 -98.5t87.5 -38.5t87.5 39t36.5 98t-36.5 98t-87.5 39z" unicode="¤"/>
<glyph glyph-name="yen" d="M325 245h150q8 -5 8 -22q0 -16 -8 -23h-150v-84q0 -54 6 -67.5t31 -15.5l33 -3q6 -4 6 -16q0 -13 -7 -17q-75 3 -135 3q-62 0 -140 -3q-7 4 -7 17q0 12 6 16l36 3q25 2 31 15.5t6 67.5v84h-150q-7 7 -7 23t7 22h150v76h-150q-7 7 -7 23t7 22h131l-96 170 q-11 18 -17.5 27.5t-20 19t-30.5 12.5l-18 3q-5 4 -5 15q0 13 8 17q46 -2 142 -2q93 0 118 2q8 -1 8 -13t-7 -19l-27 -7q-20 -5 -20 -17q0 -10 23 -56q17 -33 68 -123q2 3 11 19.5t22.5 40t22.5 41.5q36 70 36 78q0 11 -29 19l-18 5q-8 5 -8 16q0 12 12 16q40 -2 96 -2 q54 0 88 2q7 -3 7 -15q0 -13 -6 -17l-22 -6q-24 -7 -37.5 -20t-40.5 -56l-94 -150h137q8 -5 8 -22q0 -16 -8 -23h-150v-76z" unicode="¥"/>
<glyph glyph-name="brokenbar" horiz-adv-x="248" unicode="¦" d="M168 175v-350h-88v350h88zM168 675v-350h-88v350h88z"/>
<glyph glyph-name="section" horiz-adv-x="525" unicode="§" d="M248 240q63 -52 91.5 -101t28.5 -105q0 -8 -2 -28l2 -2q50 53 50 124q0 55 -30.5 103.5t-97.5 101.5q-78 62 -105.5 103t-27.5 99q0 3 0.5 9t0.5 10q-21 -17 -36 -44.5t-15 -56.5q0 -20 3 -35t15 -42t43 -61t80 -75zM320 676q55 0 77.5 -18.5t22.5 -39.5t-16 -32t-36 -11 t-41 16q-47 35 -67 35q-15 0 -28.5 -14.5t-13.5 -32.5q0 -30 28 -64t117 -99q61 -45 91.5 -100.5t30.5 -135.5q0 -109 -87.5 -206.5t-210.5 -97.5q-42 0 -65.5 15.5t-23.5 43.5q0 19 13 32t35 13t55 -23q38 -26 66 -26q19 0 32 13t13 36q0 35 -40 82.5t-97 92.5 q-68 54 -101.5 109t-33.5 126q0 109 85.5 197.5t194.5 88.5z"/>
<glyph glyph-name="dieresis" horiz-adv-x="380" unicode="¨" d="M281 487q-27 0 -44.5 15.5t-18.5 43.5q0 28 18 46t45 18q26 0 43.5 -17.5t17.5 -41.5q0 -29 -17 -46.5t-44 -17.5zM101 487q-27 0 -44.5 15.5t-18.5 43.5q0 28 18 46t45 18q26 0 43.5 -17.5t17.5 -41.5q0 -29 -17 -46.5t-44 -17.5z"/>
<glyph glyph-name="copyright" horiz-adv-x="780" unicode="©" d="M672 331q0 125 -83 211.5t-199 86.5t-199 -86.5t-83 -211.5t83 -212.5t199 -87.5t199 87.5t83 212.5zM390 -16q-145 0 -247.5 101.5t-102.5 244.5t102.5 244.5t247.5 101.5t247.5 -101.5t102.5 -244.5t-102.5 -244.5t-247.5 -101.5zM422 149q-60 0 -103.5 18t-65 47 t-31 57.5t-9.5 57.5q0 82 56.5 135.5t152.5 53.5q25 0 47 -3t44.5 -8.5t24.5 -5.5q2 -15 9 -103q-4 -5 -13.5 -6t-13.5 3q-26 88 -94 88q-41 0 -73.5 -36t-32.5 -113q0 -74 33 -112t79 -38q58 0 103 83q4 5 13 4t13 -6q-5 -54 -26 -89q-41 -27 -113 -27z"/>
<glyph glyph-name="ordfeminine" horiz-adv-x="374" unicode="ª" d="M132 326q0 -15 11.5 -27t28.5 -12q31 0 33 28l3 49q2 19 -8 19q-16 0 -28 -5q-40 -17 -40 -52zM196 540q58 0 85 -20.5t27 -68.5v-8l-5 -107v-7q0 -43 29 -43q11 0 27 7q11 -2 11 -13q0 -2 -2 -8q-12 -13 -36.5 -22.5t-44.5 -9.5q-42 0 -62 19q-10 10 -16 10 q-3 0 -21 -12q-32 -17 -61 -17q-48 0 -71.5 23.5t-23.5 52.5q0 53 55 70q50 17 101 30q20 6 22 19v10q0 60 -44 60q-29 0 -34 -32q-3 -21 -16 -31q-26 -15 -59 -15q-25 0 -25 17q0 24 31 51q21 18 58 31.5t75 13.5z"/>
<glyph glyph-name="guillemotleft" horiz-adv-x="432" unicode="«" d="M396 384l-76 -160q-7 -14 0 -29l76 -163q-8 -15 -20 -15h-2q-86 102 -152 174q-8 8 -8 18t8 18q73 79 152 172q17 -4 22 -15zM218 384l-76 -160q-7 -14 0 -29l76 -163q-8 -15 -20 -15h-2q-86 101 -152 174q-8 8 -8 18t8 18q73 79 152 172q17 -4 22 -15z"/>
<glyph glyph-name="logicalnot" d="M373 67v183h-313v72h401v-255h-88z" unicode="¬"/>
<glyph glyph-name="registered" horiz-adv-x="346" unicode="®" d="M173 653q-45 0 -77 -34t-32 -82t32 -81.5t77 -33.5t77 33.5t32 81.5q0 49 -32 82.5t-77 33.5zM173 677q59 0 101 -41t42 -99t-42 -99t-101 -41t-101 41t-42 99t42 99t101 41zM159 581v-33q0 -6 1.5 -7t10.5 -1q20 0 20 22q0 28 -19 28q-9 0 -11 -1.5t-2 -7.5zM123 506v63 q0 21 -13 22h-5q-1 2 -1 6q0 5 3 6q50 2 66 2q60 0 60 -37q0 -22 -22 -31q-3 -1 0 -8q18 -35 30 -44q9 -6 11 -6t2 -4t-2 -4q-6 -1 -17 -1q-28 0 -44 23q-2 3 -17 28q-3 6 -10 6q-5 0 -5 -5v-16q0 -13 2 -17.5t12 -5.5l4 -1q1 -1 1 -5.5t-1 -5.5q-6 0 -17.5 0.5t-18.5 0.5 t-18 -0.5t-16 -0.5q-3 1 -3 7q0 4 1 4l5 1q9 2 11 5.5t2 17.5z"/>
<glyph glyph-name="degree" horiz-adv-x="374" unicode="°" d="M265 498q0 43 -22 70.5t-56 27.5t-56 -27.5t-22 -70.5t22 -70.5t56 -27.5q37 0 57.5 27t20.5 71zM187 640q62 0 104.5 -39.5t42.5 -102.5q0 -65 -42.5 -103.5t-104.5 -38.5t-104.5 38.5t-42.5 103.5q0 63 42.5 102.5t104.5 39.5z"/>
<glyph glyph-name="plusminus" d="M461 0h-401v72h401v-72zM305 100h-88v147h-157v72h157v139h88v-139h156v-72h-156v-147z" unicode="±"/>
<glyph glyph-name="twosuperior" horiz-adv-x="400" unicode="²" d="M210 320h-96q-43 0 -65 -2q-8 5 -8 14q0 1 1 3v2q50 39 101 91q75 79 75 158q0 31 -16 50t-43 19q-48 0 -81 -59q-3 -3 -9 -3q-7 0 -13 5.5t-6 14.5q25 49 66.5 74.5t88.5 25.5q64 0 99.5 -31t35.5 -81q0 -72 -98 -145l-31 -23l-25 -21q-7 -7 -4.5 -12t12.5 -5h62 q38 0 55 6t29 28q14 5 23 -4q-12 -65 -39 -107q-54 2 -114 2z"/>
<glyph glyph-name="threesuperior" horiz-adv-x="400" unicode="³" d="M116 281q-29 0 -52.5 13.5t-23.5 39.5q0 15 10.5 28t32.5 13q6 0 11.5 -2t9.5 -5t9 -7.5t7 -7.5t5.5 -8.5t4.5 -6.5q11 -17 29 -17h1q26 0 50 27.5t24 77.5q0 38 -18 61t-47 23q-39 0 -67 -25q-20 5 -20 24q0 6 4 12q25 9 38 15t38 19.5t37 30t12 35.5q0 18 -12 29 t-33 11q-41 0 -74 -50q-2 -1 -7 -1q-8 0 -13.5 5.5t-4.5 12.5q21 40 59.5 62.5t82.5 22.5q48 0 78.5 -21t30.5 -53q0 -24 -16 -42t-61 -36q-9 -4 3 -8q2 -1 5 -1q45 -5 75 -28.5t30 -69.5q0 -74 -83 -126q-74 -47 -155 -47z"/>
<glyph glyph-name="acute" horiz-adv-x="380" unicode="´" d="M96 473l91 182q14 30 31 30q16 0 39 -16q27 -21 27 -36t-22 -37l-141 -139h-5q-17 0 -20 16z"/>
<glyph glyph-name="mu" horiz-adv-x="536" unicode="µ" d="M467 314v-182q0 -48 5 -66.5t22 -18.5q16 0 40 8q7 -2 7 -19q0 -20 -10 -24q-27 -1 -56 -5t-51 -9.5t-39.5 -10t-28.5 -7.5l-10 -4q-10 1 -12 12q3 18 3 36q0 10 -11 10q-26 -17 -40 -24.5t-40.5 -15.5t-55.5 -8q-19 0 -35 12q-10 -2 -10 -22v-31q0 -37 24.5 -84.5 t24.5 -56.5q0 -25 -31 -49t-66 -24q-24 0 -24 36v517q0 38 -5.5 48.5t-24.5 16.5l-13 4q-5 7 -5 15q0 14 9 20q54 2 97 9q13 2 28 6.5t24.5 7.5t10.5 3q10 0 12 -12q-3 -37 -3 -88v-165q0 -44 13.5 -67t57.5 -23q27 0 52 19q11 8 11 30v189q0 30 -8 40t-35 14l-14 2 q-5 5 -5 15q0 17 10 20q43 2 104 10q15 2 31.5 6t27 7t12.5 3q8 0 10 -12q-3 -54 -3 -88z"/>
<glyph glyph-name="mu" horiz-adv-x="536" unicode="μ" d="M467 314v-182q0 -48 5 -66.5t22 -18.5q16 0 40 8q7 -2 7 -19q0 -20 -10 -24q-27 -1 -56 -5t-51 -9.5t-39.5 -10t-28.5 -7.5l-10 -4q-10 1 -12 12q3 18 3 36q0 10 -11 10q-26 -17 -40 -24.5t-40.5 -15.5t-55.5 -8q-19 0 -35 12q-10 -2 -10 -22v-31q0 -37 24.5 -84.5 t24.5 -56.5q0 -25 -31 -49t-66 -24q-24 0 -24 36v517q0 38 -5.5 48.5t-24.5 16.5l-13 4q-5 7 -5 15q0 14 9 20q54 2 97 9q13 2 28 6.5t24.5 7.5t10.5 3q10 0 12 -12q-3 -37 -3 -88v-165q0 -44 13.5 -67t57.5 -23q27 0 52 19q11 8 11 30v189q0 30 -8 40t-35 14l-14 2 q-5 5 -5 15q0 17 10 20q43 2 104 10q15 2 31.5 6t27 7t12.5 3q8 0 10 -12q-3 -54 -3 -88z"/>
<glyph glyph-name="paragraph" horiz-adv-x="490" unicode="¶" d="M372 448v-426q0 -154 -62 -201q-28 -21 -82 -21q-43 0 -75 22t-32 66q0 23 10 40t23 21h3q27 0 45.5 -10t21.5 -24q-1 -1 -5 -8t-6.5 -14.5t-2.5 -14.5q0 -18 11.5 -28.5t29.5 -10.5q68 0 68 144v117q0 21 -5.5 28.5t-20.5 7.5q-110 0 -181.5 56.5t-71.5 146.5 q0 117 96 172q77 44 203 44q87 0 119 -6q7 -4 7 -15q0 -12 -6 -16l-34 -6q-39 -7 -46 -15.5t-7 -48.5z"/>
<glyph glyph-name="cedilla" horiz-adv-x="380" unicode="¸" d="M217 0h53l-38 -52q-6 -8 -4 -11.5t13 -9.5q61 -33 61 -85q0 -40 -38 -66.5t-89 -26.5q-77 0 -77 44q0 14 9 23.5t23 9.5q15 0 36.5 -18.5t31.5 -18.5q9 0 17.5 7t8.5 18q0 40 -76 72l-3 8z"/>
<glyph glyph-name="onesuperior" horiz-adv-x="400" unicode="¹" d="M150 417v160q0 29 -5.5 40t-26.5 14l-31 4q-6 3 -6 14t6 14q99 13 167 50q10 0 12 -8q-3 -51 -3 -88v-200v-9q0 -35 4.5 -45.5t25.5 -13.5l30 -4q4 -4 4 -12q0 -12 -6 -15q-74 2 -115 2q-40 0 -114 -2q-6 3 -6 15q0 8 4 12l30 4q21 3 25.5 13.5t4.5 45.5v9z"/>
<glyph glyph-name="ordmasculine" horiz-adv-x="404" unicode="º" d="M257 370q0 60 -14.5 97t-41.5 37q-23 0 -38 -25t-15 -74q0 -60 15.5 -94.5t43.5 -34.5q24 0 37 27t13 67zM205 540q74 0 120 -40.5t46 -107.5q0 -73 -48 -112.5t-123 -39.5q-73 0 -119.5 37.5t-46.5 105.5q0 73 49.5 115t121.5 42z"/>
<glyph glyph-name="guillemotright" horiz-adv-x="432" unicode="»" d="M290 224l-76 160q5 11 22 15q79 -93 152 -172q8 -8 8 -18t-8 -18q-66 -72 -152 -174h-2q-12 0 -20 15l76 163q7 15 0 29zM112 224l-76 160q5 11 22 15q79 -93 152 -172q8 -8 8 -18t-8 -18q-66 -72 -152 -174h-2q-12 0 -20 15l76 163q7 15 0 29z"/>
<glyph glyph-name="onequarter" horiz-adv-x="840" unicode="¼" d="M140 344v160q0 29 -5.5 40t-26.5 14l-31 4q-6 3 -6 14t6 14q99 13 167 50q10 0 12 -8q-3 -51 -3 -88v-200v-9q0 -35 4.5 -45.5t25.5 -13.5l30 -4q5 -4 4 -14t-6 -13q-74 2 -115 2q-40 0 -114 -2q-6 3 -6 15q0 8 4 12l30 4q21 3 25.5 13.5t4.5 45.5v9zM628 630l-370 -670 q-3 -1 -8 -1q-29 0 -39 25l370 670h4q13 0 26 -7t17 -17zM608 76v14q0 13 -2 15.5t-13 2.5h-153q-8 5 -8 16q0 1 0.5 3.5t0.5 3.5l216 283q10 12 20 12h29q5 0 7.5 -3t1.5 -8t-6 -11l-196 -247q-1 -10 15 -11h73q10 0 12.5 3t2.5 14v75q0 17 18 22q60 18 82 18q11 0 11 -10 v-105q0 -11 2.5 -14t12.5 -3h44q8 -3 8 -18q0 -16 -8 -20h-44q-11 0 -13 -2.5t-2 -15.5v-14q0 -30 5.5 -39t30.5 -11l13 -1q5 -4 5 -13.5t-6 -13.5q-78 2 -112 2q-48 0 -106 -2q-6 3 -6.5 13t4.5 14l20 1q30 1 35.5 9t5.5 41z"/>
<glyph glyph-name="onehalf" horiz-adv-x="840" unicode="½" d="M653 0h-96q-43 0 -65 -2q-11 6 -7 19q50 39 101 91q75 79 75 158q0 31 -16 50t-43 19q-48 0 -81 -59q-3 -3 -9 -3q-7 0 -13 5.5t-6 14.5q25 49 66.5 74.5t88.5 25.5q64 0 99.5 -31t35.5 -81q0 -72 -98 -145l-31 -23l-25 -21q-7 -7 -4.5 -12t12.5 -5h62q38 0 55 6t29 28 q14 5 23 -4q-12 -65 -39 -107q-54 2 -114 2zM129 344v160q0 29 -5.5 40t-26.5 14l-31 4q-6 3 -6 14t6 14q99 13 167 50q10 0 12 -8q-3 -51 -3 -88v-200v-9q0 -35 4.5 -45.5t25.5 -13.5l30 -4q5 -4 4 -14t-6 -13q-74 2 -115 2q-40 0 -114 -2q-6 3 -6 15q0 8 4 12l30 4 q21 3 25.5 13.5t4.5 45.5v9zM616 630l-370 -670q-3 -1 -8 -1q-29 0 -39 25l370 670h4q13 0 26 -7t17 -17z"/>
<glyph glyph-name="threequarters" horiz-adv-x="840" unicode="¾" d="M119 208q-29 0 -52.5 13.5t-23.5 39.5q0 15 10.5 28t32.5 13q6 0 11.5 -2t9.5 -5t9 -7.5t7 -7.5t5.5 -8.5t4.5 -6.5q11 -17 29 -17h1q26 0 50 27.5t24 77.5q0 38 -18 61t-47 23q-39 0 -67 -25q-20 5 -20 24q0 6 4 12q25 9 38 15t38 19.5t37 30t12 35.5q0 18 -12 29 t-33 11q-41 0 -74 -50q-2 -1 -7 -1q-8 0 -13.5 5.5t-4.5 12.5q21 40 59.5 62.5t82.5 22.5q48 0 78.5 -21t30.5 -53q0 -24 -16 -42t-61 -36q-9 -4 3 -8q2 -1 5 -1q45 -5 75 -28.5t30 -69.5q0 -74 -83 -126q-74 -47 -155 -47zM653 630l-370 -670q-3 -1 -8 -1q-29 0 -39 25 l370 670h4q12 0 26 -7t17 -17zM643 76v14q0 13 -2 15.5t-13 2.5h-153q-8 5 -8 16q0 1 0.5 3.5t0.5 3.5l216 283q10 12 20 12h29q5 0 7.5 -3t1.5 -8t-6 -11l-196 -247q-1 -10 15 -11h73q10 0 12.5 3t2.5 14v75q0 17 18 22q60 18 82 18q11 0 11 -10v-105q0 -11 2.5 -14 t12.5 -3h44q8 -3 8 -18q0 -16 -8 -20h-44q-11 0 -13 -2.5t-2 -15.5v-14q0 -30 5.5 -39t30.5 -11l13 -1q5 -4 5 -13.5t-6 -13.5q-78 2 -112 2q-48 0 -106 -2q-6 3 -6.5 13t4.5 14l20 1q30 1 35.5 9t5.5 41z"/>
<glyph glyph-name="questiondown" horiz-adv-x="332" unicode="¿" d="M201 394q35 0 58 -25t23 -58q0 -35 -22.5 -58t-58.5 -23q-32 0 -56.5 23t-24.5 58t23.5 59t57.5 24zM222 -266q-70 0 -126 61.5t-56 142.5q0 78 63 107l66 30q41 18 41 43t-10 54q4 9 20 9q9 0 13 -4q15 -21 29.5 -55.5t14.5 -62.5q0 -39 -20 -58.5t-70 -40.5l-47 -20 q-26 -11 -37 -18.5t-11 -17.5q0 -23 33.5 -33.5t111.5 -10.5q18 0 36.5 -17t18.5 -47q0 -26 -19.5 -44t-50.5 -18z"/>
<glyph glyph-name="Agrave" horiz-adv-x="624" unicode="À" d="M232 854l162 -118q1 -1 1 -5q0 -15 -12 -25l-196 64q-28 8 -32 25q-1 2 -1 8q0 17 11 35q16 31 34 31q11 0 33 -15zM232 279h87q24 0 24 12q0 1 -4 17l-26 81q-28 87 -36 105q-18 -40 -41 -110l-25 -75q-4 -11 -4 -18q0 -12 25 -12zM324 226h-112q-18 0 -23.5 -3 t-9.5 -17l-37 -116q-7 -23 -7 -36q0 -11 36 -17l30 -5q5 -7 5 -18q0 -14 -7 -17q-6 0 -117 3q-16 0 -47 -1.5t-56 -1.5q-8 4 -8 18q0 10 5 17l27 3q21 3 35 13t26 37q17 40 62 160l90 244q6 17 14.5 39t13 33.5t8 25t3.5 23.5v6q13 3 27 10.5t24 15.5t18 16l13 13l5 5 q18 0 23 -20q12 -42 45 -137l136 -392q18 -50 29.5 -67.5t37.5 -21.5l38 -6q5 -5 5 -18q0 -12 -6 -17q-72 3 -154 3q-66 0 -135 -3q-9 5 -9 19q0 10 7 16l32 5q27 5 27 17q0 9 -19 68l-27 86q-4 12 -12.5 15t-35.5 3z"/>
<glyph glyph-name="Aacute" horiz-adv-x="624" unicode="Á" d="M249 731l162 121q23 17 33 17q18 0 34 -31q11 -18 11 -35q0 -6 -1 -8q-4 -17 -32 -25l-196 -64q-16 6 -11 25zM232 279h87q24 0 24 12q0 1 -4 17l-26 81q-28 87 -36 105q-18 -40 -41 -110l-25 -75q-4 -11 -4 -18q0 -12 25 -12zM324 226h-112q-18 0 -23.5 -3t-9.5 -17 l-37 -116q-7 -23 -7 -36q0 -11 36 -17l30 -5q5 -7 5 -18q0 -14 -7 -17q-6 0 -117 3q-16 0 -47 -1.5t-56 -1.5q-8 4 -8 18q0 10 5 17l27 3q21 3 35 13t26 37q17 40 62 160l90 244q6 17 14.5 39t13 33.5t8 25t3.5 23.5v6q13 3 27 10.5t24 15.5t18 16l13 13l5 5q18 0 23 -20 q12 -42 45 -137l136 -392q18 -50 29.5 -67.5t37.5 -21.5l38 -6q5 -5 5 -18q0 -12 -6 -17q-72 3 -154 3q-66 0 -135 -3q-9 5 -9 19q0 10 7 16l32 5q27 5 27 17q0 9 -19 68l-27 86q-4 12 -12.5 15t-35.5 3z"/>
<glyph glyph-name="Acircumflex" horiz-adv-x="624" unicode="Â" d="M459 706l-121 54q-12 4 -16 4l-17 -4l-120 -54q-5 0 -10 5.5t-5 12.5q0 4 1 6l127 119q10 10 23 10q14 0 24 -10l127 -119q3 -8 -2 -15.5t-11 -8.5zM232 279h87q24 0 24 12q0 1 -4 17l-26 81q-28 87 -36 105q-18 -40 -41 -110l-25 -75q-4 -11 -4 -18q0 -12 25 -12z M324 226h-112q-18 0 -23.5 -3t-9.5 -17l-37 -116q-7 -23 -7 -36q0 -11 36 -17l30 -5q5 -7 5 -18q0 -14 -7 -17q-6 0 -117 3q-16 0 -47 -1.5t-56 -1.5q-8 4 -8 18q0 10 5 17l27 3q21 3 35 13t26 37q17 40 62 160l90 244q6 17 14.5 39t13 33.5t8 25t3.5 23.5v6q13 3 27 10.5 t24 15.5t18 16l13 13l5 5q18 0 23 -20q12 -42 45 -137l136 -392q18 -50 29.5 -67.5t37.5 -21.5l38 -6q5 -5 5 -18q0 -12 -6 -17q-72 3 -154 3q-66 0 -135 -3q-9 5 -9 19q0 10 7 16l32 5q27 5 27 17q0 9 -19 68l-27 86q-4 12 -12.5 15t-35.5 3z"/>
<glyph glyph-name="Atilde" horiz-adv-x="624" unicode="Ã" d="M361 739h-54q-39 0 -59 -12.5t-40 -47.5q-8 -2 -13 -2q-19 0 -24 9q18 66 48 101q26 31 70 31h65q29 0 47 10.5t31 41.5q4 1 13 1q19 0 23 -7q-11 -54 -38 -94q-13 -17 -27.5 -24t-41.5 -7zM232 279h87q24 0 24 12q0 1 -4 17l-26 81q-28 87 -36 105q-18 -40 -41 -110 l-25 -75q-4 -11 -4 -18q0 -12 25 -12zM324 226h-112q-18 0 -23.5 -3t-9.5 -17l-37 -116q-7 -23 -7 -36q0 -11 36 -17l30 -5q5 -7 5 -18q0 -14 -7 -17q-6 0 -117 3q-16 0 -47 -1.5t-56 -1.5q-8 4 -8 18q0 10 5 17l27 3q21 3 35 13t26 37q17 40 62 160l90 244q6 17 14.5 39 t13 33.5t8 25t3.5 23.5v6q13 3 27 10.5t24 15.5t18 16l13 13l5 5q18 0 23 -20q12 -42 45 -137l136 -392q18 -50 29.5 -67.5t37.5 -21.5l38 -6q5 -5 5 -18q0 -12 -6 -17q-72 3 -154 3q-66 0 -135 -3q-9 5 -9 19q0 10 7 16l32 5q27 5 27 17q0 9 -19 68l-27 86q-4 12 -12.5 15 t-35.5 3z"/>
<glyph glyph-name="Adieresis" horiz-adv-x="624" unicode="Ä" d="M417 712q-26 0 -43 15t-18 43q0 28 17.5 46t43.5 18t43 -17.5t17 -41.5q0 -28 -17 -45.5t-43 -17.5zM208 712q-26 0 -43 15t-18 43q0 28 17.5 46t43.5 18t43 -17.5t17 -41.5q0 -28 -17 -45.5t-43 -17.5zM232 279h87q24 0 24 12q0 1 -4 17l-26 81q-28 87 -36 105 q-18 -40 -41 -110l-25 -75q-4 -11 -4 -18q0 -12 25 -12zM324 226h-112q-18 0 -23.5 -3t-9.5 -17l-37 -116q-7 -23 -7 -36q0 -11 36 -17l30 -5q5 -7 5 -18q0 -14 -7 -17q-6 0 -117 3q-16 0 -47 -1.5t-56 -1.5q-8 4 -8 18q0 10 5 17l27 3q21 3 35 13t26 37q17 40 62 160 l90 244q6 17 14.5 39t13 33.5t8 25t3.5 23.5v6q13 3 27 10.5t24 15.5t18 16l13 13l5 5q18 0 23 -20q12 -42 45 -137l136 -392q18 -50 29.5 -67.5t37.5 -21.5l38 -6q5 -5 5 -18q0 -12 -6 -17q-72 3 -154 3q-66 0 -135 -3q-9 5 -9 19q0 10 7 16l32 5q27 5 27 17q0 9 -19 68 l-27 86q-4 12 -12.5 15t-35.5 3z"/>
<glyph glyph-name="Aring" horiz-adv-x="624" unicode="Å" d="M312 727q21 0 33 17.5t12 43.5t-12 44t-33 19q-21 -1 -33 -19t-12 -44t12 -43.5t33 -17.5zM312 689q-46 0 -74.5 29.5t-28.5 69.5q0 39 28.5 68.5t74.5 29.5t74.5 -29.5t28.5 -68.5q0 -40 -28.5 -69.5t-74.5 -29.5zM232 279h87q24 0 24 12q0 1 -4 17l-26 81 q-28 87 -36 105q-18 -40 -41 -110l-25 -75q-4 -11 -4 -18q0 -12 25 -12zM324 226h-112q-18 0 -23.5 -3t-9.5 -17l-37 -116q-7 -23 -7 -36q0 -11 36 -17l30 -5q5 -7 5 -18q0 -14 -7 -17q-6 0 -117 3q-16 0 -47 -1.5t-56 -1.5q-8 4 -8 18q0 10 5 17l27 3q21 3 35 13t26 37 q17 40 62 160l90 244q6 17 14.5 39t13 33.5t8 25t3.5 23.5v6q13 3 27 10.5t24 15.5t18 16l13 13l5 5q18 0 23 -20q12 -42 45 -137l136 -392q18 -50 29.5 -67.5t37.5 -21.5l38 -6q5 -5 5 -18q0 -12 -6 -17q-72 3 -154 3q-66 0 -135 -3q-9 5 -9 19q0 10 7 16l32 5q27 5 27 17 q0 9 -19 68l-27 86q-4 12 -12.5 15t-35.5 3z"/>
<glyph glyph-name="AE" horiz-adv-x="841" unicode="Æ" d="M255 370h86q18 0 22 6t4 32v160q0 38 -3 46h-5q-12 -15 -40 -72l-78 -156q-4 -11 -1.5 -13.5t15.5 -2.5zM367 144v140q0 22 -4 27.5t-22 5.5h-101q-19 0 -26 -3.5t-12 -15.5q-82 -174 -98 -216q-8 -20 -8 -29q0 -11 25 -15l38 -6q8 -5 8 -18q0 -14 -9 -17q-51 3 -124 3 q-49 0 -103 -3q-7 4 -7 19q0 12 6 16l27 4q23 3 39.5 16t34.5 47q44 82 122 241t94 190q30 60 30 74q0 12 -21 16l-46 8q-7 5 -7 18t10 17q54 -2 85 -2q29 -1 88 -1h258q114 0 134 3q0 -6 2.5 -30.5t5.5 -60t5 -64.5q-3 -10 -20 -10q-11 0 -17 6q-18 58 -38 79 q-31 31 -98 31h-80q-24 0 -28.5 -5.5t-4.5 -33.5v-175q0 -21 4 -25.5t24 -4.5h69q40 0 53.5 9.5t20.5 45.5l5 25q5 6 19 6t18 -7q-3 -48 -3 -106t3 -106q-4 -7 -19 -7q-13 0 -18 6l-5 25q-7 36 -21 46t-53 10h-69q-20 0 -24 -4.5t-4 -26.5v-119q0 -72 16 -95 q10 -14 31.5 -20t73.5 -6q39 0 57.5 2.5t41.5 13.5t39.5 34.5t37.5 65.5q4 6 16 6q18 0 21 -11q-3 -37 -17 -87.5t-25 -72.5q-14 1 -50.5 1.5t-54.5 0.5q-20 0 -62.5 0.5t-63.5 0.5h-130q-54 0 -167 -3q-6 5 -6 18q0 14 6 17l47 7q35 5 43 21t8 84z"/>
<glyph glyph-name="Ccedilla" horiz-adv-x="689" unicode="Ç" d="M345 -106l61 91q-148 7 -239 75q-127 97 -127 262t121 265q107 89 277 89q45 0 89 -6t76 -12.5t41 -7.5q0 -79 12 -156q-4 -12 -24 -12q-9 0 -14 5q-42 143 -188 143q-92 0 -161 -77t-69 -217q0 -142 69.5 -224t165.5 -82q142 0 204 155q4 4 14 4q18 0 24 -11 q-11 -112 -38 -157q-116 -33 -181 -36l-26 -37q-4 -5 -4 -8t2.5 -6t10.5 -7q61 -33 61 -85q0 -40 -38 -66.5t-89 -26.5q-77 0 -77 44q0 14 9 23.5t23 9.5q15 0 36.5 -18.5t31.5 -18.5q9 0 17.5 7t8.5 18q0 40 -76 72z"/>
<glyph glyph-name="Egrave" horiz-adv-x="593" unicode="È" d="M207 854l162 -118q1 -1 1 -5q0 -15 -12 -25l-196 64q-28 8 -32 25q-1 2 -1 8q0 17 11 35q16 31 34 31q11 0 33 -15zM257 575v-175q0 -21 4 -25.5t24 -4.5h69q40 0 53.5 9.5t20.5 45.5l5 25q5 6 19 6t18 -7q-3 -48 -3 -106t3 -106q-4 -7 -19 -7q-13 0 -18 6l-5 25 q-7 36 -21 46t-53 10h-69q-20 0 -24 -4.5t-4 -26.5v-119q0 -72 16 -95q10 -14 31.5 -20t73.5 -6q39 0 57.5 2.5t41.5 13.5t39.5 34.5t37.5 65.5q4 6 16 6q18 0 21 -11q-3 -37 -17 -87.5t-25 -72.5q-79 3 -231 3h-130q-60 0 -172 -3q-6 5 -6 18q0 14 6 17l47 7q35 5 43 21 t8 84v373q0 67 -8 83t-43 23l-25 5q-6 4 -6 16q0 14 8 19q71 -3 144 -3h212q115 0 134 3q0 -6 2.5 -30.5t5.5 -60t5 -64.5q-3 -10 -20 -10q-11 0 -17 6q-18 58 -38 79q-31 31 -98 31h-80q-24 0 -28.5 -5.5t-4.5 -33.5z"/>
<glyph glyph-name="Eacute" horiz-adv-x="593" unicode="É" d="M254 731l162 121q23 17 33 17q18 0 34 -31q11 -18 11 -35q0 -6 -1 -8q-4 -17 -32 -25l-196 -64q-16 6 -11 25zM257 575v-175q0 -21 4 -25.5t24 -4.5h69q40 0 53.5 9.5t20.5 45.5l5 25q5 6 19 6t18 -7q-3 -48 -3 -106t3 -106q-4 -7 -19 -7q-13 0 -18 6l-5 25q-7 36 -21 46 t-53 10h-69q-20 0 -24 -4.5t-4 -26.5v-119q0 -72 16 -95q10 -14 31.5 -20t73.5 -6q39 0 57.5 2.5t41.5 13.5t39.5 34.5t37.5 65.5q4 6 16 6q18 0 21 -11q-3 -37 -17 -87.5t-25 -72.5q-79 3 -231 3h-130q-60 0 -172 -3q-6 5 -6 18q0 14 6 17l47 7q35 5 43 21t8 84v373 q0 67 -8 83t-43 23l-25 5q-6 4 -6 16q0 14 8 19q71 -3 144 -3h212q115 0 134 3q0 -6 2.5 -30.5t5.5 -60t5 -64.5q-3 -10 -20 -10q-11 0 -17 6q-18 58 -38 79q-31 31 -98 31h-80q-24 0 -28.5 -5.5t-4.5 -33.5z"/>
<glyph glyph-name="Ecircumflex" horiz-adv-x="593" unicode="Ê" d="M431 706l-115 48q-8 4 -18 4q-6 0 -14 -3l-114 -49q-7 0 -11.5 7.5t-1.5 15.5l121 113q12 10 22 10q12 0 22 -10l121 -113q3 -8 -1.5 -15t-10.5 -8zM257 575v-175q0 -21 4 -25.5t24 -4.5h69q40 0 53.5 9.5t20.5 45.5l5 25q5 6 19 6t18 -7q-3 -48 -3 -106t3 -106 q-4 -7 -19 -7q-13 0 -18 6l-5 25q-7 36 -21 46t-53 10h-69q-20 0 -24 -4.5t-4 -26.5v-119q0 -72 16 -95q10 -14 31.5 -20t73.5 -6q39 0 57.5 2.5t41.5 13.5t39.5 34.5t37.5 65.5q4 6 16 6q18 0 21 -11q-3 -37 -17 -87.5t-25 -72.5q-79 3 -231 3h-130q-60 0 -172 -3 q-6 5 -6 18q0 14 6 17l47 7q35 5 43 21t8 84v373q0 67 -8 83t-43 23l-25 5q-6 4 -6 16q0 14 8 19q71 -3 144 -3h212q115 0 134 3q0 -6 2.5 -30.5t5.5 -60t5 -64.5q-3 -10 -20 -10q-11 0 -17 6q-18 58 -38 79q-31 31 -98 31h-80q-24 0 -28.5 -5.5t-4.5 -33.5z"/>
<glyph glyph-name="Edieresis" horiz-adv-x="593" unicode="Ë" d="M416 712q-26 0 -43 15t-18 43q0 28 17.5 46t43.5 18t43 -17.5t17 -41.5q0 -28 -17 -45.5t-43 -17.5zM207 712q-26 0 -43 15t-18 43q0 28 17.5 46t43.5 18t43 -17.5t17 -41.5q0 -28 -17 -45.5t-43 -17.5zM257 575v-175q0 -21 4 -25.5t24 -4.5h69q40 0 53.5 9.5t20.5 45.5 l5 25q5 6 19 6t18 -7q-3 -48 -3 -106t3 -106q-4 -7 -19 -7q-13 0 -18 6l-5 25q-7 36 -21 46t-53 10h-69q-20 0 -24 -4.5t-4 -26.5v-119q0 -72 16 -95q10 -14 31.5 -20t73.5 -6q39 0 57.5 2.5t41.5 13.5t39.5 34.5t37.5 65.5q4 6 16 6q18 0 21 -11q-3 -37 -17 -87.5 t-25 -72.5q-79 3 -231 3h-130q-60 0 -172 -3q-6 5 -6 18q0 14 6 17l47 7q35 5 43 21t8 84v373q0 67 -8 83t-43 23l-25 5q-6 4 -6 16q0 14 8 19q71 -3 144 -3h212q115 0 134 3q0 -6 2.5 -30.5t5.5 -60t5 -64.5q-3 -10 -20 -10q-11 0 -17 6q-18 58 -38 79q-31 31 -98 31h-80 q-24 0 -28.5 -5.5t-4.5 -33.5z"/>
<glyph glyph-name="Igrave" horiz-adv-x="371" unicode="Ì" d="M99 858l158 -122q1 -1 1 -5q0 -15 -12 -25l-196 64q-28 8 -32 25q-1 2 -1 8q0 15 12 34q25 37 38 37q12 0 32 -16zM257 514v-368q0 -69 8.5 -86t43.5 -23l28 -5q6 -5 6 -16q0 -14 -7 -19q-81 3 -150 3q-71 0 -152 -3q-6 5 -6 17q0 14 6 18l28 5q35 6 43.5 23t8.5 86v368 q0 69 -8.5 86t-43.5 23l-28 5q-6 4 -6 18t6 18q108 -4 152 -4q43 0 151 4q6 -4 6 -18t-6 -18l-28 -5q-35 -6 -43.5 -23t-8.5 -86z"/>
<glyph glyph-name="Iacute" horiz-adv-x="371" unicode="Í" d="M113 731l162 125q23 17 33 17q18 0 34 -31q11 -22 11 -39q0 -6 -1 -8q-4 -17 -32 -25l-196 -64q-16 6 -11 25zM257 514v-368q0 -69 8.5 -86t43.5 -23l28 -5q6 -5 6 -16q0 -14 -7 -19q-81 3 -150 3q-71 0 -152 -3q-6 5 -6 17q0 14 6 18l28 5q35 6 43.5 23t8.5 86v368 q0 69 -8.5 86t-43.5 23l-28 5q-6 4 -6 18t6 18q108 -4 152 -4q43 0 151 4q6 -4 6 -18t-6 -18l-28 -5q-35 -6 -43.5 -23t-8.5 -86z"/>
<glyph glyph-name="Icircumflex" horiz-adv-x="371" unicode="Î" d="M328 706l-121 53q-12 4 -17 4l-16 -4l-120 -53q-5 0 -10 5.5t-5 12.5q0 4 1 6l127 119q10 10 23 10q14 0 24 -10l127 -119q1 -2 1 -5q0 -6 -4.5 -12t-9.5 -7zM257 514v-368q0 -69 8.5 -86t43.5 -23l28 -5q6 -5 6 -16q0 -14 -7 -19q-81 3 -150 3q-71 0 -152 -3q-6 5 -6 17 q0 14 6 18l28 5q35 6 43.5 23t8.5 86v368q0 69 -8.5 86t-43.5 23l-28 5q-6 4 -6 18t6 18q108 -4 152 -4q43 0 151 4q6 -4 6 -18t-6 -18l-28 -5q-35 -6 -43.5 -23t-8.5 -86z"/>
<glyph glyph-name="Idieresis" horiz-adv-x="371" unicode="Ï" d="M291 712q-26 0 -43 15t-18 43q0 28 17.5 46t43.5 18t43 -17.5t17 -41.5q0 -28 -17 -45.5t-43 -17.5zM82 712q-26 0 -43 15t-18 43q0 28 17.5 46t43.5 18t43 -17.5t17 -41.5q0 -28 -17 -45.5t-43 -17.5zM257 514v-368q0 -69 8.5 -86t43.5 -23l28 -5q6 -5 6 -16 q0 -14 -7 -19q-81 3 -150 3q-71 0 -152 -3q-6 5 -6 17q0 14 6 18l28 5q35 6 43.5 23t8.5 86v368q0 69 -8.5 86t-43.5 23l-28 5q-6 4 -6 18t6 18q108 -4 152 -4q43 0 151 4q6 -4 6 -18t-6 -18l-28 -5q-35 -6 -43.5 -23t-8.5 -86z"/>
<glyph glyph-name="Eth" horiz-adv-x="803" unicode="Ð" d="M263 546v-176h134q8 -8 8 -25q0 -18 -8 -28h-134v-136q0 -89 20 -112q26 -29 83 -29q62 0 108.5 25.5t72.5 69t38.5 92.5t12.5 103q0 137 -71 212t-205 75q-42 0 -52 -13q-7 -9 -7 -58zM120 144v173h-84q-8 10 -8 25t8 28h84v128q0 75 -7.5 95t-40.5 24l-19 2q-7 3 -7 18 t9 17q151 9 268 9q142 0 233 -33q96 -34 149.5 -113.5t53.5 -176.5q0 -101 -46.5 -178.5t-132.5 -120.5q-94 -47 -253 -47q-25 0 -70.5 3t-62.5 3q-70 0 -156 -3q-6 5 -6 18q0 14 6 17l31 5q34 5 42.5 22t8.5 85z"/>
<glyph glyph-name="Ntilde" horiz-adv-x="748" unicode="Ñ" d="M443 746h-51q-36 0 -55.5 -12t-38.5 -44q-6 -3 -13 -3q-17 0 -22 9q6 21 19.5 51t25.5 45q25 29 67 29h62q28 0 45 10t29 39q4 1 13 1q18 0 22 -6q-14 -57 -37 -90q-12 -17 -26 -23t-40 -6zM652 409v-239q0 -128 2 -161q-5 -9 -23 -16t-36 -7l-10 14q-10 15 -30 42.5 t-41 52.5l-231 286q-95 116 -109 128q-5 -10 -5 -64v-194q0 -146 15 -183q11 -25 58 -32l28 -4q5 -5 5 -17q0 -13 -5 -18q-81 3 -134 3q-55 0 -112 -3q-5 5 -5 18q0 12 5 17l17 3q46 8 55 33q14 34 14 183v254q0 69 -7 85q-13 28 -57 34l-28 4q-5 5 -5 16q0 16 9 19 q70 -3 138 -3q52 0 84 3q4 -16 15.5 -36.5t39.5 -57t45.5 -57.5t64.5 -77l84 -99q77 -91 96 -110q4 10 4 45v138q0 146 -15 183q-11 25 -58 32l-27 4q-5 5 -5 17q0 13 5 18q81 -3 134 -3q54 0 112 3q5 -5 5 -18q0 -12 -5 -17l-18 -3q-43 -7 -54 -33q-15 -37 -15 -183z"/>
<glyph glyph-name="Ograve" horiz-adv-x="788" unicode="Ò" d="M314 854l162 -118q1 -1 1 -5q0 -15 -12 -25l-196 64q-28 8 -32 25q-1 2 -1 8q0 17 11 35q16 31 34 31q11 0 33 -15zM588 320q0 132 -54 221t-145 89q-90 0 -139.5 -77t-49.5 -205q0 -51 10 -102t31.5 -102t64 -82.5t100.5 -31.5q93 0 137.5 79.5t44.5 210.5zM397 676 q156 0 253.5 -95.5t97.5 -247.5q0 -162 -99 -255.5t-262 -93.5q-153 0 -250 93t-97 248q0 150 101 250.5t256 100.5z"/>
<glyph glyph-name="Oacute" horiz-adv-x="788" unicode="Ó" d="M321 731l162 121q23 17 33 17q18 0 34 -31q11 -18 11 -35q0 -6 -1 -8q-4 -17 -32 -25l-196 -64q-16 6 -11 25zM588 320q0 132 -54 221t-145 89q-90 0 -139.5 -77t-49.5 -205q0 -51 10 -102t31.5 -102t64 -82.5t100.5 -31.5q93 0 137.5 79.5t44.5 210.5zM397 676 q156 0 253.5 -95.5t97.5 -247.5q0 -162 -99 -255.5t-262 -93.5q-153 0 -250 93t-97 248q0 150 101 250.5t256 100.5z"/>
<glyph glyph-name="Ocircumflex" horiz-adv-x="788" unicode="Ô" d="M537 706l-121 50q-10 5 -18 5l-15 -4l-120 -51q-5 0 -10 5.5t-5 12.5q0 4 1 6l127 119q10 10 23 10q14 0 24 -10l127 -119q3 -8 -2 -15.5t-11 -8.5zM588 320q0 132 -54 221t-145 89q-90 0 -139.5 -77t-49.5 -205q0 -51 10 -102t31.5 -102t64 -82.5t100.5 -31.5 q93 0 137.5 79.5t44.5 210.5zM397 676q156 0 253.5 -95.5t97.5 -247.5q0 -162 -99 -255.5t-262 -93.5q-153 0 -250 93t-97 248q0 150 101 250.5t256 100.5z"/>
<glyph glyph-name="Otilde" horiz-adv-x="788" unicode="Õ" d="M433 746h-51q-36 0 -55.5 -12t-38.5 -45q-8 -2 -13 -2q-17 0 -22 9q15 60 45 96q26 30 67 30h62q29 0 46 9.5t29 39.5q4 1 13 1q17 0 21 -6q-11 -55 -36 -91q-20 -29 -67 -29zM588 320q0 132 -54 221t-145 89q-90 0 -139.5 -77t-49.5 -205q0 -51 10 -102t31.5 -102 t64 -82.5t100.5 -31.5q93 0 137.5 79.5t44.5 210.5zM397 676q156 0 253.5 -95.5t97.5 -247.5q0 -162 -99 -255.5t-262 -93.5q-153 0 -250 93t-97 248q0 150 101 250.5t256 100.5z"/>
<glyph glyph-name="Odieresis" horiz-adv-x="788" unicode="Ö" d="M499 712q-26 0 -43 15t-18 43q0 28 17.5 46t43.5 18t43 -17.5t17 -41.5q0 -28 -17 -45.5t-43 -17.5zM290 712q-26 0 -43 15t-18 43q0 28 17.5 46t43.5 18t43 -17.5t17 -41.5q0 -28 -17 -45.5t-43 -17.5zM588 320q0 132 -54 221t-145 89q-90 0 -139.5 -77t-49.5 -205 q0 -51 10 -102t31.5 -102t64 -82.5t100.5 -31.5q93 0 137.5 79.5t44.5 210.5zM397 676q156 0 253.5 -95.5t97.5 -247.5q0 -162 -99 -255.5t-262 -93.5q-153 0 -250 93t-97 248q0 150 101 250.5t256 100.5z"/>
<glyph glyph-name="multiply" d="M458 351l-146 -147l146 -146l-52 -54l-147 147l-145 -147l-51 54l144 145l-144 145l51 54l146 -146l146 148z" unicode="×"/>
<glyph glyph-name="Oslash" horiz-adv-x="788" unicode="Ø" d="M663 668l-42 -59q127 -94 127 -277q0 -161 -99 -254.5t-262 -93.5q-101 0 -178 42l-49 -69h-2q-12 0 -25 10t-16 22l46 65q-123 95 -123 271q0 150 101 250.5t256 100.5q100 0 178 -39l43 60h2q13 0 26 -9t17 -20zM550 509l-285 -404q52 -75 141 -75q93 0 137.5 79.5 t44.5 210.5q0 111 -38 189zM236 157l285 403q-52 70 -132 70q-90 0 -139.5 -77t-49.5 -205q0 -110 36 -191z"/>
<glyph glyph-name="Ugrave" horiz-adv-x="740" unicode="Ù" d="M290 854l162 -118q1 -1 1 -5q0 -15 -12 -25l-196 64q-28 8 -32 25q-1 2 -1 8q0 17 11 35q16 31 34 31q11 0 33 -15zM109 266v250q0 68 -8 84.5t-43 23.5l-25 5q-6 5 -6 16q0 13 8 17q48 -2 146 -2t146 2q6 -4 6 -16t-6 -17l-24 -4q-34 -6 -42.5 -23t-8.5 -86v-231 q0 -41 2.5 -71t12 -65.5t26.5 -57.5t48.5 -37t75.5 -15q167 0 167 249v121q0 148 -15 183q-10 23 -58 32l-27 5q-5 5 -5 16q0 12 5 17q54 -2 134 -2q74 0 112 2q5 -5 5 -17q0 -11 -5 -16l-18 -4q-44 -10 -54 -33q-15 -35 -15 -183v-112q0 -82 -13 -140.5t-51 -100.5 q-67 -72 -198 -72q-129 0 -198 56q-74 61 -74 226z"/>
<glyph glyph-name="Uacute" horiz-adv-x="740" unicode="Ú" d="M337 731l162 121q23 17 33 17q18 0 34 -31q11 -18 11 -35q0 -6 -1 -8q-4 -17 -32 -25l-196 -64q-16 6 -11 25zM109 266v250q0 68 -8 84.5t-43 23.5l-25 5q-6 5 -6 16q0 13 8 17q48 -2 146 -2t146 2q6 -4 6 -16t-6 -17l-24 -4q-34 -6 -42.5 -23t-8.5 -86v-231 q0 -41 2.5 -71t12 -65.5t26.5 -57.5t48.5 -37t75.5 -15q167 0 167 249v121q0 148 -15 183q-10 23 -58 32l-27 5q-5 5 -5 16q0 12 5 17q54 -2 134 -2q74 0 112 2q5 -5 5 -17q0 -11 -5 -16l-18 -4q-44 -10 -54 -33q-15 -35 -15 -183v-112q0 -82 -13 -140.5t-51 -100.5 q-67 -72 -198 -72q-129 0 -198 56q-74 61 -74 226z"/>
<glyph glyph-name="Ucircumflex" horiz-adv-x="740" unicode="Û" d="M512 706l-115 48q-8 4 -17 4q-8 0 -15 -4l-114 -48q-7 0 -11.5 7.5t-1.5 15.5l121 113q12 10 22 10q12 0 22 -10l121 -113q3 -8 -1.5 -15t-10.5 -8zM109 266v250q0 68 -8 84.5t-43 23.5l-25 5q-6 5 -6 16q0 13 8 17q48 -2 146 -2t146 2q6 -4 6 -16t-6 -17l-24 -4 q-34 -6 -42.5 -23t-8.5 -86v-231q0 -41 2.5 -71t12 -65.5t26.5 -57.5t48.5 -37t75.5 -15q167 0 167 249v121q0 148 -15 183q-10 23 -58 32l-27 5q-5 5 -5 16q0 12 5 17q54 -2 134 -2q74 0 112 2q5 -5 5 -17q0 -11 -5 -16l-18 -4q-44 -10 -54 -33q-15 -35 -15 -183v-112 q0 -82 -13 -140.5t-51 -100.5q-67 -72 -198 -72q-129 0 -198 56q-74 61 -74 226z"/>
<glyph glyph-name="Udieresis" horiz-adv-x="740" unicode="Ü" d="M495 712q-26 0 -43 15t-18 43q0 28 17.5 46t43.5 18t43 -17.5t17 -41.5q0 -28 -17 -45.5t-43 -17.5zM286 712q-26 0 -43 15t-18 43q0 28 17.5 46t43.5 18t43 -17.5t17 -41.5q0 -28 -17 -45.5t-43 -17.5zM109 266v250q0 68 -8 84.5t-43 23.5l-25 5q-6 5 -6 16q0 13 8 17 q48 -2 146 -2t146 2q6 -4 6 -16t-6 -17l-24 -4q-34 -6 -42.5 -23t-8.5 -86v-231q0 -41 2.5 -71t12 -65.5t26.5 -57.5t48.5 -37t75.5 -15q167 0 167 249v121q0 148 -15 183q-10 23 -58 32l-27 5q-5 5 -5 16q0 12 5 17q54 -2 134 -2q74 0 112 2q5 -5 5 -17q0 -11 -5 -16 l-18 -4q-44 -10 -54 -33q-15 -35 -15 -183v-112q0 -82 -13 -140.5t-51 -100.5q-67 -72 -198 -72q-129 0 -198 56q-74 61 -74 226z"/>
<glyph glyph-name="Yacute" horiz-adv-x="575" unicode="Ý" d="M245 731l162 121q23 17 33 17q18 0 34 -31q11 -18 11 -35q0 -6 -1 -8q-4 -17 -32 -25l-196 -64q-16 6 -11 25zM367 214v-70q0 -69 8.5 -85.5t42.5 -21.5l40 -5q5 -4 5 -18q0 -13 -5 -17q-98 3 -162 3q-68 0 -157 -3q-6 5 -6 17q0 14 6 18l34 5q34 5 42.5 22t8.5 85v50 q0 40 -4.5 60.5t-22.5 58.5l-119 246q-17 34 -28 46.5t-36 16.5l-34 6q-6 6 -6 17q0 15 10 18q67 -3 141 -3q95 0 146 3q8 -3 8 -18q0 -11 -6 -17l-34 -8q-24 -5 -24 -9q0 -12 26 -70l47 -107q19 -41 46 -98q3 6 84 158q52 97 52 116q0 8 -34 14l-23 4q-6 3 -6 18q0 14 7 17 q60 -3 112 -3q54 0 98 3q10 -3 10 -19q0 -12 -6 -16l-26 -5q-34 -6 -48 -24q-32 -41 -88 -142l-63 -114q-21 -38 -28.5 -63t-7.5 -66z"/>
<glyph glyph-name="Thorn" horiz-adv-x="594" unicode="Þ" d="M257 429v-285q0 -68 8.5 -85t42.5 -22l33 -5q6 -5 6 -18q0 -12 -6 -17q-87 3 -154 3q-69 0 -152 -3q-6 5 -6 17q0 14 6 18l28 5q35 6 43 22.5t8 84.5v372q0 68 -8 84.5t-43 22.5l-28 5q-6 4 -6 16q0 16 9 20q98 -4 149 -4q47 0 149 4q8 -5 8 -18t-8 -18l-28 -5 q-34 -6 -42.5 -21t-8.5 -76h67q73 0 126 -20q51 -18 83 -59t32 -105q0 -88 -65.5 -132.5t-158.5 -44.5q-3 0 -9 0.5t-10 0.5q-7 4 -8 13t5 13q54 18 72.5 52t18.5 97q0 53 -28.5 96t-79.5 43q-30 0 -37.5 -9.5t-7.5 -41.5z"/>
<glyph glyph-name="germandbls" horiz-adv-x="573" unicode="ß" d="M214 423v-307q0 -52 6 -65t31 -18l5 -1q6 -5 6 -17q0 -14 -7 -18q-29 3 -108 3q-71 0 -117 -3q-8 5 -8 19q0 12 6 16l16 2q27 3 33.5 16.5t6.5 65.5v202q0 20 -4 24t-21 4h-37q-6 3 -6 17q0 7 3 10l43 22q22 12 22 26q0 89 26 144q29 64 90 107t146 43q92 0 139.5 -42.5 t47.5 -100.5q0 -40 -14.5 -62t-49.5 -50l-16 -13q-45 -37 -45 -73q0 -10 3 -19.5t12.5 -21t15 -17t21.5 -20t21 -19.5q75 -69 75 -140q0 -68 -48 -109.5t-130 -41.5q-39 0 -67.5 15t-28.5 51q0 20 7.5 35.5t21.5 15.5q8 0 24 -17.5t36.5 -35.5t38.5 -18q15 0 25.5 12 t10.5 33q0 44 -60 96q-41 35 -63.5 65.5t-22.5 67.5q0 26 11 50.5t19 34.5t31 35q59 63 59 121q0 55 -25.5 88.5t-61.5 33.5q-56 0 -87.5 -65t-31.5 -181z"/>
<glyph glyph-name="agrave" horiz-adv-x="443" unicode="à" d="M191 653l91 -182q-3 -16 -20 -16h-5l-141 139q-22 22 -22 37t27 36q23 16 39 16q17 0 31 -30zM249 100l2 63q1 12 -0.5 15.5t-6.5 2.5q-84 -11 -84 -70q0 -24 15 -42t36 -18q22 0 29.5 11.5t8.5 37.5zM378 269l-7 -132v-12q0 -39 13.5 -56.5t31.5 -17.5q17 0 38 12 q13 -4 13 -18q0 -3 -1 -5q-13 -17 -45.5 -35.5t-70.5 -18.5q-43 0 -84 35q-9 8 -16 8q-5 0 -21 -11q-44 -32 -85 -32q-47 0 -79.5 27.5t-32.5 77.5q0 38 24.5 63t79.5 41q38 12 94 28q22 6 24 20q2 22 2 34q0 34 -14.5 60t-43.5 26q-43 0 -52 -57q-3 -21 -17 -32 q-11 -8 -34.5 -15.5t-37.5 -7.5q-23 0 -23 25q0 39 48 77q77 61 168 61q128 0 128 -131v-14z"/>
<glyph glyph-name="aacute" horiz-adv-x="443" unicode="á" d="M186 463l91 182q14 30 31 30q16 0 39 -16q27 -21 27 -36t-22 -37l-141 -139h-5q-17 0 -20 16zM249 100l2 63q1 12 -0.5 15.5t-6.5 2.5q-84 -11 -84 -70q0 -24 15 -42t36 -18q22 0 29.5 11.5t8.5 37.5zM378 269l-7 -132v-12q0 -39 13.5 -56.5t31.5 -17.5q17 0 38 12 q13 -4 13 -18q0 -3 -1 -5q-13 -17 -45.5 -35.5t-70.5 -18.5q-43 0 -84 35q-9 8 -16 8q-5 0 -21 -11q-44 -32 -85 -32q-47 0 -79.5 27.5t-32.5 77.5q0 38 24.5 63t79.5 41q38 12 94 28q22 6 24 20q2 22 2 34q0 34 -14.5 60t-43.5 26q-43 0 -52 -57q-3 -21 -17 -32 q-11 -8 -34.5 -15.5t-37.5 -7.5q-23 0 -23 25q0 39 48 77q77 61 168 61q128 0 128 -131v-14z"/>
<glyph glyph-name="acircumflex" horiz-adv-x="443" unicode="â" d="M93 468l106 191q7 13 23 13t23 -13l106 -191q-7 -16 -29 -18l-80 92q-16 19 -20 19t-21 -18l-80 -93q-21 2 -28 18zM249 100l2 63q1 12 -0.5 15.5t-6.5 2.5q-84 -11 -84 -70q0 -24 15 -42t36 -18q22 0 29.5 11.5t8.5 37.5zM378 269l-7 -132v-12q0 -39 13.5 -56.5 t31.5 -17.5q17 0 38 12q13 -4 13 -18q0 -3 -1 -5q-13 -17 -45.5 -35.5t-70.5 -18.5q-43 0 -84 35q-9 8 -16 8q-5 0 -21 -11q-44 -32 -85 -32q-47 0 -79.5 27.5t-32.5 77.5q0 38 24.5 63t79.5 41q38 12 94 28q22 6 24 20q2 22 2 34q0 34 -14.5 60t-43.5 26q-43 0 -52 -57 q-3 -21 -17 -32q-11 -8 -34.5 -15.5t-37.5 -7.5q-23 0 -23 25q0 39 48 77q77 61 168 61q128 0 128 -131v-14z"/>
<glyph glyph-name="atilde" horiz-adv-x="443" unicode="ã" d="M262 510h-56q-58 0 -86 -49q-4 -2 -10 -2q-16 0 -21 8q19 59 41 87q23 28 61 28h56q33 0 50 9t28 38q2 1 10 1q15 0 20 -6q-9 -50 -33 -86q-19 -28 -60 -28zM249 100l2 63q1 12 -0.5 15.5t-6.5 2.5q-84 -11 -84 -70q0 -24 15 -42t36 -18q22 0 29.5 11.5t8.5 37.5z M378 269l-7 -132v-12q0 -39 13.5 -56.5t31.5 -17.5q17 0 38 12q13 -4 13 -18q0 -3 -1 -5q-13 -17 -45.5 -35.5t-70.5 -18.5q-43 0 -84 35q-9 8 -16 8q-5 0 -21 -11q-44 -32 -85 -32q-47 0 -79.5 27.5t-32.5 77.5q0 38 24.5 63t79.5 41q38 12 94 28q22 6 24 20q2 22 2 34 q0 34 -14.5 60t-43.5 26q-43 0 -52 -57q-3 -21 -17 -32q-11 -8 -34.5 -15.5t-37.5 -7.5q-23 0 -23 25q0 39 48 77q77 61 168 61q128 0 128 -131v-14z"/>
<glyph glyph-name="adieresis" horiz-adv-x="443" unicode="ä" d="M313 482q-27 0 -44.5 15.5t-18.5 43.5q0 28 18 46t45 18q26 0 43.5 -17.5t17.5 -41.5q0 -29 -17 -46.5t-44 -17.5zM133 482q-27 0 -44.5 15.5t-18.5 43.5q0 28 18 46t45 18q26 0 43.5 -17.5t17.5 -41.5q0 -29 -17 -46.5t-44 -17.5zM249 100l2 63q1 12 -0.5 15.5t-6.5 2.5 q-84 -11 -84 -70q0 -24 15 -42t36 -18q22 0 29.5 11.5t8.5 37.5zM378 269l-7 -132v-12q0 -39 13.5 -56.5t31.5 -17.5q17 0 38 12q13 -4 13 -18q0 -3 -1 -5q-13 -17 -45.5 -35.5t-70.5 -18.5q-43 0 -84 35q-9 8 -16 8q-5 0 -21 -11q-44 -32 -85 -32q-47 0 -79.5 27.5 t-32.5 77.5q0 38 24.5 63t79.5 41q38 12 94 28q22 6 24 20q2 22 2 34q0 34 -14.5 60t-43.5 26q-43 0 -52 -57q-3 -21 -17 -32q-11 -8 -34.5 -15.5t-37.5 -7.5q-23 0 -23 25q0 39 48 77q77 61 168 61q128 0 128 -131v-14z"/>
<glyph glyph-name="aring" horiz-adv-x="443" unicode="å" d="M222 496q22 0 35 17.5t13 43.5t-13 44t-35 19q-22 -1 -35 -19t-13 -44t13 -43.5t35 -17.5zM222 458q-48 0 -78 29.5t-30 69.5q0 39 30 68.5t78 29.5q49 0 78.5 -29t29.5 -69t-29.5 -69.5t-78.5 -29.5zM249 100l2 63q1 12 -0.5 15.5t-6.5 2.5q-84 -11 -84 -70 q0 -24 15 -42t36 -18q22 0 29.5 11.5t8.5 37.5zM378 269l-7 -132v-12q0 -39 13.5 -56.5t31.5 -17.5q17 0 38 12q13 -4 13 -18q0 -3 -1 -5q-13 -17 -45.5 -35.5t-70.5 -18.5q-43 0 -84 35q-9 8 -16 8q-5 0 -21 -11q-44 -32 -85 -32q-47 0 -79.5 27.5t-32.5 77.5q0 38 24.5 63 t79.5 41q38 12 94 28q22 6 24 20q2 22 2 34q0 34 -14.5 60t-43.5 26q-43 0 -52 -57q-3 -21 -17 -32q-11 -8 -34.5 -15.5t-37.5 -7.5q-23 0 -23 25q0 39 48 77q77 61 168 61q128 0 128 -131v-14z"/>
<glyph glyph-name="ae" horiz-adv-x="627" unicode="æ" d="M496 313q0 24 -14.5 39.5t-36.5 15.5q-31 0 -51.5 -25.5t-20.5 -55.5q0 -22 10 -22q2 0 10 2l82 22q21 6 21 24zM442 -14q-99 0 -142 59q-6 8 -11 8q-2 0 -14 -7q-3 -2 -18.5 -13t-19.5 -13.5t-17 -10.5t-19.5 -10t-17.5 -6t-21.5 -5.5t-21.5 -1.5q-41 0 -74.5 30 t-33.5 77q0 74 100 103l104 30q8 2 10.5 7t2.5 19v11q0 22 -1 34.5t-5.5 30.5t-16 26.5t-30.5 8.5q-42 0 -51 -57q-3 -21 -17 -32q-11 -8 -35 -15.5t-36 -7.5q-23 0 -23 24q0 38 49 79q30 24 72.5 42t81.5 18q68 0 100 -44q54 44 135 44q64 0 105 -33t41 -73q0 -28 -34 -36 l-197 -53q-11 -3 -14 -7t-3 -18q0 -59 35 -95t99 -36q59 0 93 56q22 0 25 -20q-49 -113 -180 -113zM249 102v66q0 14 -10 14q-19 -2 -43 -13q-39 -17 -39 -58q0 -27 15.5 -42.5t35.5 -15.5q41 0 41 49z"/>
<glyph glyph-name="ccedilla" horiz-adv-x="416" unicode="ç" d="M153 -106l64 94q-84 7 -135 62t-51 138q0 103 72.5 164.5t177.5 61.5q59 0 105 -17q21 -18 21 -52q0 -22 -8.5 -39.5t-17.5 -17.5q-13 0 -16 5q-53 75 -103 75q-46 0 -73 -43.5t-27 -99.5q0 -64 38.5 -111.5t104.5 -47.5q60 0 89 49h2q9 0 16.5 -6t7.5 -16 q-17 -38 -56 -68.5t-95 -36.5l-29 -40q-6 -8 -4 -11.5t13 -9.5q61 -33 61 -85q0 -40 -38 -66.5t-89 -26.5q-77 0 -77 44q0 14 9 23.5t23 9.5q15 0 36.5 -18.5t31.5 -18.5q9 0 17.5 7t8.5 18q0 40 -76 72z"/>
<glyph glyph-name="egrave" horiz-adv-x="420" unicode="è" d="M199 655l91 -182q-3 -16 -20 -16h-5l-141 139q-22 22 -22 37t27 36q23 16 39 16q17 0 31 -30zM209 281h37q27 0 41 9q7 4 7 23q0 25 -14 40t-39 15q-30 0 -54 -23.5t-24 -48.5q0 -10 9.5 -12.5t36.5 -2.5zM372 237h-192q-17 0 -21 -3t-4 -15q0 -60 37.5 -104t103.5 -44 q62 0 93 52h3q8 0 15.5 -6.5t7.5 -16.5q-28 -59 -76 -86.5t-99 -27.5q-97 0 -152.5 59t-55.5 145q0 95 61.5 159.5t154.5 64.5q75 0 117.5 -41.5t42.5 -102.5q0 -16 -7.5 -24.5t-28.5 -8.5z"/>
<glyph glyph-name="eacute" horiz-adv-x="420" unicode="é" d="M199 469l91 182q14 30 31 30q16 0 39 -16q27 -21 27 -36t-22 -37l-141 -139h-5q-17 0 -20 16zM209 281h37q27 0 41 9q7 4 7 23q0 25 -14 40t-39 15q-30 0 -54 -23.5t-24 -48.5q0 -10 9.5 -12.5t36.5 -2.5zM372 237h-192q-17 0 -21 -3t-4 -15q0 -60 37.5 -104t103.5 -44 q62 0 93 52h3q8 0 15.5 -6.5t7.5 -16.5q-28 -59 -76 -86.5t-99 -27.5q-97 0 -152.5 59t-55.5 145q0 95 61.5 159.5t154.5 64.5q75 0 117.5 -41.5t42.5 -102.5q0 -16 -7.5 -24.5t-28.5 -8.5z"/>
<glyph glyph-name="ecircumflex" horiz-adv-x="420" unicode="ê" d="M103 463l106 191q7 13 23 13t23 -13l106 -191q-7 -16 -29 -18l-80 92q-16 19 -20 19t-21 -18l-80 -93q-21 2 -28 18zM209 281h37q27 0 41 9q7 4 7 23q0 25 -14 40t-39 15q-30 0 -54 -23.5t-24 -48.5q0 -10 9.5 -12.5t36.5 -2.5zM372 237h-192q-17 0 -21 -3t-4 -15 q0 -60 37.5 -104t103.5 -44q62 0 93 52h3q8 0 15.5 -6.5t7.5 -16.5q-28 -59 -76 -86.5t-99 -27.5q-97 0 -152.5 59t-55.5 145q0 95 61.5 159.5t154.5 64.5q75 0 117.5 -41.5t42.5 -102.5q0 -16 -7.5 -24.5t-28.5 -8.5z"/>
<glyph glyph-name="edieresis" horiz-adv-x="420" unicode="ë" d="M321 482q-27 0 -44.5 15.5t-18.5 43.5q0 28 18 46t45 18q26 0 43.5 -17.5t17.5 -41.5q0 -29 -17 -46.5t-44 -17.5zM141 482q-27 0 -44.5 15.5t-18.5 43.5q0 28 18 46t45 18q26 0 43.5 -17.5t17.5 -41.5q0 -29 -17 -46.5t-44 -17.5zM209 281h37q27 0 41 9q7 4 7 23 q0 25 -14 40t-39 15q-30 0 -54 -23.5t-24 -48.5q0 -10 9.5 -12.5t36.5 -2.5zM372 237h-192q-17 0 -21 -3t-4 -15q0 -60 37.5 -104t103.5 -44q62 0 93 52h3q8 0 15.5 -6.5t7.5 -16.5q-28 -59 -76 -86.5t-99 -27.5q-97 0 -152.5 59t-55.5 145q0 95 61.5 159.5t154.5 64.5 q75 0 117.5 -41.5t42.5 -102.5q0 -16 -7.5 -24.5t-28.5 -8.5z"/>
<glyph glyph-name="igrave" horiz-adv-x="286" unicode="ì" d="M111 655l91 -182q-3 -16 -20 -16h-5l-141 139q-22 22 -22 37t27 36q23 16 39 16q17 0 31 -30zM214 300v-184q0 -53 6 -66.5t31 -15.5l19 -2q6 -5 6 -17q0 -14 -7 -18q-53 3 -120 3q-71 0 -120 -3q-7 4 -7 18q0 13 6 17l19 2q25 2 31 15.5t6 66.5v151q0 33 -3 44.5 t-16 19.5l-14 9q-5 4 -5 15t5 15q95 26 148 58q12 0 18 -9q-3 -45 -3 -119z"/>
<glyph glyph-name="iacute" horiz-adv-x="286" unicode="í" d="M96 470l91 182q14 30 31 30q16 0 39 -16q27 -21 27 -36t-22 -37l-141 -139h-5q-17 0 -20 16zM214 300v-184q0 -53 6 -66.5t31 -15.5l19 -2q6 -5 6 -17q0 -14 -7 -18q-53 3 -120 3q-71 0 -120 -3q-7 4 -7 18q0 13 6 17l19 2q25 2 31 15.5t6 66.5v151q0 33 -3 44.5 t-16 19.5l-14 9q-5 4 -5 15t5 15q95 26 148 58q12 0 18 -9q-3 -45 -3 -119z"/>
<glyph glyph-name="icircumflex" horiz-adv-x="286" unicode="î" d="M14 473l106 191q7 13 23 13t23 -13l106 -191q-7 -16 -29 -18l-80 92q-16 19 -20 19q-5 0 -21 -18l-80 -93q-21 2 -28 18zM214 300v-184q0 -53 6 -66.5t31 -15.5l19 -2q6 -5 6 -17q0 -14 -7 -18q-53 3 -120 3q-71 0 -120 -3q-7 4 -7 18q0 13 6 17l19 2q25 2 31 15.5 t6 66.5v151q0 33 -3 44.5t-16 19.5l-14 9q-5 4 -5 15t5 15q95 26 148 58q12 0 18 -9q-3 -45 -3 -119z"/>
<glyph glyph-name="idieresis" horiz-adv-x="286" unicode="ï" d="M234 482q-27 0 -44.5 15.5t-18.5 43.5q0 28 18 46t45 18q26 0 43.5 -17.5t17.5 -41.5q0 -29 -17 -46.5t-44 -17.5zM54 482q-27 0 -44.5 15.5t-18.5 43.5q0 28 18 46t45 18q26 0 43.5 -17.5t17.5 -41.5q0 -29 -17 -46.5t-44 -17.5zM214 300v-184q0 -53 6 -66.5t31 -15.5 l19 -2q6 -5 6 -17q0 -14 -7 -18q-53 3 -120 3q-71 0 -120 -3q-7 4 -7 18q0 13 6 17l19 2q25 2 31 15.5t6 66.5v151q0 33 -3 44.5t-16 19.5l-14 9q-5 4 -5 15t5 15q95 26 148 58q12 0 18 -9q-3 -45 -3 -119z"/>
<glyph glyph-name="eth" horiz-adv-x="516" unicode="ð" d="M269 368q-41 0 -67.5 -41t-26.5 -128q0 -75 23.5 -121t66.5 -46q44 0 64 62q17 54 17 163v20q-1 45 -24 68q-25 23 -53 23zM491 630l-115 -55q31 -37 50 -69q60 -103 60 -224q0 -157 -65.5 -226.5t-173.5 -69.5q-91 0 -153.5 54.5t-62.5 153.5q0 102 69.5 161t167.5 59 q40 0 67 -12q-6 53 -53 127l-144 -70q-19 9 -19 33q0 9 3 15l131 63q-38 49 -87 79q-48 29 -82 33q-9 5 -9 18q0 12 10 15q83 0 149 -32q58 -26 104 -70l134 64q20 -9 20 -37q0 -7 -1 -10z"/>
<glyph glyph-name="ntilde" horiz-adv-x="550" unicode="ñ" d="M318 520h-59q-60 0 -90 -51q-3 -3 -12 -3q-17 0 -21 9q18 60 43 91q25 30 64 30h59q34 0 52 9.5t30 39.5q2 1 10 1q17 0 21 -6q-9 -52 -34 -91q-20 -29 -63 -29zM84 116v151q0 33 -3 44.5t-16 19.5l-14 9q-5 4 -5 15t5 15q98 27 148 58q12 0 18 -9q0 -8 -1.5 -25 t-1.5 -20q0 -8 5 -8q3 0 19 8q68 40 115 40q60 0 92.5 -36t32.5 -90v-172q0 -52 6.5 -65.5t33.5 -16.5l16 -2q6 -4 6 -17q0 -14 -7 -18q-47 3 -121 3q-64 0 -108 -3q-7 4 -7 18q0 13 6 17l18 3q18 3 22.5 14t4.5 52v169q0 32 -17 51.5t-53 19.5q-39 0 -56 -24q-8 -9 -8 -37 v-179q0 -41 5 -53t24 -14l16 -2q6 -5 6 -17q0 -14 -7 -18q-46 3 -111 3q-66 0 -118 -3q-7 4 -7 18q0 13 6 17l16 2q27 3 33.5 16.5t6.5 65.5z"/>
<glyph glyph-name="ograve" horiz-adv-x="516" unicode="ò" d="M208 649l91 -182q-3 -16 -20 -16h-5l-141 139q-22 22 -22 37t27 36q23 16 39 16q17 0 31 -30zM255 368q-35 0 -57.5 -38t-22.5 -116q0 -81 24 -131.5t67 -50.5q75 0 75 148v7q-1 78 -23 129.5t-63 51.5zM255 -14q-95 0 -159.5 54.5t-64.5 153.5q0 101 68 160.5t162 59.5 t159 -56t65 -157q0 -104 -65.5 -159.5t-164.5 -55.5z"/>
<glyph glyph-name="oacute" horiz-adv-x="516" unicode="ó" d="M204 468l91 182q14 30 31 30q16 0 39 -16q27 -21 27 -36t-22 -37l-141 -139h-5q-17 0 -20 16zM255 368q-35 0 -57.5 -38t-22.5 -116q0 -81 24 -131.5t67 -50.5q75 0 75 148v7q-1 78 -23 129.5t-63 51.5zM255 -14q-95 0 -159.5 54.5t-64.5 153.5q0 101 68 160.5t162 59.5 t159 -56t65 -157q0 -104 -65.5 -159.5t-164.5 -55.5z"/>
<glyph glyph-name="ocircumflex" horiz-adv-x="516" unicode="ô" d="M129 463l106 191q7 13 23 13t23 -13l106 -191q-7 -16 -29 -18l-80 92q-16 19 -20 19t-21 -18l-80 -93q-21 2 -28 18zM255 368q-35 0 -57.5 -38t-22.5 -116q0 -81 24 -131.5t67 -50.5q75 0 75 148v7q-1 78 -23 129.5t-63 51.5zM255 -14q-95 0 -159.5 54.5t-64.5 153.5 q0 101 68 160.5t162 59.5t159 -56t65 -157q0 -104 -65.5 -159.5t-164.5 -55.5z"/>
<glyph glyph-name="otilde" horiz-adv-x="516" unicode="õ" d="M298 510h-56q-58 0 -86 -49q-4 -2 -10 -2q-16 0 -21 8q19 59 41 87q23 28 61 28h56q33 0 50 9t28 38q2 1 10 1q16 0 20 -6q-9 -50 -33 -86q-19 -28 -60 -28zM255 368q-35 0 -57.5 -38t-22.5 -116q0 -81 24 -131.5t67 -50.5q75 0 75 148v7q-1 78 -23 129.5t-63 51.5z M255 -14q-95 0 -159.5 54.5t-64.5 153.5q0 101 68 160.5t162 59.5t159 -56t65 -157q0 -104 -65.5 -159.5t-164.5 -55.5z"/>
<glyph glyph-name="odieresis" horiz-adv-x="516" unicode="ö" d="M349 482q-27 0 -44.5 15.5t-18.5 43.5q0 28 18 46t45 18q26 0 43.5 -17.5t17.5 -41.5q0 -29 -17 -46.5t-44 -17.5zM169 482q-27 0 -44.5 15.5t-18.5 43.5q0 28 18 46t45 18q26 0 43.5 -17.5t17.5 -41.5q0 -29 -17 -46.5t-44 -17.5zM255 368q-35 0 -57.5 -38t-22.5 -116 q0 -81 24 -131.5t67 -50.5q75 0 75 148v7q-1 78 -23 129.5t-63 51.5zM255 -14q-95 0 -159.5 54.5t-64.5 153.5q0 101 68 160.5t162 59.5t159 -56t65 -157q0 -104 -65.5 -159.5t-164.5 -55.5z"/>
<glyph glyph-name="divide" d="M461 177h-401v72h401v-72zM261 295q-25 0 -43 17.5t-18 43.5q0 25 18 42.5t43 17.5q23 0 41 -18t18 -42q0 -25 -17.5 -43t-41.5 -18zM261 10q-25 0 -43 18t-18 43t18 42.5t43 17.5q23 0 41 -17.5t18 -42.5t-17.5 -43t-41.5 -18z" unicode="÷"/>
<glyph glyph-name="oslash" horiz-adv-x="516" unicode="ø" d="M147 9l-41 -56q-28 4 -34 26l38 51q-79 56 -79 164q0 101 68 160.5t162 59.5q64 0 107 -23l35 48q29 -2 35 -26l-33 -44q80 -57 80 -168q0 -104 -65.5 -159.5t-164.5 -55.5q-63 0 -108 23zM334 271l-134 -191q21 -48 66 -48q78 0 78 148v7q0 45 -10 84zM183 129l134 192 q-21 47 -62 47q-38 0 -60.5 -38t-22.5 -116q0 -48 11 -85z"/>
<glyph glyph-name="ugrave" horiz-adv-x="544" unicode="ù" d="M237 644l91 -182q-3 -16 -20 -16h-5l-141 139q-22 22 -22 37t27 36q23 16 39 16q17 0 31 -30zM471 314v-182q0 -48 5 -66.5t22 -18.5q16 0 40 8q7 -2 7 -19q0 -20 -10 -24q-27 -1 -56 -5t-51 -9.5t-39.5 -10t-28.5 -7.5l-10 -4q-10 1 -12 12q3 18 3 36q0 10 -11 10 q-26 -17 -40 -24.5t-40.5 -15.5t-55.5 -8q-61 0 -89 31.5t-28 96.5v170q0 38 -5.5 48.5t-24.5 16.5l-13 4q-5 7 -5 15q0 14 9 20q54 2 97 9q13 2 28 6.5t24.5 7.5t10.5 3q10 0 12 -12q-3 -37 -3 -88v-165q0 -44 13.5 -67t57.5 -23q27 0 52 19q11 8 11 30v189q0 30 -8 40 t-35 14l-14 2q-5 5 -5 15q0 17 10 20q43 2 104 10q15 2 31.5 6t27 7t12.5 3q8 0 10 -12q-3 -54 -3 -88z"/>
<glyph glyph-name="uacute" horiz-adv-x="544" unicode="ú" d="M225 473l91 182q14 30 31 30q16 0 39 -16q27 -21 27 -36t-22 -37l-141 -139h-5q-17 0 -20 16zM471 314v-182q0 -48 5 -66.5t22 -18.5q16 0 40 8q7 -2 7 -19q0 -20 -10 -24q-27 -1 -56 -5t-51 -9.5t-39.5 -10t-28.5 -7.5l-10 -4q-10 1 -12 12q3 18 3 36q0 10 -11 10 q-26 -17 -40 -24.5t-40.5 -15.5t-55.5 -8q-61 0 -89 31.5t-28 96.5v170q0 38 -5.5 48.5t-24.5 16.5l-13 4q-5 7 -5 15q0 14 9 20q54 2 97 9q13 2 28 6.5t24.5 7.5t10.5 3q10 0 12 -12q-3 -37 -3 -88v-165q0 -44 13.5 -67t57.5 -23q27 0 52 19q11 8 11 30v189q0 30 -8 40 t-35 14l-14 2q-5 5 -5 15q0 17 10 20q43 2 104 10q15 2 31.5 6t27 7t12.5 3q8 0 10 -12q-3 -54 -3 -88z"/>
<glyph glyph-name="ucircumflex" horiz-adv-x="544" unicode="û" d="M143 472l106 191q7 13 23 13t23 -13l106 -191q-7 -16 -29 -18l-80 92q-16 19 -20 19t-21 -18l-80 -93q-21 2 -28 18zM471 314v-182q0 -48 5 -66.5t22 -18.5q16 0 40 8q7 -2 7 -19q0 -20 -10 -24q-27 -1 -56 -5t-51 -9.5t-39.5 -10t-28.5 -7.5l-10 -4q-10 1 -12 12 q3 18 3 36q0 10 -11 10q-26 -17 -40 -24.5t-40.5 -15.5t-55.5 -8q-61 0 -89 31.5t-28 96.5v170q0 38 -5.5 48.5t-24.5 16.5l-13 4q-5 7 -5 15q0 14 9 20q54 2 97 9q13 2 28 6.5t24.5 7.5t10.5 3q10 0 12 -12q-3 -37 -3 -88v-165q0 -44 13.5 -67t57.5 -23q27 0 52 19 q11 8 11 30v189q0 30 -8 40t-35 14l-14 2q-5 5 -5 15q0 17 10 20q43 2 104 10q15 2 31.5 6t27 7t12.5 3q8 0 10 -12q-3 -54 -3 -88z"/>
<glyph glyph-name="udieresis" horiz-adv-x="544" unicode="ü" d="M363 482q-27 0 -44.5 15.5t-18.5 43.5q0 28 18 46t45 18q26 0 43.5 -17.5t17.5 -41.5q0 -29 -17 -46.5t-44 -17.5zM183 482q-27 0 -44.5 15.5t-18.5 43.5q0 28 18 46t45 18q26 0 43.5 -17.5t17.5 -41.5q0 -29 -17 -46.5t-44 -17.5zM471 314v-182q0 -48 5 -66.5t22 -18.5 q16 0 40 8q7 -2 7 -19q0 -20 -10 -24q-27 -1 -56 -5t-51 -9.5t-39.5 -10t-28.5 -7.5l-10 -4q-10 1 -12 12q3 18 3 36q0 10 -11 10q-26 -17 -40 -24.5t-40.5 -15.5t-55.5 -8q-61 0 -89 31.5t-28 96.5v170q0 38 -5.5 48.5t-24.5 16.5l-13 4q-5 7 -5 15q0 14 9 20q54 2 97 9 q13 2 28 6.5t24.5 7.5t10.5 3q10 0 12 -12q-3 -37 -3 -88v-165q0 -44 13.5 -67t57.5 -23q27 0 52 19q11 8 11 30v189q0 30 -8 40t-35 14l-14 2q-5 5 -5 15q0 17 10 20q43 2 104 10q15 2 31.5 6t27 7t12.5 3q8 0 10 -12q-3 -54 -3 -88z"/>
<glyph glyph-name="yacute" horiz-adv-x="469" unicode="ý" d="M218 467l91 182q14 30 31 30q16 0 39 -16q27 -21 27 -36t-22 -37l-141 -139h-5q-17 0 -20 16zM12 365l-18 3q-5 5 -5 17q0 15 8 18q54 -3 132 -3q57 0 112 3q8 -3 8 -19q0 -12 -5 -16l-20 -4q-20 -4 -25 -8t-5 -11q0 -8 30 -89q44 -112 45 -114q8 14 31 66l18 41 q37 85 37 101q0 10 -22 14l-20 4q-6 4 -6 17q0 15 9 18q33 -3 97 -3q39 0 78 3q8 -3 8 -19q0 -12 -6 -16l-19 -2q-32 -3 -46 -22q-24 -32 -59 -105l-53 -109q-17 -35 -75.5 -156t-76.5 -159q-30 -64 -86 -66h-2q-62 0 -62 60q0 23 15.5 37.5t41.5 14.5h24q33 0 49 21 q8 11 29 55q14 28 14 42q0 24 -19 73l-96 242q-16 39 -26.5 53t-33.5 18z"/>
<glyph glyph-name="thorn" horiz-adv-x="533" unicode="þ" d="M203 273v-160q0 -35 23 -58q21 -23 48 -23q45 0 70.5 43.5t25.5 115.5t-31.5 113t-82.5 41q-31 0 -42 -14q-11 -13 -11 -58zM73 -139v675q0 33 -3 44t-17 19l-17 10q-5 4 -5 15t5 15q49 12 153 56q11 0 17 -7q-3 -62 -3 -146v-159q0 -7 8 -9q75 40 127 40q78 0 124 -54 t46 -137q0 -105 -68 -171t-177 -66q-31 0 -45 3q-15 -3 -15 -29v-99q0 -52 6 -65.5t31 -15.5l34 -3q6 -5 6 -17q0 -14 -7 -18q-75 3 -137 3q-65 0 -119 -3q-7 4 -7 18q0 12 6 17l20 2q25 2 31 15.5t6 66.5z"/>
<glyph glyph-name="OE" horiz-adv-x="1018" unicode="Œ" d="M539 121v404q0 41 -7 59.5t-24 25.5q-26 10 -65 10q-115 0 -178.5 -83t-63.5 -208q0 -116 65 -202.5t186 -86.5q47 0 67 16.5t20 64.5zM650 660h171q115 0 134 3q0 -6 2.5 -30.5t5.5 -60t5 -64.5q-3 -10 -20 -10q-11 0 -17 6q-18 58 -38 79q-31 31 -98 31h-80 q-24 0 -28.5 -5.5t-4.5 -33.5v-175q0 -21 4 -25.5t24 -4.5h69q40 0 53.5 9.5t20.5 45.5l5 25q4 6 19 6t19 -7q-4 -64 -4 -106t4 -106q-4 -7 -20 -7q-14 0 -18 6l-5 25q-7 36 -21 46t-53 10h-69q-20 0 -24 -4.5t-4 -26.5v-119q0 -72 16 -95q10 -14 31.5 -20t73.5 -6 q39 0 57.5 2.5t41.5 13.5t39.5 34.5t37.5 65.5q5 6 16 6q18 0 21 -11q-3 -37 -17 -87.5t-25 -72.5q-79 3 -231 3h-100q-41 0 -110.5 -3t-101.5 -3q-187 0 -289 89.5t-102 232.5q0 154 109 252t307 98q38 0 101.5 -3t92.5 -3z"/>
<glyph glyph-name="oe" horiz-adv-x="740" unicode="œ" d="M526 281h44q27 0 41 9q7 4 7 23q0 25 -15.5 40t-39.5 15q-32 0 -58 -24t-26 -48q0 -10 10 -12.5t37 -2.5zM696 237h-198q-19 0 -23 -3t-4 -17q0 -61 38.5 -103.5t106.5 -42.5q62 0 95 52q24 0 24 -23q-27 -59 -73.5 -86.5t-99.5 -27.5q-96 0 -152 65q-24 -29 -67.5 -47 t-91.5 -18q-92 0 -156 55t-64 154q0 101 68.5 160t160.5 59q50 0 92 -20t64 -53q26 32 67.5 52.5t84.5 20.5q79 0 121.5 -41.5t42.5 -102.5q0 -16 -7.5 -24.5t-28.5 -8.5zM348 187q-1 78 -23.5 129.5t-63.5 51.5q-36 0 -58.5 -38t-22.5 -116q0 -82 24.5 -132t67.5 -50 q76 0 76 148v7z"/>
<glyph glyph-name="Scaron" horiz-adv-x="506" unicode="Š" d="M120 861l121 -50q12 -5 19 -5q8 0 16 4l120 51q7 0 11 -8.5t2 -17.5l-129 -117q-13 -10 -22 -10q-10 0 -22 10l-128 117q-1 9 3 17t9 9zM477 187q0 -92 -69 -147.5t-183 -55.5q-103 0 -170 38q-14 16 -23 63t-9 99q6 11 21 11q11 0 17 -8q18 -57 66 -107t106 -50 q52 0 80 30t28 71q0 91 -136 159q-151 77 -151 197q0 85 62.5 137t169.5 52q61 0 114 -16q17 -5 34 -8q18 -49 18 -143q-4 -10 -20 -10q-13 0 -19 7q-16 48 -49.5 86t-82.5 38q-48 0 -75 -27t-27 -66q0 -33 25.5 -63t65.5 -51l66 -35q141 -75 141 -201z"/>
<glyph glyph-name="scaron" horiz-adv-x="358" unicode="š" d="M327 660l-106 -191q-7 -13 -23 -13t-23 13l-106 191q7 16 29 18l80 -92q16 -19 20 -19t21 18l80 93q21 -2 28 -18zM164 -14q-84 0 -124 31q-16 29 -16 97v16q5 8 19 8q11 0 15 -6q12 -37 39.5 -68.5t62.5 -31.5q23 0 37.5 13.5t14.5 38.5q0 42 -66 75q-103 51 -103 126 q0 62 45 95.5t114 33.5q35 0 66 -7t41 -14q15 -33 15 -100q-3 -9 -19 -9q-11 0 -16 5q-27 79 -78 79q-22 0 -36 -12t-14 -32q0 -33 64 -64q110 -53 110 -140q-1 -64 -49 -99t-122 -35z"/>
<glyph glyph-name="Ydieresis" horiz-adv-x="575" unicode="Ÿ" d="M433 712q-28 0 -45.5 16t-18.5 45q0 29 18 48t46 19q27 0 45 -18.5t18 -43.5q0 -30 -17.5 -48t-45.5 -18zM219 712q-28 0 -45.5 16t-18.5 45q0 29 18 48t46 19q27 0 45 -18.5t18 -43.5q0 -30 -17.5 -48t-45.5 -18zM367 214v-70q0 -69 8.5 -85.5t42.5 -21.5l40 -5 q5 -4 5 -18q0 -13 -5 -17q-98 3 -162 3q-68 0 -157 -3q-6 5 -6 17q0 14 6 18l34 5q34 5 42.5 22t8.5 85v50q0 40 -4.5 60.5t-22.5 58.5l-119 246q-17 34 -28 46.5t-36 16.5l-34 6q-6 6 -6 17q0 15 10 18q67 -3 141 -3q95 0 146 3q8 -3 8 -18q0 -11 -6 -17l-34 -8 q-24 -5 -24 -9q0 -12 26 -70l47 -107q19 -41 46 -98q3 6 84 158q52 97 52 116q0 8 -34 14l-23 4q-6 3 -6 18q0 14 7 17q60 -3 112 -3q54 0 98 3q10 -3 10 -19q0 -12 -6 -16l-26 -5q-34 -6 -48 -24q-32 -41 -88 -142l-63 -114q-21 -38 -28.5 -63t-7.5 -66z"/>
<glyph glyph-name="circumflex" horiz-adv-x="380" unicode="ˆ" d="M61 473l106 191q7 13 23 13t23 -13l106 -191q-7 -16 -29 -18l-80 87q-18 19 -20 19q-4 0 -21 -18l-80 -88q-21 2 -28 18z"/>
<glyph glyph-name="tilde" horiz-adv-x="380" unicode="˜" d="M230 515h-56q-58 0 -86 -49q-4 -2 -10 -2q-16 0 -21 8q19 59 41 87q23 28 61 28h56q33 0 50 9t28 38q2 1 10 1q15 0 20 -6q-9 -50 -33 -86q-19 -28 -60 -28z"/>
<glyph glyph-name="pi" horiz-adv-x="539" unicode="π" d="M345 309h-127q-25 -161 -41 -231q-21 -92 -73 -92q-54 0 -54 51q0 20 20 35q64 44 96 237q-100 0 -129 -42q-5 -8 -11.5 -6.5t-7.5 13.5q0 1 -0.5 4.5t-0.5 5.5q0 64 56 98q30 18 94 18h217q98 0 115 9q1 1 3 1q6 0 6 -9q0 -23 -10 -48.5t-24 -34.5q-15 -9 -68 -9 q-19 -71 -20 -139v-9q0 -87 45 -87q28 0 56 33q7 8 16 8q10 0 10 -12q0 -7 -2 -12q-37 -105 -138 -105q-89 0 -89 104q0 72 61 219z"/>
<glyph glyph-name="endash" horiz-adv-x="500" unicode="–" d="M0 242h500v-69h-500v69z"/>
<glyph glyph-name="emdash" horiz-adv-x="1000" unicode="—" d="M0 242h1000v-69h-1000v69z"/>
<glyph glyph-name="quoteleft" horiz-adv-x="253" unicode="‘" d="M139 414q-37 0 -68 31t-31 91q0 66 45.5 110.5t112.5 59.5q16 -1 16 -19q0 -7 -6 -12q-33 -12 -59 -36.5t-26 -56.5q0 -48 55 -62q30 -9 30 -44q0 -26 -20.5 -44t-48.5 -18z"/>
<glyph glyph-name="quotesinglbase" horiz-adv-x="253" unicode="‚" d="M114 170q37 0 68 -31.5t31 -92.5q0 -67 -45 -109.5t-113 -58.5q-16 1 -16 19q0 7 6 12q33 12 59 36.5t26 56.5q0 48 -55 62q-30 9 -30 44q0 26 20.5 44t48.5 18z"/>
<glyph glyph-name="quotedblleft" horiz-adv-x="472" unicode="“" d="M358 414q-36 0 -67.5 31t-31.5 91q0 66 45.5 110.5t112.5 59.5q16 -1 16 -19q0 -7 -6 -12q-33 -12 -59 -36.5t-26 -56.5q0 -48 55 -62q30 -9 30 -44q0 -26 -20.5 -44t-48.5 -18zM139 414q-37 0 -68 31t-31 91q0 66 45.5 110.5t112.5 59.5q16 -1 16 -19q0 -7 -6 -12 q-33 -12 -59 -36.5t-26 -56.5q0 -48 55 -62q30 -9 30 -44q0 -26 -20.5 -44t-48.5 -18z"/>
<glyph glyph-name="quotedblright" horiz-adv-x="472" unicode="”" d="M333 700q37 0 68 -31t31 -91q0 -66 -45.5 -110.5t-112.5 -59.5q-16 1 -16 19q0 7 6 12q33 12 59 36.5t26 56.5q0 48 -55 62q-30 9 -30 44q0 26 20.5 44t48.5 18zM114 700q36 0 67.5 -31t31.5 -91q0 -66 -45.5 -110.5t-112.5 -59.5q-16 1 -16 19q0 7 6 12q33 12 59 36.5 t26 56.5q0 48 -55 62q-30 9 -30 44q0 26 20.5 44t48.5 18z"/>
<glyph glyph-name="dagger" horiz-adv-x="490" unicode="†" d="M274 -127h-58v127q0 125 -41 262q40 49 40 158q-28 0 -64.5 -16t-53.5 -16q-25 0 -41 14.5t-16 40.5q0 24 16 39t41 15q17 0 53.5 -16t64.5 -16q-2 44 -20 84t-18 57q0 31 18 50.5t50 19.5t50 -19.5t18 -50.5q0 -17 -18 -57t-20 -84q28 0 65 16t54 16q24 0 40 -15t16 -39 q0 -25 -16 -40t-40 -15q-17 0 -54 16t-65 16q0 -109 40 -158q-41 -137 -41 -262v-127z"/>
<glyph glyph-name="daggerdbl" horiz-adv-x="492" unicode="‡" d="M246 676q36 0 50.5 -20t14.5 -45q0 -17 -17 -56.5t-19 -81.5q32 0 71.5 15.5t51.5 15.5q23 0 38.5 -15t15.5 -38q0 -24 -15.5 -39t-38.5 -15q-12 0 -51.5 15.5t-71.5 15.5q0 -99 42 -141q-42 -38 -42 -149q32 0 71.5 15.5t51.5 15.5q24 0 39 -15.5t15 -40.5 q0 -22 -15.5 -36.5t-38.5 -14.5q-12 0 -51.5 15.5t-71.5 15.5q0 -41 18 -85t18 -68q0 -27 -16.5 -45.5t-48.5 -18.5q-31 0 -48 18.5t-17 45.5q0 24 18 68t18 85q-32 0 -71 -15.5t-51 -15.5q-23 0 -39 14.5t-16 36.5q0 25 15.5 40.5t39.5 15.5q12 0 51 -15.5t71 -15.5 q0 111 -42 149q42 42 42 141q-32 0 -71 -15.5t-51 -15.5q-24 0 -39.5 15t-15.5 39q0 23 16 38t39 15q12 0 51 -15.5t71 -15.5q-2 42 -19 81.5t-17 56.5q0 25 14.5 45t50.5 20z"/>
<glyph glyph-name="ellipsis" horiz-adv-x="1000" unicode="…" d="M167 -14q-32 0 -56.5 23t-24.5 58t23.5 59t57.5 24q35 0 58 -25t23 -58q0 -35 -22.5 -58t-58.5 -23zM833 -14q-32 0 -56.5 23t-24.5 58t23.5 59t57.5 24q35 0 58 -25t23 -58q0 -35 -22.5 -58t-58.5 -23zM500 -14q-32 0 -56.5 23t-24.5 58t23.5 59t57.5 24q35 0 58 -25 t23 -58q0 -35 -22.5 -58t-58.5 -23z"/>
<glyph glyph-name="perthousand" horiz-adv-x="1188" unicode="‰" d="M240 -40q-3 -1 -8 -1q-27 0 -37 25q202 360 370 670h4q12 0 24.5 -6.5t16.5 -17.5q-202 -360 -370 -670zM1051 173q0 23 -2 44.5t-8 45.5t-18.5 39t-30.5 15t-31.5 -14.5t-20 -38t-9 -46t-2.5 -45.5q0 -53 14.5 -99t48.5 -46q18 0 30.5 15t18.5 39.5t8 46.5t2 44z M990 -12q-54 0 -91.5 31.5t-51.5 71t-14 81.5q0 31 8.5 62t26 59.5t49.5 46t73 17.5t73 -17.5t49.5 -46t26 -59.5t8.5 -62q0 -42 -14 -81.5t-51.5 -71t-91.5 -31.5zM254 456q0 53 -13 98.5t-47 45.5t-48 -45t-14 -99q0 -53 14 -99t48 -46t47 45.5t13 99.5zM193 271 q-79 0 -118 57.5t-39 126.5t39 127t118 58q54 0 91.5 -31.5t51.5 -71.5t14 -82t-14 -81.5t-51.5 -71t-91.5 -31.5zM681 173q0 23 -2 44.5t-8 45.5t-18.5 39t-30.5 15t-31.5 -14.5t-20 -38t-9 -46t-2.5 -45.5q0 -53 14.5 -99t48.5 -46q18 0 30.5 15t18.5 39.5t8 46.5t2 44z M620 -12q-54 0 -91.5 31.5t-51.5 71t-14 81.5q0 31 8.5 62t26 59.5t49.5 46t73 17.5t73 -17.5t49.5 -46t26 -59.5t8.5 -62q0 -42 -14 -81.5t-51.5 -71t-91.5 -31.5z"/>
<glyph glyph-name="guilsinglleft" horiz-adv-x="255" unicode="‹" d="M219 384l-76 -160q-7 -14 0 -29l76 -163q-7 -15 -20 -15h-2q-86 101 -152 174q-8 8 -8 18t8 18q73 79 152 172q17 -4 22 -15z"/>
<glyph glyph-name="guilsinglright" horiz-adv-x="255" unicode="›" d="M112 224l-76 160q5 11 22 15q79 -93 152 -172q8 -8 8 -18t-8 -18q-66 -72 -152 -174h-2q-12 0 -20 15l76 163q7 15 0 29z"/>
<glyph glyph-name="Euro" d="M35 391h39q18 109 89 178.5t178 69.5q24 0 44.5 -3.5t46.5 -10.5l25 -7l8 -2t8.5 -2t7.5 -2q0 -75 10 -127q-5 -11 -20 -11q-9 0 -12 4q-13 37 -24 58.5t-36.5 39t-62.5 17.5q-109 0 -126 -202h251q1 -3 1 -13q0 -27 -11 -32h-244q-1 -4 -1 -16q0 -7 0.5 -20t0.5 -18v-6 h225q3 -3 3 -12q0 -27 -12 -33h-212q9 -209 138 -209q47 0 78 33.5t47 77.5q5 5 12 5q13 0 18 -9q-15 -80 -35 -124q-13 -3 -29 -8q-57 -21 -114 -21q-110 0 -178 68.5t-80 186.5h-55q-3 3 -3 9q0 26 12 36h43q0 44 2 60h-41q-3 3 -3 9q0 26 12 36z" unicode="€"/>
<glyph glyph-name="trademark" horiz-adv-x="614" unicode="™" d="M519 502l-2 98q0 10 -2 11q-1 0 -19 -43l-19 -44q-23 -54 -28 -70q-9 -3 -13 -3q-7 0 -12 4q-2 7 -23 60l-23 55q-20 45 -23 47q-1 -3 -4 -52v-20v-41q1 -17 4.5 -22.5t15.5 -6.5l9 -1q2 -2 2 -9t-2 -11q-10 1 -47 1q-36 0 -47 -1q-2 1 -2.5 9t1.5 11l6 1q24 4 25 24 q9 83 9 112q0 25 -24 28l-8 2q-6 2 -5.5 10.5t6.5 9.5q9 0 22 -0.5t18 -0.5q30 0 66 1q0 -12 23 -56l19 -37q8 -15 12 -15q5 0 12 12l17 37q15 32 23 59q31 -1 48 -1q38 0 50 1q5 -2 5 -10t-4 -10l-10 -2q-12 -2 -15.5 -7t-3.5 -17q0 -66 3 -108q1 -17 3.5 -22t10.5 -7 l15 -4q4 -1 4 -10t-4 -10q-14 1 -61 1q-40 0 -55 -1q-2 2 -2.5 10t2.5 10l15 4q8 2 10 6.5t2 17.5zM114 524v97q0 9 -1.5 10.5t-9.5 1.5h-8q-32 0 -45 -35q-2 -5 -10.5 -4t-9.5 7q8 51 14 71q2 4 8 4q5 0 7 -4q7 -8 11.5 -10t19.5 -2h127q18 0 30 12q4 4 8 4q5 0 7 -4 q-5 -25 -5 -61v-13q-1 -7 -9.5 -7t-9.5 5q-4 19 -12.5 28t-26.5 9h-13q-6 0 -7 -1.5t-1 -10.5v-100q0 -25 3 -33.5t15 -10.5l16 -3q3 -2 2.5 -10.5t-3.5 -9.5q-22 1 -72 1q-40 0 -58 -1q-3 1 -3 8.5t2 11.5l16 3q11 2 14.5 12.5t3.5 34.5z"/>
<glyph glyph-name="partialdiff" horiz-adv-x="548" unicode="∂" d="M280 358q-44 0 -72.5 -61t-28.5 -138q0 -58 16.5 -92.5t46.5 -34.5q28 0 51.5 27t39 71t25 85t15.5 82q-14 22 -39 41.5t-54 19.5zM254 417q81 0 130 -64q9 35 10 95v9q0 84 -30 136.5t-96 52.5q-39 0 -136 -53q-7 -4 -14 -4q-25 0 -25 49q0 39 34 55q40 21 95 21 q91 0 157.5 -54.5t97.5 -135t31 -172.5q0 -125 -53 -227q-31 -60 -85 -99.5t-125 -39.5q-93 0 -149 58t-56 145q0 93 60.5 160.5t153.5 67.5z"/>
<glyph glyph-name="product" horiz-adv-x="807" unicode="∏" d="M498 654h-189q-36 0 -43 -4.5t-7 -27.5v-583q0 -54 5 -76.5t14.5 -29t35.5 -9.5l23 -3q5 -5 5 -16q0 -15 -7 -18q-66 3 -160 3q-69 0 -135 -3q-7 3 -7 18q0 11 5 16l22 3q27 3 36.5 9.5t14.5 29t5 76.5v517q0 51 -5 72.5t-14.5 28t-36.5 9.5l-22 3q-5 5 -5 16q0 15 7 18 q66 -3 133 -3h461q67 0 133 3q7 -3 7 -18q0 -11 -5 -16l-22 -3q-27 -3 -36.5 -9.5t-14.5 -28t-5 -72.5v-522q0 -51 5 -72.5t14.5 -28t36.5 -9.5l22 -3q5 -8 5 -18q0 -13 -7 -16q-66 3 -133 3q-96 0 -162 -3q-7 3 -7 18q0 11 5 16l22 3q26 3 36 10.5t15 29t5 70.5v588 q0 23 -7 27.5t-43 4.5z"/>
<glyph glyph-name="summation" horiz-adv-x="700" unicode="∑" d="M600 700l6 -153q-1 -7 -18 -7t-18 7q-11 29 -19 44t-26.5 32t-49 24t-77.5 7h-180l219 -322q8 -11 8 -20q0 -8 -7 -16l-252 -290h307q60 0 86.5 14t52.5 65q4 7 16 7q20 0 23 -17q-8 -37 -14.5 -69t-13.5 -67t-11 -56q-5 0 -31 3.5t-39 3.5h-459q-5 0 -29.5 -1t-34.5 -1 q-9 0 -9 19q0 10 5 17l270 316q6 8 6 15q0 6 -5 14l-265 399q-3 4 -3 11q0 8 3.5 15.5t7.5 7.5q24 -2 98 -2h453z"/>
<glyph glyph-name="minus" d="M461 177h-401v72h401v-72z" unicode="−"/>
<glyph glyph-name="radical" horiz-adv-x="549" unicode="√" d="M39 414l-19 40l172 88l169 -337l109 688l54 -6l-153 -948l-256 510z"/>
<glyph glyph-name="infinity" horiz-adv-x="786" unicode="∞" d="M582 356q-19 0 -41.5 -11t-34.5 -20.5t-37 -32t-28 -25.5q2 -3 13 -14.5t14.5 -15.5t14 -14.5t16 -14.5t15.5 -12t17 -11.5t16.5 -8t19 -6t19.5 -1.5q33 0 58.5 26t25.5 67q0 37 -24 65.5t-64 28.5zM204 357q-41 0 -64.5 -28.5t-23.5 -58.5q0 -47 26.5 -74.5t63.5 -27.5 q61 0 145 88q-2 2 -11.5 12.5t-12.5 14t-12.5 13t-14.5 13.5t-14 12t-15.5 12t-15.5 9.5t-16.5 8t-16.5 4.5t-18 2zM191 430h2q23 0 44.5 -5.5t36 -11t35 -21t28.5 -22t30.5 -28t27.5 -25.5q35 35 59 55t62.5 39t75.5 19h2q60 0 106 -47.5t46 -115.5q0 -74 -44 -120 t-116 -46q-29 0 -56.5 8.5t-49.5 23.5t-37 27t-30.5 28.5t-18.5 18.5l-18 -19q-18 -19 -31 -29.5t-36 -26t-51 -23.5t-58 -8q-74 0 -117 49t-43 120q0 69 45 114.5t106 45.5z"/>
<glyph glyph-name="approxequal" d="M433 191l46 -55q-59 -70 -134 -70q-27 0 -49 9l-84 30q-26 9 -45 9q-43 0 -77 -46l-49 46q57 82 132 82q24 0 52 -10l89 -32q15 -5 30 -5q50 0 89 42zM435 378l44 -52q-63 -76 -132 -76q-25 0 -51 9l-84 29q-23 8 -44 8q-44 0 -78 -46l-49 46q56 83 132 83q24 0 52 -10 l89 -31q15 -5 30 -5q47 0 91 45z" unicode="≈"/>
<glyph glyph-name="notequal" d="M60 322h230l61 92l68 -24l-45 -68h87v-72h-134l-48 -72h182v-72h-230l-70 -106l-68 24l54 82h-87v72h135l48 72h-183v72z" unicode="≠"/>
<glyph glyph-name="lessequal" d="M66 346l389 178v-83l-286 -123v-2l286 -124v-82l-389 177v59zM461 0h-401v72h401v-72z" unicode="≤"/>
<glyph glyph-name="greaterequal" d="M66 524l389 -178v-59l-389 -177v82l286 124v2l-286 123v83zM461 0h-401v72h401v-72z" unicode="≥"/>
<glyph glyph-name="lozenge" horiz-adv-x="584" unicode="◊" d="M447 340l-156 286l-154 -286l154 -295zM333 -45h-82l-206 385l206 375h82l206 -375z"/>
<glyph glyph-name="Euro.fitted" horiz-adv-x="619" unicode="" d="M55 391h37q23 109 104 178.5t203 69.5q62 0 136 -21l8 -2t8.5 -2t7.5 -2q0 -5 1.5 -29.5t4 -50t6.5 -47.5q-5 -11 -20 -11q-9 0 -12 4q-39 115 -145 115q-63 0 -108.5 -50t-56.5 -152h293q1 -3 1 -13q0 -27 -11 -32h-287q-1 -4 -1 -24q0 -30 1 -36h268q3 -3 3 -12 q0 -27 -12 -33h-255q9 -102 57 -155.5t121 -53.5q29 0 53 10t44 31t29 33.5t25 36.5q5 5 12 5q13 0 18 -9q-19 -91 -41 -124q-13 -3 -29 -8q-57 -21 -134 -21q-129 0 -206 66.5t-92 188.5h-59q-3 3 -3 9q0 26 12 36h47q-1 4 -1 16q0 14 3 44h-39q-3 3 -3 9q0 26 12 36z"/>
<glyph glyph-name="Euro.oldstyle" horiz-adv-x="581" unicode="" d="M63 333h36q22 89 100.5 144t187.5 55q54 0 115 -14q18 -4 23 -5q1 -5 2.5 -25.5t3.5 -45.5t6 -47q-4 -10 -19 -10q-7 0 -13 4q-12 40 -43 68t-82 28q-52 0 -93 -38.5t-52 -113.5h289q3 -7 3 -17q0 -24 -12 -28h-285q-1 -3 -1 -20q0 -27 1 -32h266q3 -3 3 -12 q0 -28 -12 -33h-252q11 -75 51 -115.5t98 -40.5q76 0 136 90q6 4 11 4q15 0 19 -15q-18 -78 -40 -108q-6 -1 -17.5 -4t-16.5 -4q-46 -12 -104 -12q-120 0 -192 54t-86 151h-60q-4 1 -4 9q0 9 5 21t9 15h46q-1 4 -1 18q0 24 3 34h-39q-5 3 -5 12t4.5 20t10.5 13z"/>
<glyph glyph-name="T_h.caron" horiz-adv-x="1104" unicode="" d="M194 856l121 -50q12 -5 19 -5q8 0 16 4l120 51q7 0 11 -8.5t2 -17.5l-129 -117q-13 -10 -22 -10q-10 0 -22 10l-128 117q-1 9 3 17t9 9zM265 144v441q0 19 -3.5 24t-20.5 5h-72q-51 0 -74.5 -25t-49.5 -88q-6 -3 -14 -3q-17 0 -23 12q9 31 15.5 62.5t11.5 65.5t6 42 q7 5 14 5q9 0 14 -4q4 -14 17 -17.5t67 -3.5h392q88 0 95 14v10l116 31q11 0 17 -7q-3 -62 -3 -146v-184q0 -12 7 -12q3 0 16 8q59 40 115 40q60 0 93 -35.5t33 -90.5v-172q0 -52 6.5 -65.5t33.5 -16.5l16 -2q6 -5 6 -17q0 -14 -7 -18q-47 3 -121 3q-75 0 -108 -3 q-7 4 -7 18q0 13 6 17l18 3q18 3 22.5 14t4.5 52v173q0 29 -17.5 48t-52.5 19q-39 0 -56 -24q-8 -9 -8 -37v-179q0 -41 4.5 -52t22.5 -14l18 -3q6 -4 6 -17q0 -14 -7 -18q-46 3 -111 3q-66 0 -117 -3q-7 4 -7 18q0 13 6 17l18 2q25 3 31 16.5t6 65.5v416q0 48 -24 65 t-106 17h-75q-18 0 -22.5 -5t-4.5 -24v-441q0 -69 8.5 -85.5t42.5 -21.5l40 -5q5 -4 5 -18q0 -13 -5 -17q-97 3 -160 3q-65 0 -170 -3q-6 5 -6 17q0 14 6 18l45 5q34 4 42.5 21t8.5 86z"/>
<glyph glyph-name="T_h.commaaccent" horiz-adv-x="1104" unicode="" d="M318 -45q30 0 57 -25.5t27 -73.5q0 -58 -36.5 -93t-94.5 -47q-13 1 -13 20q0 10 5 13q25 9 46.5 28.5t21.5 42.5q0 38 -44 50q-24 7 -24 35q0 21 16 35.5t39 14.5zM265 144v441q0 19 -3.5 24t-20.5 5h-72q-51 0 -74.5 -25t-49.5 -88q-6 -3 -14 -3q-17 0 -23 12 q9 31 15.5 62.5t11.5 65.5t6 42q7 5 14 5q9 0 14 -4q4 -14 17 -17.5t67 -3.5h392q88 0 95 14v10l116 31q11 0 17 -7q-3 -62 -3 -146v-184q0 -12 7 -12q3 0 16 8q59 40 115 40q60 0 93 -35.5t33 -90.5v-172q0 -52 6.5 -65.5t33.5 -16.5l16 -2q6 -5 6 -17q0 -14 -7 -18 q-47 3 -121 3q-75 0 -108 -3q-7 4 -7 18q0 13 6 17l18 3q18 3 22.5 14t4.5 52v173q0 29 -17.5 48t-52.5 19q-39 0 -56 -24q-8 -9 -8 -37v-179q0 -41 4.5 -52t22.5 -14l18 -3q6 -4 6 -17q0 -14 -7 -18q-46 3 -111 3q-66 0 -117 -3q-7 4 -7 18q0 13 6 17l18 2q25 3 31 16.5 t6 65.5v416q0 48 -24 65t-106 17h-75q-18 0 -22.5 -5t-4.5 -24v-441q0 -69 8.5 -85.5t42.5 -21.5l40 -5q5 -4 5 -18q0 -13 -5 -17q-97 3 -160 3q-65 0 -170 -3q-6 5 -6 17q0 14 6 18l45 5q34 4 42.5 21t8.5 86z"/>
<glyph glyph-name="orn.001" horiz-adv-x="850" unicode="" d="M144 186q62 18 97 66q29 42 36 102q-60 -12 -96 -56q-36 -45 -37 -112zM90 175q0 77 49 140t139 77q-1 62 -22.5 104t-56.5 42q-23 0 -29 -31q-1 -4 -5 -8q-10 -5 -19 -5q-19 0 -31 11.5t-12 30.5q0 20 16.5 35.5t43.5 15.5q66 0 110 -60t47 -131h2q71 0 123 -36l2 2 q-62 52 -62 113q0 32 27 54t67 22q6 0 29.5 -1.5t30.5 -1.5q26 0 49.5 16t23.5 48q0 25 -26 46q-5 4 -3.5 7.5t6.5 3.5h2q38 -6 65.5 -36.5t27.5 -74.5q0 -35 -19.5 -61t-40 -38.5t-70.5 -36.5l-18 -9q-37 -18 -37 -51q0 -8 4 -16q39 46 98 46q47 0 101 -48q38 -35 65 -35 q38 0 59 37q3 5 7 5.5t5 -4.5q2 -6 2 -19q0 -47 -38.5 -90.5t-94.5 -43.5q-34 0 -64.5 14t-72.5 56q-23 21 -31 28.5t-21 15t-24 7.5q-10 -7 -10 -23q0 -5 1 -10.5t4 -12.5t5 -11.5t8 -13.5t8.5 -13.5t10.5 -15.5t11 -16q30 -44 40 -63.5t10 -43.5q0 -34 -27.5 -63 t-60.5 -29q-7 0 -17 2q-14 3 -2 12q28 18 28 41q0 19 -12 31t-57 39q-75 46 -75 108q0 30 23.5 58.5t58.5 45.5q-46 24 -109 24q-10 0 -13 -1q-6 -82 -54 -133t-120 -64q2 -32 14.5 -54.5t25.5 -29.5q10 -5 26 -5h8q2 -1 2.5 -5t-0.5 -6q-36 -34 -68 -34q-13 0 -25 15 q-38 48 -38 131z"/>
<glyph glyph-name="orn.002" horiz-adv-x="1141" unicode="" d="M282 57h-7q-103 0 -169 76.5t-66 175.5q0 117 70.5 184t144.5 67q53 0 100 -30t47 -85q0 -34 -22.5 -55t-48.5 -21h-2q-32 0 -54 18t-22 44q0 13 7 22.5t27 23.5q18 17 18 30q0 23 -59 23h-6q-52 -1 -93.5 -44.5t-41.5 -90.5q0 -19 3.5 -35.5t12 -29t16.5 -22.5 t21.5 -18.5t22.5 -14t25 -10.5t22.5 -7t22 -5.5t17.5 -4.5q48 -13 48 -55q0 -28 -8 -45q-9 -21 -9 -35t28 -14q83 0 199 165q-17 20 -17 47t20.5 48t47.5 22q15 0 28 -5q69 98 125.5 140t136.5 44h5q96 0 162.5 -71t66.5 -182q0 -116 -62.5 -182t-144.5 -68h-3 q-53 0 -94.5 26t-41.5 72q0 31 21 55t50 24q37 0 53.5 -20t16.5 -43q0 -21 -14 -33q-13 -10 -13 -24q0 -9 11 -17t28 -8h3q43 1 87 38t44 102q0 62 -26.5 89t-100.5 48q-77 21 -77 61q0 12 10 47q6 22 6 30q0 16 -27 16q-49 -1 -93 -43t-100 -122q17 -19 17 -45 q0 -29 -20.5 -49.5t-49.5 -22.5q-14 0 -25 4q-65 -89 -128 -135.5t-146 -49.5z"/>
<glyph glyph-name="orn.003" horiz-adv-x="583" unicode="" d="M284 493q-20 0 -33 -15t-13 -34t14 -32.5t32 -13.5q21 0 34.5 13.5t13.5 34.5q0 18 -14 32.5t-34 14.5zM298 693h2q47 0 71.5 -27.5t24.5 -61.5q0 -45 -32 -84q-17 -17 -17 -30q0 -4 4.5 -8.5t10.5 -4.5q2 0 14 6.5t31 13t39 6.5h2q36 0 65.5 -24.5t29.5 -72.5 q0 -36 -22.5 -69t-74.5 -34h-4q-58 0 -93 53q-12 17 -26 17q-4 0 -12.5 -12t-16 -32.5t-7.5 -38.5q0 -36 29 -65.5t81 -60.5q92 -54 92 -128q0 -48 -38 -88t-97 -40q-62 0 -156 76q-42 35 -62 35h-4q-26 0 -49 -56q-16 0 -16 14q8 46 31.5 67t48.5 22h2q14 0 26 -2.5 t27.5 -11.5t22 -13t28 -20.5t26.5 -20.5q63 -46 104 -46q24 0 40.5 18t16.5 46q0 8 -1.5 16t-6.5 16t-8 13.5t-11.5 13t-11.5 11t-14.5 11t-14 9.5t-15.5 10t-14 9q-104 66 -104 128q0 40 26 84q12 19 12 28q0 7 -10 7q-12 0 -25 -16q-10 -13 -41.5 -32.5t-59.5 -20.5h-2 q-50 0 -74.5 31t-24.5 70q0 49 30 73t70 25h3q21 0 45.5 -8t25.5 -8q6 0 10 5.5t4 9.5q0 7 -16.5 35.5t-16.5 57.5q0 44 28 71t75 28z"/>
<glyph glyph-name="uniEFED" horiz-adv-x="380" unicode="" d="M191 712q-28 0 -46.5 16t-19.5 45q0 29 19 48t47 19q27 0 45 -18t18 -43q0 -30 -18 -48.5t-45 -18.5z"/>
<glyph glyph-name="uniEFEE" horiz-adv-x="380" unicode="" d="M190 720q-65 0 -99.5 34t-34.5 96v13q6 3 15 3q8 0 14 -3q8 -32 38 -52t67 -20t67 20t38 52q6 3 14 3q9 0 15 -3v-13q0 -62 -34.5 -96t-99.5 -34z"/>
<glyph glyph-name="uniEFF1" horiz-adv-x="380" unicode="" d="M224 10h44q-91 -75 -91 -137q0 -23 15 -38t39 -15q27 0 45 14q9 -3 9 -18q-32 -49 -95 -49q-48 0 -69 23.5t-21 57.5q0 79 124 162z"/>
<glyph glyph-name="uniEFF2" horiz-adv-x="380" unicode="" d="M217 0h53l-38 -52q-6 -8 -4 -11.5t13 -9.5q61 -33 61 -85q0 -40 -38 -66.5t-89 -26.5q-77 0 -77 44q0 14 9 23.5t23 9.5q15 0 36.5 -18.5t31.5 -18.5q9 0 17.5 7t8.5 18q0 40 -76 72l-3 8z"/>
<glyph glyph-name="uniEFF3" horiz-adv-x="380" unicode="" d="M190 727q21 0 33 17.5t12 43.5t-12 44t-33 19q-21 -1 -33 -19t-12 -44t12 -43.5t33 -17.5zM190 689q-46 0 -74.5 29.5t-28.5 69.5q0 39 28.5 68.5t74.5 29.5t74.5 -29.5t28.5 -68.5q0 -40 -28.5 -69.5t-74.5 -29.5z"/>
<glyph glyph-name="uniEFF5" horiz-adv-x="380" unicode="" d="M227 746h-49q-35 0 -53.5 -11.5t-36.5 -42.5q-6 -2 -12 -2q-16 0 -21 8q15 59 43 92q24 28 64 28h59q27 0 43.5 9t27.5 38q4 1 12 1q16 0 21 -6q-11 -52 -35 -86q-20 -28 -63 -28z"/>
<glyph glyph-name="uniEFF7" horiz-adv-x="380" unicode="" d="M323 706l-121 50q-10 5 -18 5l-15 -4l-120 -51q-5 0 -10 5.5t-5 12.5q0 4 1 6l127 119q10 10 23 10q14 0 24 -10l127 -119q1 -2 1 -5q0 -6 -4.5 -12t-9.5 -7z"/>
<glyph glyph-name="uniF628" horiz-adv-x="1190" unicode="" d="M146 378q0 -132 60 -132q55 0 55 132q0 130 -55 130q-57 0 -60 -130zM204 212q-72 0 -114 46.5t-42 118.5q0 62 39 113.5t117 51.5t117 -51.5t39 -113.5q0 -61 -39 -113t-117 -52zM266 -36q-1 0 -3.5 -0.5t-3.5 -0.5q-26 0 -35 21q205 333 346 570h5q11 0 23 -6t15 -15 q-181 -290 -347 -569zM581 154q0 -132 59 -132q55 0 55 132q0 130 -55 130q-59 0 -59 -130zM638 -12q-78 0 -117 51.5t-39 113.5t39 113.5t117 51.5t117 -51.5t39 -113.5t-39 -113.5t-117 -51.5zM929 154q0 -132 59 -132q55 0 55 132q0 130 -55 130q-59 0 -59 -130zM986 -12 q-78 0 -117 51.5t-39 113.5t39 113.5t117 51.5t117 -51.5t39 -113.5t-39 -113.5t-117 -51.5z"/>
<glyph glyph-name="uniF629" horiz-adv-x="400" unicode="" d="M285 317l-41 -239q12 -3 25 -3q28 0 54 15.5t38 37.5q8 1 15 -4t7 -12q-46 -89 -149 -92l-13 -77q-5 -8 -19 -8q-15 0 -19 8l13 78q-72 8 -115 52.5t-43 109.5q0 87 63 135.5t153 49.5l11 62q7 7 19 7q13 0 20 -7l-11 -64q35 -3 58 -11q20 -15 20 -46q0 -16 -7.5 -28 t-16.5 -12q-5 0 -11 3l-15 15t-18.5 18t-16.5 14q-1 0 -1 -2zM208 91l40 239q-1 1 -7 1q-44 0 -66 -39t-22 -86q0 -84 55 -115z"/>
<glyph glyph-name="uniF62A" horiz-adv-x="400" unicode="" d="M246 350l-16 -104l7 -2q127 -37 127 -123q0 -56 -46 -87.5t-127 -33.5l-10 -62q-3 -5 -19 -5t-19 5l10 65q-31 3 -58 11.5t-36 16.5q-23 31 -23 106q3 9 17 9q9 0 14 -5q8 -32 31.5 -60.5t60.5 -38.5l19 121q-127 34 -127 112q0 54 42.5 85t120.5 33l7 47q3 7 19 7t20 -7 l-7 -49q15 -1 41 -6.5t39 -6.5q12 -30 12 -89v-11q-3 -7 -14 -7t-15 6q-4 18 -22 40.5t-48 32.5zM193 258l15 98q-72 -1 -72 -50q0 -31 57 -48zM215 152l-18 -114q33 0 52.5 15t19.5 39q0 40 -54 60z"/>
<glyph glyph-name="uniF62B" horiz-adv-x="280" unicode="" d="M245 168h-209q-11 8 -11 33t11 31h209q11 -6 11 -31q0 -24 -11 -33z"/>
<glyph glyph-name="uniF62C" horiz-adv-x="240" unicode="" d="M36 193q0 85 45 154t125 106q6 -1 10.5 -5.5t4.5 -10.5q0 -1 -0.5 -2t-0.5 -2q-87 -99 -87 -240t87 -240q0 -1 0.5 -2t0.5 -2q0 -6 -4.5 -10.5t-10.5 -5.5q-80 37 -125 106t-45 154z"/>
<glyph glyph-name="uniF62D" horiz-adv-x="240" unicode="" d="M204 193q0 -85 -45 -154t-125 -106q-6 1 -10.5 5.5t-4.5 10.5q0 1 0.5 2t0.5 2q87 99 87 240t-87 240q0 1 -0.5 2t-0.5 2q0 6 4.5 10.5t10.5 5.5q80 -37 125 -106t45 -154z"/>
<glyph glyph-name="uniF62E" horiz-adv-x="400" unicode="" d="M285 564l-41 -239q12 -3 25 -3q28 0 54 15.5t38 37.5q8 1 15 -4t7 -12q-46 -89 -149 -92l-13 -77q-5 -8 -19 -8q-15 0 -19 8l13 78q-72 8 -115 52.5t-43 109.5q0 87 63 135.5t153 49.5l11 62q7 7 19 7q13 0 20 -7l-11 -64q35 -3 58 -11q20 -15 20 -46q0 -16 -7.5 -28 t-16.5 -12q-5 0 -11 3l-15 15t-18.5 18t-16.5 14q-1 0 -1 -2zM208 338l40 239q-1 1 -7 1q-44 0 -66 -39t-22 -86q0 -84 55 -115z"/>
<glyph glyph-name="uniF62F" horiz-adv-x="400" unicode="" d="M246 597l-16 -104l7 -2q127 -37 127 -123q0 -56 -46 -87.5t-127 -33.5l-10 -62q-3 -5 -19 -5t-19 5l10 65q-31 3 -58 11.5t-36 16.5q-23 31 -23 106q3 9 17 9q9 0 14 -5q8 -32 31.5 -60.5t60.5 -38.5l19 121q-127 34 -127 112q0 54 42.5 85t120.5 33l7 47q3 7 19 7t20 -7 l-7 -49q15 -1 41 -6.5t39 -6.5q12 -30 12 -89v-11q-3 -7 -14 -7t-15 6q-4 18 -22 40.5t-48 32.5zM193 505l15 98q-72 -1 -72 -50q0 -31 57 -48zM215 399l-18 -114q33 0 52.5 15t19.5 39q0 40 -54 60z"/>
<glyph glyph-name="uniF630" horiz-adv-x="280" unicode="" d="M245 415h-209q-11 8 -11 33q0 26 11 31h209q11 -6 11 -31q0 -24 -11 -33z"/>
<glyph glyph-name="uniF631" horiz-adv-x="240" unicode="" d="M36 440q0 85 45 154t125 106q6 -1 10.5 -5.5t4.5 -10.5l-1 -2v-2q-87 -99 -87 -240t87 -240v-2l1 -2q0 -6 -4.5 -10.5t-10.5 -5.5q-80 37 -125 106t-45 154z"/>
<glyph glyph-name="uniF632" horiz-adv-x="240" unicode="" d="M204 440q0 -85 -45 -154t-125 -106q-6 1 -10.5 5.5t-4.5 10.5l1 2v2q87 99 87 240t-87 240v2l-1 2q0 6 4.5 10.5t10.5 5.5q80 -37 125 -106t45 -154z"/>
<glyph glyph-name="uniF633" horiz-adv-x="769" unicode="" d="M379 274q29 27 65 83t45 85q-10 25 -30 25q-14 0 -49 -31q-38 -34 -69.5 -95t-31.5 -91q0 -14 10 -14q19 0 60 38zM441 676q136 0 214.5 -78.5t78.5 -191.5q0 -101 -71 -165.5t-194 -64.5q-26 0 -42.5 5.5t-20.5 11.5t-4 11q0 7 9 32l21 55l-2 1q-38 -46 -93.5 -81 t-87.5 -35q-21 0 -32.5 13t-11.5 31q0 19 19 63t57 93q40 50 93 87t104 37q26 0 34 -16l24 45q10 2 16 2q34 0 53 -14q-5 -14 -55.5 -131.5t-57.5 -135.5q-5 -15 -5 -21q0 -13 19 -13q66 0 120.5 52t54.5 136q0 101 -69 164t-171 63q-134 0 -220 -99.5t-86 -235.5 q0 -35 8 -69.5t28 -71t50.5 -63.5t80 -44.5t112.5 -17.5q73 0 154 33q12 -5 12 -22q0 -5 -3 -10q-84 -46 -195 -46q-68 0 -128 19.5t-108.5 56.5t-77 98t-28.5 138q0 169 118 274t283 105z"/>
<glyph glyph-name="uniF634" horiz-adv-x="250" unicode="" d="M114 -55q35 0 61.5 -25.5t26.5 -76.5q0 -60 -37.5 -96.5t-98.5 -48.5q-13 1 -13 21q0 9 4 12q26 10 48.5 31.5t22.5 44.5q0 37 -46 48q-25 8 -25 39q0 21 17 36t40 15z"/>
<glyph glyph-name="uniF637" horiz-adv-x="440" unicode="" d="M172 676v-93q0 -12 3 -12q1 0 13 6q51 31 92 31q43 0 68.5 -25.5t25.5 -62.5v-122q0 -37 5 -47t27 -11l13 -1q4 -3 4 -12q0 -11 -5 -13q-50 2 -99 2q-42 0 -78 -2q-6 3 -6 12.5t5 12.5l15 2q7 2 9.5 10.5t2.5 35.5v122q0 20 -13 34t-37 14q-23 0 -39 -16q-6 -7 -6 -28 v-126q0 -27 2.5 -35.5t9.5 -10.5l15 -2q4 -3 3.5 -12.5t-4.5 -12.5q-52 2 -82 2q-39 0 -95 -2q-5 2 -5 13q0 9 4 12l15 1q20 1 25 11t5 47v269q0 23 -2.5 31.5t-12.5 13.5l-14 7q-4 4 -4 12.5t4 12.5q39 8 125 39q8 0 13 -5q-2 -29 -2 -102z"/>
<glyph glyph-name="uniF638" d="M345 439l-160 -312q26 -95 75 -95q28 0 48.5 30t29.5 78.5t12.5 90t3.5 82.5q0 68 -9 126zM174 205l157 309q-25 80 -71 80q-25 0 -44.5 -30.5t-29.5 -76t-15 -88t-5 -76.5q0 -16 1.5 -34t3.5 -42.5t3 -41.5zM382 598l31 58l41 -24l-38 -70q75 -91 75 -249 q0 -85 -23 -156.5t-77 -121t-131 -49.5t-131 48l-32 -60l-38 28l37 69q-67 92 -67 242q0 82 23 154t77 122.5t131 50.5q69 0 122 -42z" unicode=""/>
<glyph glyph-name="uniF639" d="M175 313q0 -42 3 -82.5t11 -89.5t26 -79t45 -30t45 30t26 79t11 89.5t3 82.5t-3 82.5t-11 89.5t-26 79t-45 30t-45 -30t-26 -79t-11 -89.5t-3 -82.5zM260 640q77 0 131 -50.5t77 -122.5t23 -154q0 -85 -23 -156.5t-77 -121t-131 -49.5t-131 49.5t-77 121t-23 156.5 q0 82 23 154t77 122.5t131 50.5z" unicode=""/>
<glyph glyph-name="uniF63A" d="M221 103h121q57 0 75 8t39 47q5 5 15 5q16 0 19 -11q-7 -45 -21.5 -90.5t-27.5 -64.5q-60 3 -140 3h-159q-86 0 -112 -3q-11 3 -11 17q0 1 0.5 2.5t0.5 2.5q92 85 155 154q62 68 96.5 131t34.5 136q0 53 -30 87.5t-79 34.5q-75 0 -129 -92q-8 -4 -12 -4q-19 0 -21 18 q30 74 92.5 115t137.5 41q86 0 137.5 -48.5t51.5 -121.5q0 -60 -31.5 -112t-119.5 -135l-48 -45q-53 -49 -53 -63q0 -12 19 -12z" unicode=""/>
<glyph glyph-name="uniF63B" d="M213 577q-68 0 -123 -83q-2 -1 -6 -1q-9 0 -15.5 6t-6.5 14q30 60 85.5 93.5t123.5 33.5q73 0 116 -32t43 -83q0 -36 -25.5 -66.5t-100.5 -62.5q-12 -6 -1 -11q4 -2 10 -2h6q67 0 114.5 -43t47.5 -112q0 -119 -115 -204q-111 -80 -231 -80q-45 0 -76.5 17.5t-31.5 53.5 q0 22 16 38.5t44 16.5q7 0 14 -2t13.5 -6.5t11 -8.5t9.5 -10t8 -9.5t6.5 -9.5t4.5 -7q15 -23 43 -23q41 0 87.5 48.5t46.5 131.5q0 67 -32 110t-85 43t-99 -42q-11 2 -18.5 11.5t-7.5 21.5q0 8 3 15q115 43 161 81q42 35 42 90q0 29 -23 51t-59 22z" unicode=""/>
<glyph glyph-name="uniF63C" d="M277 129v28q0 20 -3.5 24.5t-19.5 4.5h-231q-13 6 -13 21q0 3 2 11l325 464q17 24 33 24h29q18 0 18 -10q0 -8 -8 -17l-300 -416q-5 -8 -5 -12q0 -9 27 -9h123q16 0 19.5 4.5t3.5 24.5v140q0 28 22 36q73 31 97 31q13 0 13 -17v-190q0 -20 3.5 -24.5t19.5 -4.5h66 q11 -6 11 -28t-11 -28h-66q-16 0 -19.5 -4.5t-3.5 -24.5v-28q0 -61 8.5 -76.5t41.5 -18.5l21 -2q6 -4 6 -17q0 -15 -8 -18q-54 3 -135 3q-109 0 -160 -3q-8 3 -8 18q0 13 6 17l41 3q37 3 46 18t9 76z" unicode=""/>
<glyph glyph-name="uniF63D" d="M165 622l265 32q11 0 11 -12q-15 -65 -55 -103l-226 -25q-17 -2 -23 -29l-6 -23q-1 -4 -1 -10q0 -16 28 -19q137 -16 204 -49q46 -23 76 -66t30 -101q0 -138 -144 -216q-115 -62 -271 -66q-14 6 -14 28q0 13 8 19q134 6 200 45q93 55 93 135q0 41 -17.5 71.5t-40.5 46.5 t-62 27t-64.5 14.5t-65.5 6.5q-32 3 -32 19q0 3 2 15l60 230q5 18 12 22.5t33 7.5z" unicode=""/>
<glyph glyph-name="uniF63E" d="M29 254q0 84 35 164t96 138q59 57 144.5 95t173.5 42q9 -5 9 -18q0 -9 -6 -17q-87 -21 -136.5 -53t-94.5 -87q-75 -93 -75 -255q0 -89 29 -160t81 -71q41 0 58.5 34.5t17.5 78.5q0 39 -10 80t-37 75.5t-67 34.5q-6 1 -23 -1q-9 6 -7 18q14 16 44.5 30t55.5 14 q88 0 134 -55t46 -134q0 -99 -62.5 -160t-166.5 -61q-112 0 -175.5 74t-63.5 194z" unicode=""/>
<glyph glyph-name="uniF63F" d="M169 626h192q125 0 145 3q11 -3 9 -16q-33 -49 -99 -165l-288 -510h-6q-14 0 -27.5 8.5t-14.5 22.5l263 457q33 58 33 79q0 16 -29 16h-212q-43 0 -58 -8.5t-33 -40.5q-5 -5 -13 -5q-16 0 -21 12q11 32 39 150q50 -3 120 -3z" unicode=""/>
<glyph glyph-name="uniF640" d="M265 594q-35 0 -58 -26.5t-23 -66.5q0 -74 116 -124q48 29 48 109q0 49 -25.5 78.5t-57.5 29.5zM271 32q35 0 59 25.5t24 68.5q0 55 -34.5 91.5t-103.5 68.5q-51 -51 -51 -127q0 -54 29 -90.5t77 -36.5zM255 -14q-93 0 -156 42t-63 120q0 99 132 166q-106 58 -106 154 q0 75 56.5 123.5t148.5 48.5q86 0 139.5 -42.5t53.5 -113.5q0 -48 -29 -78.5t-80 -59.5q134 -68 134 -187q0 -75 -59 -124t-171 -49z" unicode=""/>
<glyph glyph-name="uniF641" d="M250 640q111 0 174.5 -74t63.5 -183q0 -177 -138 -304q-61 -57 -148.5 -97t-151.5 -42q-10 4 -10 18q0 10 6 15q141 35 218.5 145.5t77.5 254.5q0 32 -5 67t-16 71.5t-33 59.5t-52 23q-34 0 -54 -34.5t-20 -82.5q0 -67 26.5 -119t74.5 -61q13 -2 28 -2q8 -5 6 -21 q-29 -31 -99 -31q-71 0 -120.5 51.5t-49.5 126.5q0 95 64 157t158 62z" unicode=""/>
<glyph glyph-name="uniF642" horiz-adv-x="842" unicode="" d="M266 -36q-1 0 -3.5 -0.5t-3.5 -0.5q-26 0 -35 21q205 333 346 570h5q11 0 23 -6t15 -15q-181 -290 -347 -569zM146 378q0 -132 60 -132q55 0 55 132q0 130 -55 130q-57 0 -60 -130zM204 212q-72 0 -114 46.5t-42 118.5q0 62 39 113.5t117 51.5t117 -51.5t39 -113.5 q0 -61 -39 -113t-117 -52zM581 154q0 -132 59 -132q55 0 55 132q0 130 -55 130q-59 0 -59 -130zM638 -12q-78 0 -117 51.5t-39 113.5t39 113.5t117 51.5t117 -51.5t39 -113.5t-39 -113.5t-117 -51.5z"/>
<glyph glyph-name="uniF643" horiz-adv-x="510" unicode="" d="M255 368q-53 0 -82.5 -41.5t-29.5 -112.5q0 -72 32 -113t80 -41t80 40t32 114q0 69 -32.5 111.5t-79.5 42.5zM255 442q96 0 159 -65.5t63 -162.5q0 -99 -60 -163.5t-162 -64.5q-98 0 -160 64t-62 164q0 98 62.5 163t159.5 65z"/>
<glyph glyph-name="uniF644" horiz-adv-x="510" unicode="" d="M189 129v170q0 56 -11.5 73t-54.5 22l-31 4q-6 4 -6 16q0 14 8 17q78 -3 159 -3q110 0 161 3q8 -3 8 -17q0 -12 -6 -16l-31 -4q-43 -5 -54.5 -22t-11.5 -73v-170q0 -56 11.5 -72.5t54.5 -21.5l41 -5q6 -4 6 -16q0 -14 -8 -17q-56 3 -171 3q-113 0 -169 -3q-8 3 -8 17 q0 12 6 16l41 4q43 4 54.5 21.5t11.5 73.5z"/>
<glyph glyph-name="uniF645" horiz-adv-x="510" unicode="" d="M257 91h82q55 0 83 9t49 45q6 3 12 3q14 0 22 -10q-13 -27 -34 -77t-28 -64q-78 3 -124 3h-156q-85 0 -110 -3q-13 7 -7 23q53 32 129 104q75 71 75 147q0 41 -20.5 64.5t-55.5 23.5q-58 0 -105 -81q-2 -1 -6 -1q-9 0 -16 6.5t-8 15.5q30 67 82.5 105t117.5 38 q73 0 114.5 -38t41.5 -99q0 -25 -9 -47.5t-29.5 -45.5t-35.5 -37t-44.5 -38.5t-40.5 -33.5q1 -12 21 -12z"/>
<glyph glyph-name="uniF646" horiz-adv-x="510" unicode="" d="M284 17q0 80 -43 116q-20 15 -43 15q-27 0 -65 -32h-2q-9 0 -15.5 10t-6.5 23q0 7 3 15q28 11 42 17.5t38 20.5t36 27t22 33t10 44q0 26 -16 44.5t-42 18.5q-42 0 -85 -68q-2 -1 -6 -1q-10 0 -17.5 7.5t-7.5 18.5q26 50 70.5 83t105.5 33t98 -31t37 -82q0 -58 -84 -99 q-14 -6 -14 -15q0 -6 17 -11q48 -12 74.5 -47.5t26.5 -82.5q0 -110 -112 -192q-43 -32 -93 -51t-86 -19q-23 0 -35.5 14.5t-12.5 32.5q0 31 24 31q4 0 29.5 -5t43.5 -5q109 0 109 137z"/>
<glyph glyph-name="uniF647" horiz-adv-x="510" unicode="" d="M133 73h112q16 0 19 3.5t3 24.5v172h-2l-144 -182q-5 -6 -1.5 -12t13.5 -6zM489 13h-80q-17 0 -20 -4.5t-3 -26.5v-159q-6 -9 -63 -9q-49 0 -56 9v159q0 22 -3 26.5t-19 4.5h-223q-11 8 -11 25q0 1 0.5 3t0.5 3l61 71q18 20 136 166t127 157q20 4 22 4q18 0 28 -19v-322 q0 -21 3 -24.5t20 -3.5h84q11 -8 11 -24q0 -29 -15 -36z"/>
<glyph glyph-name="uniF648" horiz-adv-x="510" unicode="" d="M331 323l-135 -14q-27 -3 -35.5 -7t-8.5 -13q0 -17 70 -47q158 -68 158 -193q0 -43 -19 -81.5t-47.5 -65t-67 -47.5t-74 -33.5t-70.5 -19.5q-17 3 -17 22q0 8 5 13q27 9 52 21t55.5 32.5t48.5 50.5t18 65q0 75 -103 128q-74 40 -74 93q0 42 31.5 107t57.5 74q19 7 65 12 l104 11q39 3 55 14q7 0 12 -4t4 -9q-33 -103 -85 -109z"/>
<glyph glyph-name="uniF649" horiz-adv-x="510" unicode="" d="M508 639q6 -3 6 -17q0 -8 -2 -10q-47 -20 -66.5 -28.5t-60 -32.5t-71.5 -52q-134 -118 -134 -301q0 -75 27.5 -120.5t69.5 -45.5q32 0 52.5 25t20.5 80q0 66 -26 114t-72 48q-4 0 -14 -2q-9 5 -9 17q0 7 4 11q53 34 105 34q62 0 102.5 -45.5t40.5 -117.5q0 -96 -66 -153 t-160 -57q-102 0 -159 60t-57 164q0 91 41.5 170.5t109 133t150.5 86.5t168 39z"/>
<glyph glyph-name="uniF64A" horiz-adv-x="510" unicode="" d="M173 428h175h61q75 0 85 3q9 -4 7 -16q-37 -50 -137 -221l-232 -391q-2 -1 -5 -1h-8q-12 0 -24 8.5t-16 20.5l247 410q29 48 29 68q0 15 -27 15h-170q-47 0 -66 -11t-41 -47q-2 -1 -7 -1q-7 0 -14 5t-9 11q31 64 51 150q32 -3 101 -3z"/>
<glyph glyph-name="uniF64B" horiz-adv-x="510" unicode="" d="M335 477q0 41 -20.5 69.5t-55.5 28.5q-31 0 -52 -24t-21 -63q0 -75 108 -131q41 46 41 120zM227 258q-50 -45 -50 -122q0 -45 23 -74.5t56 -29.5q31 0 50.5 22t19.5 60q0 87 -99 144zM261 621q88 0 138 -41.5t50 -114.5q0 -85 -109 -144q111 -73 111 -172 q0 -72 -52.5 -117.5t-151.5 -45.5q-81 0 -135 39t-54 113q0 94 114 159q-105 62 -105 154q0 73 53.5 121.5t140.5 48.5z"/>
<glyph glyph-name="uniF64C" horiz-adv-x="510" unicode="" d="M41 -198q-8 5 -8 18q0 8 3 12q93 25 145 69q145 121 145 336q0 72 -22.5 115.5t-56.5 43.5t-53.5 -31.5t-19.5 -82.5q0 -41 14 -79.5t42 -56.5q12 -8 27 -8q2 0 6.5 0.5t6.5 0.5q9 -9 3 -26q-43 -26 -80 -26q-71 0 -113 42.5t-42 110.5q0 89 63.5 145.5t157.5 56.5 q100 0 153 -61t53 -163q0 -83 -34 -163.5t-105 -142.5q-116 -100 -285 -110z"/>
<glyph glyph-name="uniF64D" horiz-adv-x="510" unicode="" d="M438 564l-13 -56q21 -7 43 -9q2 -6 7.5 -46.5t9.5 -55.5q-9 -6 -18 -6q-10 0 -13 6q-22 45 -41 59l-103 -417q58 0 94 21t64 63q7 5 13 5q12 0 15 -9q-7 -47 -33 -96q-70 -28 -143 -28q-13 0 -19 1l-14 -54q-8 -4 -19 -4q-10 0 -18 4l14 57q-28 4 -48 10l-15 -67 q-8 -4 -19 -4t-19 4l19 76q-158 62 -158 238q0 113 79 184.5t202 77.5l11 46q8 4 18 4t18 -4l-11 -46q21 0 49 -4l13 50q6 4 17 4q12 0 18 -4zM332 480l-102 -415q20 -14 44 -20l107 429q-21 4 -49 6zM201 93l94 385q-52 -11 -94 -70t-42 -157q0 -103 42 -158z"/>
<glyph glyph-name="uniF64E" horiz-adv-x="510" unicode="" d="M49 333h34q25 90 97 144.5t168 54.5q50 0 104 -13q18 -4 23 -5q1 -5 2.5 -25.5t3.5 -45.5t6 -47q-4 -10 -19 -10q-7 0 -13 4q-30 95 -114 95q-47 0 -80.5 -38.5t-42.5 -113.5h250q3 -7 3 -17q0 -24 -12 -28h-245q-1 -3 -1 -20q0 -27 1 -32h226q3 -3 3 -12q0 -28 -12 -33 h-213q8 -76 41.5 -116t85.5 -40q30 0 56 16t38.5 31t30.5 42q6 4 11 4q15 0 19 -15q-17 -76 -40 -108q-6 -1 -17.5 -4t-16.5 -4q-42 -11 -93 -11q-111 0 -175.5 54.5t-79.5 150.5h-54q-4 1 -4 9q0 9 5 21t9 15h40v12q0 22 2 40h-37q-5 3 -5 12t4.5 20t10.5 13z"/>
<glyph glyph-name="uniF64F" horiz-adv-x="510" unicode="" d="M67 352h80q12 64 40 114q26 45 80.5 82.5t126.5 37.5q40 0 61 -14.5t21 -35.5q0 -24 -17.5 -44t-38.5 -20q-15 0 -26 16q-30 43 -51 43q-11 0 -27 -51t-29 -128h108q5 -3 5 -14q0 -24 -15 -31h-107q-16 -77 -23 -119q-20 -116 -49.5 -173t-74.5 -92q-57 -45 -124 -45 q-31 0 -48.5 19.5t-17.5 54.5q0 19 7 33t16 14q15 0 30 -17q52 -44 63 -44t18.5 21t16.5 82q1 8 47 266h-82q-3 3 -3 13q0 28 13 32z"/>
<glyph glyph-name="uniF650" horiz-adv-x="510" unicode="" d="M482 326h-99l-40 -147h88l-11 -64h-94l-50 -182h-60l48 182h-97l-50 -182h-59l48 182h-98l11 64h104l39 147h-99l12 65h104l43 163h64l-44 -163h95l43 163h65l-44 -163h90zM320 326h-96l-40 -147h97z"/>
<glyph glyph-name="uniF651" horiz-adv-x="510" unicode="" d="M275 287h120q4 -7 4 -17q0 -19 -14 -28h-109q-13 0 -16.5 -2t-3.5 -10q0 -45 -24.5 -72.5t-71.5 -48.5l1 -2q16 2 25 2q13 0 37 -3q35 -5 89 -32q51 -24 81 -24q21 0 21 17q0 11 -8 27q-4 8 -4 17q0 14 10 24t21 10q17 0 31 -14t14 -38q0 -50 -43.5 -91.5t-100.5 -41.5 q-53 0 -114 36q-70 40 -98 40h-2q-15 0 -23 -10t-10 -22q-2 -7 -28.5 -14.5t-36.5 -7.5q-18 0 -18 19q0 22 45 56q66 49 66 175q0 4 -0.5 5.5t-1.5 2t-5 1t-8 1.5h-78q-4 3 -4 15q0 20 14 30h67q10 0 12 1t1 6v24q0 96 62.5 155t158.5 59q51 0 72 -21q11 -9 11 -28 q0 -22 -12 -38.5t-20 -16.5q-9 0 -22 8q-40 41 -70 41q-9 0 -18 -9t-16.5 -32.5t-7.5 -56.5q0 -41 6 -80q1 -8 3.5 -10t15.5 -2z"/>
<glyph glyph-name="uniF652" horiz-adv-x="510" unicode="" d="M432 154h-121v-48q0 -36 6.5 -50t30.5 -20l28 -7q7 -1 7 -14q0 -15 -9 -17q-66 2 -149 2q-29 0 -109 -2q-5 2 -5 15q0 12 4 16l23 5q22 5 30.5 19.5t8.5 52.5v48h-121q-4 3 -4 22q0 20 4 23h119v67h-119q-4 3 -4 22t4 22h107l-80 117q-35 53 -68 59l-20 4q-3 3 -3 14 q0 14 6 17q35 -3 125 -3q85 0 127 3q6 -1 6 -14q0 -15 -5 -17l-21 -6q-18 -3 -18 -13q0 -16 24 -52l33 -50q13 -21 19 -21t16 17l42 73q13 22 13 36q0 5 -19 10l-10 5q-3 3 -3 14q0 15 6 18q25 -3 85 -3q34 0 68 3q5 -3 5 -16q0 -10 -3 -16l-17 -6q-45 -17 -76 -64l-72 -109 h109q4 -8 4 -25q0 -16 -4 -19h-119v-67h119q4 -3 4 -23q0 -19 -4 -22z"/>
<glyph glyph-name="uniF653" horiz-adv-x="510" unicode="" d="M307 394l-19 -121l11 -3q152 -41 152 -144q0 -64 -54.5 -100.5t-153.5 -38.5l-11 -72q-4 -5 -22 -5q-20 0 -22 5l12 73q-65 5 -115 33q-27 24 -27 128q6 8 19 8q11 0 15 -7q12 -39 41.5 -72t73.5 -44l22 143l-5 1q-66 13 -106.5 45.5t-40.5 84.5q0 62 50.5 97.5 t142.5 36.5l9 56q3 8 22 8t22 -8l-9 -58q21 -2 57 -10t39 -9q18 -34 18 -110v-8q-5 -8 -17 -8t-17 7q-24 76 -87 92zM271 164l-21 -134q39 2 63 18.5t24 44.5q0 49 -66 71zM246 285l17 113q-84 -1 -84 -57q0 -36 67 -56z"/>
<glyph glyph-name="uniF654" horiz-adv-x="510" unicode="" d="M344 343l-37 -265q12 -2 22 -2q30 0 58 17t42 44q23 0 23 -16q-44 -97 -153 -102l-12 -84q-7 -7 -22 -7t-21 7l12 85q-79 7 -126 55t-47 119q0 93 65 145t160 54l9 66q5 5 20 5t23 -5l-9 -67q44 -4 69 -12q21 -18 21 -50q0 -17 -8.5 -30t-17.5 -13q-7 0 -11 4 q-42 42 -60 52zM266 93l36 261q-50 -1 -73 -44t-23 -95q0 -89 60 -122z"/>
<glyph glyph-name="uniF655" horiz-adv-x="400" unicode="" d="M200 359q-29 0 -40.5 -53t-11.5 -113q0 -59 11.5 -112.5t40.5 -53.5q16 0 27 18t16.5 46t7.5 53t2 49q0 25 -2 50t-7.5 53t-16.5 45.5t-27 17.5zM200 393q81 0 123.5 -60t42.5 -140q0 -81 -42.5 -140.5t-123.5 -59.5t-123 59.5t-42 140.5q0 80 42.5 140t122.5 60z"/>
<glyph glyph-name="uniF656" horiz-adv-x="400" unicode="" d="M150 97v160q0 29 -5.5 40t-26.5 14l-31 4q-6 3 -6 14t6 14q99 13 167 50q10 0 12 -8q-3 -51 -3 -88v-200v-9q0 -35 4.5 -45.5t25.5 -13.5l30 -4q4 -4 4 -12q0 -12 -6 -15q-74 2 -115 2q-40 0 -114 -2q-6 3 -6 15q0 8 4 12l30 4q21 3 25.5 13.5t4.5 45.5v9z"/>
<glyph glyph-name="uniF657" horiz-adv-x="400" unicode="" d="M210 0h-96q-43 0 -65 -2q-8 5 -8 14q0 1 1 3v2q50 39 101 91q75 79 75 158q0 31 -16 50t-43 19q-48 0 -81 -59q-3 -3 -9 -3q-7 0 -13 5.5t-6 14.5q25 49 66.5 74.5t88.5 25.5q64 0 99.5 -31t35.5 -81q0 -72 -98 -145l-31 -23l-25 -21q-7 -7 -4.5 -12t12.5 -5h62 q38 0 55 6t29 28q14 5 23 -4q-12 -65 -39 -107q-54 2 -114 2z"/>
<glyph glyph-name="uniF658" horiz-adv-x="400" unicode="" d="M116 -39q-29 0 -52.5 13.5t-23.5 39.5q0 15 10.5 28t32.5 13q6 0 11.5 -2t9.5 -5t9 -7.5t7 -7.5t5.5 -8.5t4.5 -6.5q11 -17 29 -17h1q26 0 50 27.5t24 77.5q0 38 -18 61t-47 23q-39 0 -67 -25q-20 5 -20 24q0 6 4 12q25 9 38 15t38 19.5t37 30t12 35.5q0 18 -12 29 t-33 11q-41 0 -74 -50q-2 -1 -7 -1q-8 0 -13.5 5.5t-4.5 12.5q21 40 59.5 62.5t82.5 22.5q48 0 78.5 -21t30.5 -53q0 -24 -16 -42t-61 -36q-9 -4 3 -8q2 -1 5 -1q45 -5 75 -28.5t30 -69.5q0 -74 -83 -126q-74 -47 -155 -47z"/>
<glyph glyph-name="uniF659" horiz-adv-x="400" unicode="" d="M200 76v14q0 13 -2 15.5t-13 2.5h-153q-8 5 -8 16q0 1 0.5 3.5t0.5 3.5l216 283q10 12 20 12h29q5 0 7.5 -3t1.5 -8t-6 -11l-196 -247q-1 -10 15 -11h73q10 0 12.5 3t2.5 14v75q0 17 18 22q60 18 82 18q11 0 11 -10v-105q0 -11 2.5 -14t12.5 -3h44q8 -3 8 -18 q0 -16 -8 -20h-44q-11 0 -13 -2.5t-2 -15.5v-14q0 -30 5.5 -39t30.5 -11l13 -1q5 -4 5 -13.5t-6 -13.5q-78 2 -112 2q-48 0 -106 -2q-6 3 -6.5 13t4.5 14l20 1q30 1 35.5 9t5.5 41z"/>
<glyph glyph-name="uniF65A" horiz-adv-x="400" unicode="" d="M135 377l183 19q6 -1 7 -10q-10 -50 -41 -72l-140 -16q-15 -2 -16 -10l-2 -6q-2 -7 3 -11t16 -6q37 -5 64.5 -12t61 -22t52 -41.5t18.5 -62.5q0 -55 -45.5 -94t-106 -54t-128.5 -16q-11 4 -11 19q0 11 7 18q28 0 56 4t58.5 13t49.5 29.5t19 49.5q0 74 -154 88 q-23 3 -23 17q0 2 2 14l40 143q3 10 9 13.5t21 5.5z"/>
<glyph glyph-name="uniF65B" horiz-adv-x="400" unicode="" d="M157 159q0 -55 16.5 -93.5t45.5 -38.5q42 0 42 64q0 40 -14 71.5t-38 37.5q-10 3 -28 1q-7 8 -4 20q26 26 71 26q55 0 87 -34.5t32 -82.5q0 -62 -44 -99.5t-118 -37.5q-81 0 -123.5 44.5t-42.5 122.5q0 100 82 176q37 35 97 57.5t129 22.5q6 -4 6 -13.5t-5 -13.5 q-95 -22 -144 -78q-47 -56 -47 -152z"/>
<glyph glyph-name="uniF65C" horiz-adv-x="400" unicode="" d="M144 386h124q78 0 95 2q5 -1 5 -11q-8 -14 -29 -45.5t-34 -53.5l-188 -310q-3 -1 -8 -1q-23 0 -33 26l160 256q19 31 19 46q0 9 -19 9h-108q-26 0 -41.5 -8t-24.5 -30q-3 -4 -9 -4q-17 0 -21 10q21 52 32 116q38 -2 80 -2z"/>
<glyph glyph-name="uniF65D" horiz-adv-x="400" unicode="" d="M230 235q28 25 28 59q0 29 -17.5 47t-39.5 18q-23 0 -38 -14t-15 -38q0 -41 82 -72zM169 165q-33 -27 -33 -67q0 -29 18.5 -50t48.5 -21q24 0 39 13.5t15 35.5q0 59 -88 89zM195 -7q-68 0 -110 25t-42 77q0 32 23 57.5t58 34.5q-68 37 -68 93q0 50 38 81.5t110 31.5 q65 0 101.5 -26t36.5 -75q0 -29 -20.5 -50t-45.5 -32q81 -43 81 -111q0 -46 -41.5 -76t-120.5 -30z"/>
<glyph glyph-name="uniF65E" horiz-adv-x="400" unicode="" d="M151 140q-51 0 -83.5 30t-32.5 80q0 64 44.5 103.5t112.5 39.5q82 0 125.5 -45.5t43.5 -117.5q0 -79 -45 -139.5t-112 -91t-145 -36.5q-11 3 -11 19q0 9 6 12q92 24 140.5 86t48.5 149q0 54 -13.5 92t-40.5 38q-23 0 -35.5 -20.5t-12.5 -53.5q0 -34 16 -66t41 -36h14 q5 -2 6.5 -9.5t-1.5 -11.5q-29 -22 -66 -22z"/>
<glyph glyph-name="uniF65F" horiz-adv-x="200" unicode="" d="M177 32q0 -59 -40 -97t-100 -52q-15 2 -15 16q0 8 6 11q29 11 52 32.5t23 50.5q0 39 -49 55q-11 3 -18.5 14t-7.5 25q0 23 18 38.5t43 15.5q33 0 60.5 -27.5t27.5 -81.5z"/>
<glyph glyph-name="uniF660" horiz-adv-x="200" unicode="" d="M100 -7q-26 0 -45.5 18.5t-19.5 47.5t18.5 48t46.5 19q29 0 47 -19.5t18 -47.5q0 -29 -18 -47.5t-47 -18.5z"/>
<glyph glyph-name="uniF661" horiz-adv-x="400" unicode="" d="M200 606q-29 0 -40.5 -53t-11.5 -113q0 -59 11.5 -112.5t40.5 -53.5q16 0 27 18t16.5 46t7.5 53t2 49q0 25 -2 50t-7.5 53t-16.5 45.5t-27 17.5zM200 640q81 0 123.5 -60t42.5 -140q0 -81 -42.5 -140.5t-123.5 -59.5t-123 59.5t-42 140.5q0 80 42.5 140t122.5 60z"/>
<glyph glyph-name="uniF662" horiz-adv-x="400" unicode="" d="M150 344v160q0 29 -5.5 40t-26.5 14l-31 4q-6 3 -6 14t6 14q99 13 167 50q10 0 12 -8q-3 -51 -3 -88v-200v-9q0 -35 4.5 -45.5t25.5 -13.5l30 -4q4 -4 4 -12q0 -12 -6 -15q-74 2 -115 2q-40 0 -114 -2q-6 3 -6 15q0 8 4 12l30 4q21 3 25.5 13.5t4.5 45.5v9z"/>
<glyph glyph-name="uniF663" horiz-adv-x="400" unicode="" d="M210 247h-96q-43 0 -65 -2q-8 5 -8 14q0 1 1 3v2q50 39 101 91q75 79 75 158q0 31 -16 50t-43 19q-48 0 -81 -59q-3 -3 -9 -3q-7 0 -13 5.5t-6 14.5q25 49 66.5 74.5t88.5 25.5q64 0 99.5 -31t35.5 -81q0 -72 -98 -145l-31 -23l-25 -21q-7 -7 -4.5 -12t12.5 -5h62 q38 0 55 6t29 28q14 5 23 -4q-12 -65 -39 -107q-54 2 -114 2z"/>
<glyph glyph-name="uniF664" horiz-adv-x="400" unicode="" d="M116 208q-29 0 -52.5 13.5t-23.5 39.5q0 15 10.5 28t32.5 13q6 0 11.5 -2t9.5 -5t9 -7.5t7 -7.5t5.5 -8.5t4.5 -6.5q11 -17 29 -17h1q26 0 50 27.5t24 77.5q0 38 -18 61t-47 23q-39 0 -67 -25q-20 5 -20 24q0 6 4 12q25 9 38 15t38 19.5t37 30t12 35.5q0 18 -12 29 t-33 11q-41 0 -74 -50q-2 -1 -7 -1q-8 0 -13.5 5.5t-4.5 12.5q21 40 59.5 62.5t82.5 22.5q48 0 78.5 -21t30.5 -53q0 -24 -16 -42t-61 -36q-9 -4 3 -8q2 -1 5 -1q45 -5 75 -28.5t30 -69.5q0 -74 -83 -126q-74 -47 -155 -47z"/>
<glyph glyph-name="uniF665" horiz-adv-x="400" unicode="" d="M200 323v14q0 13 -2 15.5t-13 2.5h-153q-8 5 -8 16q0 1 0.5 3.5t0.5 3.5l216 283q10 12 20 12h29q5 0 7.5 -3t1.5 -8t-6 -11l-196 -247q-1 -10 15 -11h73q10 0 12.5 3t2.5 14v75q0 17 18 22q60 18 82 18q11 0 11 -10v-105q0 -11 2.5 -14t12.5 -3h44q8 -3 8 -18 q0 -16 -8 -20h-44q-11 0 -13 -2.5t-2 -15.5v-14q0 -30 5.5 -39t30.5 -11l13 -1q5 -4 5 -13.5t-6 -13.5q-78 2 -112 2q-48 0 -106 -2q-6 3 -6.5 13t4.5 14l20 1q30 1 35.5 9t5.5 41z"/>
<glyph glyph-name="uniF666" horiz-adv-x="400" unicode="" d="M135 624l183 19q6 -1 7 -10q-10 -50 -41 -72l-140 -16q-15 -2 -16 -10l-2 -6q-2 -7 3 -11t16 -6q37 -5 64.5 -12t61 -22t52 -41.5t18.5 -62.5q0 -55 -45.5 -94t-106 -54t-128.5 -16q-11 4 -11 19q0 11 7 18q28 0 56 4t58.5 13t49.5 29.5t19 49.5q0 74 -154 88 q-23 3 -23 17q0 2 2 14l40 143q3 10 9 13.5t21 5.5z"/>
<glyph glyph-name="uniF667" horiz-adv-x="400" unicode="" d="M157 406q0 -55 16.5 -93.5t45.5 -38.5q42 0 42 64q0 40 -14 71.5t-38 37.5q-10 3 -28 1q-7 8 -4 20q26 26 71 26q55 0 87 -34.5t32 -82.5q0 -62 -44 -99.5t-118 -37.5q-81 0 -123.5 44.5t-42.5 122.5q0 100 82 176q37 35 97 57.5t129 22.5q6 -4 6 -13.5t-5 -13.5 q-95 -22 -144 -78q-47 -56 -47 -152z"/>
<glyph glyph-name="uniF668" horiz-adv-x="400" unicode="" d="M144 633h124q78 0 95 2q5 -1 5 -11q-8 -14 -29 -45.5t-34 -53.5l-188 -310q-3 -1 -8 -1q-23 0 -33 26l160 256q19 31 19 46q0 9 -19 9h-108q-26 0 -41.5 -8t-24.5 -30q-3 -4 -9 -4q-17 0 -21 10q21 52 32 116q38 -2 80 -2z"/>
<glyph glyph-name="uniF669" horiz-adv-x="400" unicode="" d="M230 482q28 24 28 59q0 29 -17.5 47t-39.5 18q-23 0 -38 -14t-15 -38q0 -41 82 -72zM169 412q-33 -27 -33 -67q0 -29 18.5 -50t48.5 -21q24 0 39 13.5t15 35.5q0 59 -88 89zM195 240q-68 0 -110 25t-42 77q0 32 23 57.5t58 34.5q-68 37 -68 93q0 50 38 81.5t110 31.5 q65 0 101.5 -26t36.5 -75q0 -29 -20.5 -50t-45.5 -32q81 -43 81 -111q0 -46 -41.5 -76t-120.5 -30z"/>
<glyph glyph-name="uniF66A" horiz-adv-x="400" unicode="" d="M151 387q-51 0 -83.5 30t-32.5 80q0 64 44.5 103.5t112.5 39.5q82 0 125.5 -45.5t43.5 -117.5q0 -79 -45 -139.5t-112 -91t-145 -36.5q-11 3 -11 19q0 9 6 12q92 24 140.5 86t48.5 149q0 54 -13.5 92t-40.5 38q-23 0 -35.5 -20.5t-12.5 -53.5q0 -34 16 -66t41 -36h14 q5 -2 6.5 -9.5t-1.5 -11.5q-29 -22 -66 -22z"/>
<glyph glyph-name="uniF66B" horiz-adv-x="200" unicode="" d="M177 279q0 -59 -40 -97t-100 -52q-15 2 -15 16q0 8 6 11q29 11 52 32.5t23 50.5q0 39 -49 55q-11 3 -18.5 14t-7.5 25q0 23 18 38.5t43 15.5q33 0 60.5 -27.5t27.5 -81.5z"/>
<glyph glyph-name="uniF66C" horiz-adv-x="200" unicode="" d="M100 240q-26 0 -45.5 18.5t-19.5 47.5t18.5 48t46.5 19q29 0 47 -19.5t18 -47.5q0 -29 -18 -47.5t-47 -18.5z"/>
<glyph glyph-name="uniF6AE" horiz-adv-x="340" unicode="" d="M181 330q0 -120 36.5 -233t112.5 -181q0 -18 -17 -19q-112 61 -170.5 179.5t-58.5 253.5t58.5 253.5t170.5 179.5q17 -1 17 -19q-76 -68 -112.5 -181t-36.5 -233z"/>
<glyph glyph-name="uniF6AF" horiz-adv-x="340" unicode="" d="M159 330q0 120 -36.5 233t-112.5 181q0 18 17 19q112 -61 170.5 -179.5t58.5 -253.5t-58.5 -253.5t-170.5 -179.5q-17 1 -17 19q76 68 112.5 181t36.5 233z"/>
<glyph glyph-name="uniF6B0" horiz-adv-x="340" unicode="" d="M121 -92v840q23 1 78 1q80 0 110 -4q6 -3 6 -16q0 -12 -5 -15l-69 -11q-25 -4 -31.5 -30.5t-6.5 -129.5v-430q0 -103 6.5 -129.5t31.5 -30.5l69 -11q5 -3 5 -15q0 -13 -6 -16q-30 -4 -110 -4q-55 0 -78 1z"/>
<glyph glyph-name="uniF6B1" horiz-adv-x="340" unicode="" d="M219 748v-840q-23 -1 -78 -1q-80 0 -110 4q-6 3 -6 16q0 12 5 15l69 11q25 4 31.5 30.5t6.5 129.5v430q0 103 -6.5 129.5t-31.5 30.5l-69 11q-5 3 -5 15q0 13 6 16q30 4 110 4q55 0 78 -1z"/>
<glyph glyph-name="uniF6B2" horiz-adv-x="340" unicode="" d="M239 222q0 -35 -9.5 -103t-9.5 -102q0 -33 17 -55.5t67 -31.5q4 -4 4 -12q0 -12 -6 -16q-39 0 -65.5 4t-52.5 17t-38.5 40.5t-12.5 69.5q0 33 8 103t8 101q0 14 -2 24t-10 23t-27 21t-49 10q-5 5 -5 14t5 12q32 2 51.5 9.5t26.5 21t8.5 22t1.5 25.5q0 31 -8 101t-8 103 q0 34 10 58.5t24.5 38.5t38.5 22t45.5 10t50.5 2q6 -4 6 -16q0 -8 -4 -12q-84 -15 -84 -87q0 -34 9.5 -102t9.5 -103q0 -85 -75 -104v-4q75 -19 75 -104z"/>
<glyph glyph-name="uniF6B3" horiz-adv-x="340" unicode="" d="M101 222q0 85 75 104v4q-75 19 -75 104q0 35 9.5 103t9.5 102q0 72 -84 87q-4 4 -4 12q0 12 6 16q29 0 50.5 -2t45.5 -10t38.5 -22t24.5 -38.5t10 -58.5q0 -33 -8 -103t-8 -101q0 -17 1.5 -25.5t8.5 -22t26.5 -21t51.5 -9.5q5 -3 5 -12t-5 -14q-30 -2 -49 -10t-27 -21 t-10 -23t-2 -24q0 -31 8 -101t8 -103q0 -80 -43.5 -105.5t-125.5 -25.5q-6 4 -6 16q0 8 4 12q50 9 67 31.5t17 55.5q0 34 -9.5 102t-9.5 103z"/>
<glyph glyph-name="uniF6B4" horiz-adv-x="254" unicode="" d="M127 650q36 0 58.5 -23t22.5 -58q0 -33 -23 -58t-58 -25q-34 0 -57.5 24t-23.5 59t24.5 58t56.5 23zM127 -10q-41 0 -60.5 9.5t-19.5 33.5q0 5 16 117l42 281q9 6 22 6t22 -6l42 -281q16 -112 16 -117q0 -24 -19.5 -33.5t-60.5 -9.5z"/>
<glyph glyph-name="uniF6B5" horiz-adv-x="332" unicode="" d="M201 650q35 0 58 -25t23 -58q0 -35 -22.5 -58t-58.5 -23q-32 0 -56.5 23t-24.5 58t23.5 59t57.5 24zM222 -10q-70 0 -126 61.5t-56 142.5q0 78 63 107l66 30q41 18 41 43t-10 54q4 9 20 9q9 0 13 -4q15 -21 29.5 -55.5t14.5 -62.5q0 -39 -20 -58.5t-70 -40.5l-47 -20 q-26 -11 -37 -18.5t-11 -17.5q0 -23 33.5 -33.5t111.5 -10.5q18 0 36.5 -17t18.5 -47q0 -26 -19.5 -44t-50.5 -18z"/>
<glyph glyph-name="uniF6B6" horiz-adv-x="432" unicode="" d="M396 494l-76 -160q-7 -14 0 -29l76 -163q-8 -15 -20 -15h-2q-86 102 -152 174q-8 8 -8 18t8 18q73 79 152 172q17 -4 22 -15zM218 494l-76 -160q-7 -14 0 -29l76 -163q-8 -15 -20 -15h-2q-86 102 -152 174q-8 8 -8 18t8 18q73 79 152 172q17 -4 22 -15z"/>
<glyph glyph-name="uniF6B7" horiz-adv-x="432" unicode="" d="M290 334l-76 160q5 11 22 15q79 -93 152 -172q8 -8 8 -18t-8 -18q-66 -72 -152 -174h-2q-12 0 -20 15l76 163q7 15 0 29zM112 334l-76 160q5 11 22 15q79 -93 152 -172q8 -8 8 -18t-8 -18q-66 -72 -152 -174h-2q-12 0 -20 15l76 163q7 15 0 29z"/>
<glyph glyph-name="uniF6B8" horiz-adv-x="255" unicode="" d="M219 494l-76 -160q-7 -14 0 -29l76 -163q-7 -15 -20 -15h-2q-86 102 -152 174q-8 8 -8 18t8 18q73 79 152 172q17 -4 22 -15z"/>
<glyph glyph-name="uniF6B9" horiz-adv-x="255" unicode="" d="M112 334l-76 160q5 11 22 15q79 -93 152 -172q8 -8 8 -18t-8 -18q-66 -72 -152 -174h-2q-12 0 -20 15l76 163q7 15 0 29z"/>
<glyph glyph-name="uniF6BA" horiz-adv-x="328" unicode="" d="M45 357l239 22q14 -16 14 -42q0 -23 -13 -39l-240 -22q-15 15 -15 40q0 22 15 41z"/>
<glyph glyph-name="uniF6BB" horiz-adv-x="500" unicode="" d="M0 362h500v-69h-500v69z"/>
<glyph glyph-name="uniF6BC" horiz-adv-x="1000" unicode="" d="M0 362h1000v-69h-1000v69z"/>
<glyph glyph-name="uniF6BD" horiz-adv-x="260" unicode="" d="M130 246q-32 0 -56.5 23t-24.5 58t23.5 59t57.5 24q35 0 58 -25t23 -58q0 -35 -22.5 -58t-58.5 -23z"/>
<glyph glyph-name="commaaccent" horiz-adv-x="380" unicode="" d="M178 -45q30 0 57 -25.5t27 -73.5q0 -58 -36.5 -93t-94.5 -47q-13 1 -13 20q0 10 5 13q25 9 46.5 28.5t21.5 42.5q0 38 -44 50q-24 7 -24 35q0 21 16 35.5t39 14.5z"/>
<glyph glyph-name="Acute" horiz-adv-x="380" unicode="" d="M117 731l162 121q23 17 33 17q18 0 34 -31q11 -18 11 -35q0 -6 -1 -8q-4 -17 -32 -25l-196 -64q-12 3 -12 19q0 4 1 6z"/>
<glyph glyph-name="Caron" horiz-adv-x="380" unicode="" d="M49 861l121 -50q12 -5 19 -5q8 0 16 4l120 51q7 0 11 -8.5t2 -17.5l-129 -117q-13 -10 -22 -10q-10 0 -22 10l-128 117q-1 9 3 17t9 9z"/>
<glyph glyph-name="Dieresis" horiz-adv-x="380" unicode="" d="M295 712q-26 0 -43 15t-18 43q0 28 17.5 46t43.5 18t43 -17.5t17 -41.5q0 -28 -17 -45.5t-43 -17.5zM86 712q-26 0 -43 15t-18 43q0 28 17.5 46t43.5 18t43 -17.5t17 -41.5q0 -28 -17 -45.5t-43 -17.5z"/>
<glyph glyph-name="Grave" horiz-adv-x="380" unicode="" d="M110 854l162 -118q1 -1 1 -5q0 -15 -12 -25l-196 64q-28 8 -32 25q-1 2 -1 8q0 17 11 35q16 31 34 31q11 0 33 -15z"/>
<glyph glyph-name="Hungarumlaut" horiz-adv-x="380" unicode="" d="M65 726l73 134q14 20 27 20q17 0 41 -21q22 -19 22 -40q0 -12 -33 -36l-106 -77q-6 0 -14.5 6.5t-9.5 13.5zM237 726l73 134q14 20 27 20q16 0 38 -19q24 -23 24 -42q0 -12 -32 -36l-106 -77q-6 0 -14.5 6.5t-9.5 13.5z"/>
<glyph glyph-name="Macron" horiz-adv-x="380" unicode="" d="M316 725h-253q-9 12 -9 37q0 26 9 38h253q10 -13 10 -38q0 -24 -10 -37z"/>
<glyph glyph-name="uniF6DC" horiz-adv-x="414" unicode="" d="M280 514v-385q0 -60 9 -75.5t46 -18.5l41 -3q6 -5 6 -17q0 -15 -8 -18q-54 3 -158 3q-108 0 -162 -3q-8 3 -8 18q0 13 6 17l41 3q37 3 46 18.5t9 75.5v327q0 51 -8 67t-40 20l-46 6q-7 4 -7 19q0 12 5 16q56 8 128 28q19 6 40 14t33.5 13t15.5 5q11 0 14 -11 q-3 -34 -3 -119z"/>
<glyph glyph-name="rupiah" horiz-adv-x="1098" unicode="" d="M776 259v-157q0 -35 20 -53q16 -18 45 -18h1q42 0 64.5 41.5t22.5 108.5q0 69 -29.5 108t-75.5 39q-27 0 -38 -14q-10 -10 -10 -55zM650 31v223q0 31 -2.5 41.5t-15.5 18.5l-13 9q-5 4 -5 15q0 10 5 14q76 20 139 59q14 2 20 -11q-2 -11 -2 -31q0 -12 7 -14q68 38 119 38 q73 0 116.5 -51t43.5 -130q0 -100 -64.5 -162.5t-167.5 -62.5q-30 0 -40 3q-14 -3 -14 -28v-100q0 -51 5.5 -64t29.5 -14l32 -2q6 -5 6 -16q0 -13 -7 -17q-70 3 -132 3t-113 -3q-6 4 -6 17q0 11 5 16l19 1q24 1 29.5 14.5t5.5 64.5v129q-18 -1 -55 -1q-65 0 -106.5 23 t-70.5 72q-38 62 -84 164q-14 30 -46 30q-23 0 -28 -3.5t-5 -20.5v-116q0 -70 8.5 -87t41.5 -20l23 -2q5 -4 5 -16q0 -13 -5 -17q-72 3 -145 3q-60 0 -132 -3q-5 4 -5 17q0 12 5 16l23 2q33 3 41 20t8 87v342q0 78 -6.5 97t-35.5 20l-20 1q-7 3 -7 17t9 16q102 8 230 8 q130 0 192 -35q80 -46 80 -142q0 -100 -105 -150q-9 -5 -1 -22q53 -109 85.5 -161.5t70.5 -82.5q15 -12 35 -16zM255 546v-186q0 -26 8 -31.5t47 -5.5q43 0 72 27q36 34 36 103q0 65 -34 103t-90 38q-27 0 -33 -8t-6 -40z"/>
<glyph glyph-name="threequartersemdash" horiz-adv-x="750" unicode="" d="M0 242h750v-69h-750v69z"/>
<glyph glyph-name="centinferior" horiz-adv-x="400" unicode="" d="M285 152l-41 -239q12 -3 25 -3q28 0 54 15.5t38 37.5q8 1 15 -4t7 -12q-46 -89 -149 -92l-13 -77q-5 -8 -19 -8q-15 0 -19 8l13 78q-72 8 -115 52.5t-43 109.5q0 87 63 135.5t153 49.5l11 62q7 7 19 7q13 0 20 -7l-11 -64q35 -3 58 -11q20 -15 20 -46q0 -16 -7.5 -28 t-16.5 -12q-5 0 -11 3l-15 15t-18.5 18t-16.5 14q-1 0 -1 -2zM208 -74l40 239q-1 1 -7 1q-44 0 -66 -39t-22 -86q0 -84 55 -115z"/>
<glyph glyph-name="centsuperior" horiz-adv-x="400" unicode="" d="M285 632l-41 -239q12 -3 25 -3q28 0 54 15.5t38 37.5q8 1 15 -4t7 -12q-46 -89 -149 -92l-13 -77q-5 -8 -19 -8q-15 0 -19 8l13 78q-72 8 -115 52.5t-43 109.5q0 87 63 135.5t153 49.5l11 62q7 7 19 7q13 0 20 -7l-11 -64q35 -3 58 -11q20 -15 20 -46q0 -16 -7.5 -28 t-16.5 -12q-5 0 -11 3l-15 15t-18.5 18t-16.5 14q-1 0 -1 -2zM208 406l40 239q-1 1 -7 1q-44 0 -66 -39t-22 -86q0 -84 55 -115z"/>
<glyph glyph-name="commainferior" horiz-adv-x="200" unicode="" d="M177 -133q0 -59 -40 -97t-100 -52q-15 2 -15 16q0 8 6 11q29 11 52 32.5t23 50.5q0 39 -49 55q-11 3 -18.5 14t-7.5 25q0 23 18 38.5t43 15.5q33 0 60.5 -27.5t27.5 -81.5z"/>
<glyph glyph-name="commasuperior" horiz-adv-x="200" unicode="" d="M177 347q0 -59 -40 -97t-100 -52q-15 2 -15 16q0 8 6 11q29 11 52 32.5t23 50.5q0 39 -49 55q-11 3 -18.5 14t-7.5 25q0 23 18 38.5t43 15.5q33 0 60.5 -27.5t27.5 -81.5z"/>
<glyph glyph-name="dollarinferior" horiz-adv-x="400" unicode="" d="M246 185l-16 -104l7 -2q127 -37 127 -123q0 -56 -46 -87.5t-127 -33.5l-10 -62q-3 -5 -19 -5t-19 5l10 65q-31 3 -58 11.5t-36 16.5q-23 31 -23 106q3 9 17 9q9 0 14 -5q8 -32 31.5 -60.5t60.5 -38.5l19 121q-127 34 -127 112q0 54 42.5 85t120.5 33l7 47q3 7 19 7t20 -7 l-7 -49q15 -1 41 -6.5t39 -6.5q12 -30 12 -89v-11q-3 -7 -14 -7t-15 6q-4 18 -22 40.5t-48 32.5zM193 93l15 98q-72 -1 -72 -50q0 -31 57 -48zM215 -13l-18 -114q33 0 52.5 15t19.5 39q0 40 -54 60z"/>
<glyph glyph-name="dollarsuperior" horiz-adv-x="400" unicode="" d="M246 665l-16 -104l7 -2q127 -37 127 -123q0 -56 -46 -87.5t-127 -33.5l-10 -62q-3 -5 -19 -5t-19 5l10 65q-31 3 -58 11.5t-36 16.5q-23 31 -23 106q3 9 17 9q9 0 14 -5q8 -32 31.5 -60.5t60.5 -38.5l19 121q-127 34 -127 112q0 54 42.5 85t120.5 33l7 47q3 7 19 7t20 -7 l-7 -49q15 -1 41 -6.5t39 -6.5q12 -30 12 -89v-11q-3 -7 -14 -7t-15 6q-4 18 -22 40.5t-48 32.5zM193 573l15 98q-72 -1 -72 -50q0 -31 57 -48zM215 467l-18 -114q33 0 52.5 15t19.5 39q0 40 -54 60z"/>
<glyph glyph-name="hypheninferior" horiz-adv-x="280" unicode="" d="M245 3h-209q-11 8 -11 33q0 26 11 31h209q11 -6 11 -31q0 -24 -11 -33z"/>
<glyph glyph-name="hyphensuperior" horiz-adv-x="280" unicode="" d="M245 483h-209q-11 8 -11 33q0 26 11 31h209q11 -6 11 -31q0 -24 -11 -33z"/>
<glyph glyph-name="periodinferior" horiz-adv-x="200" unicode="" d="M100 -172q-26 0 -45.5 18.5t-19.5 47.5t18.5 48t46.5 19q29 0 47 -19.5t18 -47.5q0 -29 -18 -47.5t-47 -18.5z"/>
<glyph glyph-name="periodsuperior" horiz-adv-x="200" unicode="" d="M100 308q-26 0 -45.5 18.5t-19.5 47.5t18.5 48t46.5 19q29 0 47 -19.5t18 -47.5q0 -29 -18 -47.5t-47 -18.5z"/>
<glyph glyph-name="asuperior" horiz-adv-x="374" unicode="" d="M132 394q0 -15 11.5 -27t28.5 -12q31 0 33 28l3 49q2 19 -8 19q-16 0 -28 -5q-40 -17 -40 -52zM196 608q58 0 85 -20.5t27 -68.5v-8l-5 -107v-7q0 -43 29 -43q11 0 27 7q11 -2 11 -13q0 -2 -2 -8q-12 -13 -36.5 -22.5t-44.5 -9.5q-42 0 -62 19q-10 10 -16 10 q-3 0 -21 -12q-32 -17 -61 -17q-48 0 -71.5 23.5t-23.5 52.5q0 53 55 70q50 17 101 30q20 6 22 19v10q0 60 -44 60q-29 0 -34 -32q-3 -21 -16 -31q-26 -15 -59 -15q-25 0 -25 17q0 24 31 51q21 18 58 31.5t75 13.5z"/>
<glyph glyph-name="bsuperior" horiz-adv-x="431" unicode="" d="M172 521v-99q0 -33 14 -55q16 -23 37 -23q61 0 61 102q0 49 -24 81.5t-58 32.5q-15 0 -23 -8q-7 -4 -7 -31zM172 676v-70q0 -16 6 -18q38 20 75 20q65 0 104.5 -40.5t39.5 -103.5q0 -72 -52 -114t-136 -42q-47 0 -80 12q-17 7 -24 7q-11 0 -24 -11q-11 0 -18 7q2 18 2 68 v276q0 23 -2.5 31.5t-12.5 13.5l-14 7q-4 4 -4 13q0 8 4 12q39 8 125 39q8 0 13 -5q-2 -29 -2 -102z"/>
<glyph glyph-name="dsuperior" horiz-adv-x="432" unicode="" d="M260 393v129q0 12 -6 24q-16 26 -39 26q-25 0 -45.5 -29t-20.5 -78q0 -40 19.5 -73.5t56.5 -33.5q15 0 27 7q8 7 8 28zM367 676v-244q0 -46 3.5 -61.5t14.5 -15.5q17 0 33 5q6 -4 6 -17q0 -11 -6 -17q-22 -1 -44.5 -4t-40 -6.5t-31 -7t-21.5 -5.5l-8 -2q-11 0 -13 10 l2 22q-2 9 -7 5q-25 -16 -36 -21q-23 -9 -42 -9q-63 0 -103 40t-40 99q0 72 52 116.5t129 44.5q25 0 37 -3q8 2 8 13v54q0 23 -2 30.5t-13 11.5l-13 5q-5 3 -5 12.5t5 12.5q41 8 125 39q9 0 13 -4q-3 -44 -3 -103z"/>
<glyph glyph-name="esuperior" horiz-adv-x="360" unicode="" d="M148 511h46q21 0 28 5q6 6 6 17q0 17 -11.5 28t-30.5 11q-25 0 -42 -19t-17 -32q0 -10 21 -10zM298 475h-160q-16 0 -16 -10q0 -28 26.5 -55t78.5 -27t80 38q18 4 22 -12q-21 -54 -61 -77.5t-85 -23.5q-73 1 -110 43.5t-37 98.5q0 66 45 112t114 46q60 0 96.5 -32 t36.5 -77q0 -24 -30 -24z"/>
<glyph glyph-name="isuperior" horiz-adv-x="252" unicode="" d="M182 524v-123q0 -35 5 -44.5t24 -12.5l14 -2q6 -3 6 -14q0 -12 -7 -15q-78 2 -99 2q-32 0 -92 -2q-7 3 -7 16q0 10 6 13l14 2q19 3 24 12.5t5 44.5v105q0 20 -2.5 28t-14.5 14l-11 6q-5 4 -5 12.5t5 12.5q64 16 124 39q13 2 13 -10q-2 -40 -2 -84zM129 783 q26 0 42.5 -18.5t16.5 -43.5q0 -29 -19 -46t-44 -17q-27 0 -43.5 18t-16.5 44t19 44.5t45 18.5z"/>
<glyph glyph-name="lsuperior" horiz-adv-x="247" unicode="" d="M70 400v259q0 33 -3 42t-17 18l-8 5q-5 4 -5 13t5 12q44 8 123 34h2q9 0 12 -8q-2 -26 -2 -102v-273q0 -34 5 -44t24 -12l17 -2q6 -3 6 -14q0 -12 -7 -15q-78 2 -104 2q-28 0 -92 -2q-8 5 -8 16q0 10 7 13l16 2q19 2 24 12t5 44z"/>
<glyph glyph-name="msuperior" horiz-adv-x="651" unicode="" d="M581 512v-111q0 -34 4.5 -45t19.5 -12l18 -2q5 -2 5 -13q0 -13 -6 -16q-36 2 -91 2q-52 0 -79 -2q-8 3 -8 16q0 11 5 13l11 2q14 3 14 37v116q0 26 -12.5 42t-34.5 16q-24 0 -38 -17q-10 -10 -10 -46v-91q0 -33 3.5 -43t16.5 -13l14 -3q6 -4 6 -14t-7 -15q-28 2 -83 2 q-52 0 -79 -2q-8 3 -8 16q0 11 5 13l11 2q14 3 14 37v116q0 26 -12.5 42t-33.5 16q-24 0 -40 -16q-9 -9 -9 -47v-111q0 -36 12 -37l15 -2q4 -1 4 -10q0 -15 -9 -19q-27 2 -83 2q-52 0 -86 -2q-7 3 -7 15q0 11 5 14l17 2q16 2 20.5 12.5t4.5 44.5v101q0 23 -3 31.5t-17 16.5 l-9 5q-5 4 -4.5 12t5.5 12q70 14 127 39q11 0 13 -8q-2 -26 -2 -31q0 -6 7 -7q56 36 93 36q63 0 88 -43l14 9q52 34 99 34q50 0 75 -26t25 -70z"/>
<glyph glyph-name="osuperior" horiz-adv-x="404" unicode="" d="M257 438q0 60 -14.5 97t-41.5 37q-23 0 -38 -25t-15 -74q0 -60 15.5 -94.5t43.5 -34.5q24 0 37 27t13 67zM205 608q74 0 120 -40.5t46 -107.5q0 -73 -48 -112.5t-123 -39.5q-73 0 -119.5 37.5t-46.5 105.5q0 73 49.5 115t121.5 42z"/>
<glyph glyph-name="rsuperior" horiz-adv-x="310" unicode="" d="M70 400v102q0 23 -2.5 31.5t-14.5 16.5l-12 8q-3 3 -2.5 11t3.5 10q78 13 123 39q8 0 11 -7q-2 -26 -2 -32q0 -9 8 -9q3 2 17 12t20.5 13.5t18 8t21.5 4.5q21 0 33.5 -12.5t12.5 -33.5q0 -23 -14.5 -36t-30.5 -13q-17 0 -30 8q-28 19 -42 19q-11 0 -11 -45v-91 q0 -37 5 -47t25 -12l30 -3q5 -3 5 -14q0 -12 -6 -15q-86 2 -118 2q-20 0 -90 -2q-6 3 -6 16q0 11 5 13l14 2q19 3 24 12.5t5 43.5z"/>
<glyph glyph-name="ssuperior" horiz-adv-x="310" unicode="" d="M171 608q45 0 88 -18q12 -30 12 -68v-6q-4 -7 -19 -7q-9 0 -13 4q-24 59 -71 59q-17 0 -27 -7.5t-10 -18.5q0 -13 14.5 -22t50.5 -20q84 -27 84 -98q0 -47 -38 -72.5t-99 -25.5q-64 0 -99 26q-14 19 -14 76v6q4 7 17 7q10 0 13 -5q12 -33 36 -53.5t54 -20.5q17 0 27 9 t10 23q0 15 -11.5 26t-44.5 22q-91 30 -91 90q0 45 36 69.5t95 24.5z"/>
<glyph glyph-name="tsuperior" horiz-adv-x="280" unicode="" d="M261 558h-70q-10 0 -12 -3.5t-2 -21.5v-93q0 -40 10.5 -60t38.5 -20q22 0 41 13q11 -3 11 -18q0 -6 -1 -8q-45 -39 -114 -39q-48 0 -70.5 22t-22.5 59v147q0 16 -2 19t-12 3h-27q-7 4 -7 15q0 9 5 12q38 13 65 30q9 6 55 44q5 5 13 5q14 0 17 -8v-43q0 -9 2 -11.5 t13 -2.5h73q6 -2 6 -15q-1 -17 -10 -26z"/>
<glyph glyph-name="dollaroldstyle" horiz-adv-x="461" unicode="" d="M283 394l-19 -121l11 -3q152 -41 152 -144q0 -64 -54.5 -100.5t-153.5 -38.5l-11 -72q-4 -5 -22 -5q-20 0 -22 5l12 73q-65 5 -115 33q-27 24 -27 128q6 8 19 8q11 0 15 -7q12 -39 41.5 -72t73.5 -44l22 143l-5 1q-66 13 -106.5 45.5t-40.5 84.5q0 62 50.5 97.5 t142.5 36.5l9 56q3 8 22 8t22 -8l-9 -58q21 -2 57 -10t39 -9q18 -34 18 -110v-8q-5 -8 -17 -8t-17 7q-24 76 -87 92zM247 164l-21 -134q39 2 63 18.5t24 44.5q0 49 -66 71zM222 285l17 113q-84 -1 -84 -57q0 -36 67 -56z"/>
<glyph glyph-name="zerooldstyle" horiz-adv-x="540" unicode="" d="M147 214q0 -70 34.5 -112t88.5 -42t88.5 42t34.5 112t-34.5 112t-88.5 42t-88.5 -42t-34.5 -112zM270 442q104 0 169 -65t65 -163t-65 -163t-169 -65t-169 65t-65 163t65 163t169 65z"/>
<glyph glyph-name="oneoldstyle" horiz-adv-x="388" unicode="" d="M128 129v170q0 56 -9.5 73.5t-41.5 21.5l-31 4q-6 4 -6 16q0 14 8 17q56 -3 144 -3q95 0 146 3q8 -3 8 -17q0 -12 -6 -16l-31 -4q-32 -4 -41.5 -21.5t-9.5 -73.5v-170q0 -56 9.5 -73t41.5 -21l41 -5q6 -4 6 -16q0 -14 -8 -17q-56 3 -156 3q-98 0 -154 -3q-8 3 -8 17 q0 12 6 16l41 5q32 4 41.5 21t9.5 73z"/>
<glyph glyph-name="twooldstyle" horiz-adv-x="486" unicode="" d="M245 91h82q55 0 83 9t49 45q6 3 12 3q14 0 22 -10q-13 -27 -34 -77t-28 -64q-78 3 -124 3h-156q-85 0 -110 -3q-13 7 -7 23q53 32 129 104q75 71 75 147q0 41 -20.5 64.5t-55.5 23.5q-58 0 -105 -81q-2 -1 -6 -1q-9 0 -16 6.5t-8 15.5q30 67 82.5 105t117.5 38 q73 0 114.5 -38t41.5 -99q0 -25 -9 -47.5t-29.5 -45.5t-35.5 -37t-44.5 -38.5t-40.5 -33.5q1 -12 21 -12z"/>
<glyph glyph-name="threeoldstyle" horiz-adv-x="416" unicode="" d="M237 17q0 80 -43 116q-20 15 -43 15q-27 0 -65 -32h-2q-9 0 -15.5 10t-6.5 23q0 7 3 15q28 11 42 17.5t38 20.5t36 27t22 33t10 44q0 26 -16 44.5t-42 18.5q-42 0 -85 -68q-2 -1 -6 -1q-10 0 -17.5 7.5t-7.5 18.5q26 50 70.5 83t105.5 33t98 -31t37 -82q0 -58 -84 -99 q-14 -6 -14 -15q0 -6 17 -11q48 -12 74.5 -47.5t26.5 -82.5q0 -110 -112 -192q-43 -32 -93 -51t-86 -19q-23 0 -35.5 14.5t-12.5 32.5q0 31 24 31q4 0 29.5 -5t43.5 -5q109 0 109 137z"/>
<glyph glyph-name="fouroldstyle" horiz-adv-x="522" unicode="" d="M139 73h112q16 0 19 3.5t3 24.5v172h-2l-144 -182q-5 -6 -1.5 -12t13.5 -6zM495 13h-80q-17 0 -20 -4.5t-3 -26.5v-159q-6 -9 -63 -9q-49 0 -56 9v159q0 22 -3 26.5t-19 4.5h-223q-11 8 -11 25q0 1 0.5 3t0.5 3l61 71q18 20 136 166t127 157q20 4 22 4q18 0 28 -19v-322 q0 -21 3 -24.5t20 -3.5h84q11 -8 11 -24q0 -29 -15 -36z"/>
<glyph glyph-name="fiveoldstyle" horiz-adv-x="409" unicode="" d="M299 323l-135 -14q-27 -3 -35.5 -7t-8.5 -13q0 -15 70 -47q148 -67 148 -193q0 -43 -18.5 -81.5t-47 -64.5t-66 -47.5t-71 -34t-65.5 -19.5q-17 3 -17 22q0 8 5 13q26 9 50.5 21t52 32.5t44.5 50.5t17 65q0 80 -93 128q-74 40 -74 93q0 42 31.5 107t57.5 74q19 7 65 12 l104 11q39 3 55 14q7 0 12 -4t4 -9q-33 -103 -85 -109z"/>
<glyph glyph-name="sixoldstyle" horiz-adv-x="523" unicode="" d="M514 639q6 -3 6 -17q0 -8 -2 -10q-47 -20 -66.5 -28.5t-60 -32.5t-71.5 -52q-134 -118 -134 -301q0 -75 27.5 -120.5t69.5 -45.5q32 0 52.5 25t20.5 80q0 66 -26 114t-72 48q-4 0 -14 -2q-9 5 -9 17q0 7 4 11q53 34 105 34q62 0 102.5 -45.5t40.5 -117.5q0 -96 -66 -153 t-160 -57q-102 0 -159 60t-57 164q0 91 41.5 170.5t109 133t150.5 86.5t168 39z"/>
<glyph glyph-name="sevenoldstyle" horiz-adv-x="504" unicode="" d="M170 428h175h61q75 0 85 3q9 -4 7 -16q-37 -50 -137 -221l-232 -391q-2 -1 -5 -1h-8q-12 0 -24 8.5t-16 20.5l247 410q29 48 29 68q0 15 -27 15h-170q-47 0 -66 -11t-41 -47q-2 -1 -7 -1q-7 0 -14 5t-9 11q31 64 51 150q32 -3 101 -3z"/>
<glyph glyph-name="eightoldstyle" horiz-adv-x="477" unicode="" d="M319 477q0 41 -20.5 69.5t-55.5 28.5q-31 0 -52 -24t-21 -63q0 -75 108 -131q41 46 41 120zM211 258q-50 -45 -50 -122q0 -45 23 -74.5t56 -29.5q31 0 50.5 22t19.5 60q0 87 -99 144zM245 621q88 0 138 -41.5t50 -114.5q0 -85 -109 -144q111 -73 111 -172 q0 -72 -52.5 -117.5t-151.5 -45.5q-81 0 -135 39t-54 113q0 94 114 159q-105 62 -105 154q0 73 53.5 121.5t140.5 48.5z"/>
<glyph glyph-name="nineoldstyle" horiz-adv-x="511" unicode="" d="M42 -198q-8 5 -8 18q0 8 3 12q93 25 145 69q145 121 145 336q0 72 -22.5 115.5t-56.5 43.5t-53.5 -31.5t-19.5 -82.5q0 -41 14 -79.5t42 -56.5q12 -8 27 -8q2 0 6.5 0.5t6.5 0.5q9 -9 3 -26q-43 -26 -80 -26q-71 0 -113 42.5t-42 110.5q0 89 63.5 145.5t157.5 56.5 q100 0 153 -61t53 -163q0 -83 -34 -163.5t-105 -142.5q-116 -100 -285 -110z"/>
<glyph glyph-name="centoldstyle" horiz-adv-x="434" unicode="" d="M306 343l-37 -265q12 -2 22 -2q30 0 58 17t42 44q23 0 23 -16q-44 -97 -153 -102l-12 -84q-7 -7 -22 -7t-21 7l12 85q-79 7 -126 55t-47 119q0 93 65 145t160 54l9 66q5 5 20 5t23 -5l-9 -67q44 -4 69 -12q21 -18 21 -50q0 -17 -8.5 -30t-17.5 -13q-7 0 -11 4 q-42 42 -60 52zM228 93l36 261q-50 -1 -73 -44t-23 -95q0 -89 60 -122z"/>
</font>
</defs>
</svg>
